<svg width="337" height="203" viewBox="0 0 337 203" fill="none" xmlns="http://www.w3.org/2000/svg">
<g filter="url(#filter0_i_0_1)">
<path fill-rule="evenodd" clip-rule="evenodd" d="M-88.3967 0.00109863C-13.8913 1.54259 36.318 38.2085 86.2314 94.172C134.474 148.262 211.173 184.799 334.614 162.579L336.386 172.421C209.827 195.202 129.526 157.738 78.7684 100.828C29.6818 45.7916 -18.1089 11.4575 -88.6035 9.99896L-88.3967 0.00109863Z" fill="#D5CE4F"/>
</g>
<g filter="url(#filter1_i_0_1)">
<path fill-rule="evenodd" clip-rule="evenodd" d="M-94.3967 8.0011C-19.8913 9.54259 30.318 46.2085 80.2314 102.172C128.474 156.262 205.173 192.799 328.614 170.579L330.386 180.421C203.827 203.202 123.526 165.738 72.7684 108.828C23.6818 53.7916 -24.1089 19.4575 -94.6035 17.999L-94.3967 8.0011Z" fill="#D54F4F"/>
</g>
<g filter="url(#filter2_i_0_1)">
<path fill-rule="evenodd" clip-rule="evenodd" d="M-100.397 15.0011C-25.8913 16.5426 24.318 53.2085 74.2314 109.172C122.474 163.262 199.173 199.799 322.614 177.579L324.386 187.421C197.827 210.202 117.526 172.738 66.7684 115.828C17.6818 60.7916 -30.1089 26.4575 -100.604 24.999L-100.397 15.0011Z" fill="#4C8958"/>
</g>
<g filter="url(#filter3_i_0_1)">
<path fill-rule="evenodd" clip-rule="evenodd" d="M-105.397 23.0011C-30.8913 24.5426 19.318 61.2085 69.2314 117.172C117.474 171.262 194.173 207.799 317.614 185.579L319.386 195.421C192.827 218.202 112.526 180.738 61.7684 123.828C12.6818 68.7916 -35.1089 34.4575 -105.604 32.999L-105.397 23.0011Z" fill="#426690"/>
</g>
<rect x="65.4456" y="133.815" width="46.7924" height="10" transform="rotate(-43.4956 65.4456 133.815)" fill="#525252"/>
<defs>
<filter id="filter0_i_0_1" x="-88.6035" y="0.00109863" width="424.989" height="182.187" filterUnits="userSpaceOnUse" color-interpolation-filters="sRGB">
<feFlood flood-opacity="0" result="BackgroundImageFix"/>
<feBlend mode="normal" in="SourceGraphic" in2="BackgroundImageFix" result="shape"/>
<feColorMatrix in="SourceAlpha" type="matrix" values="0 0 0 0 0 0 0 0 0 0 0 0 0 0 0 0 0 0 127 0" result="hardAlpha"/>
<feOffset dy="3"/>
<feGaussianBlur stdDeviation="2.5"/>
<feComposite in2="hardAlpha" operator="arithmetic" k2="-1" k3="1"/>
<feColorMatrix type="matrix" values="0 0 0 0 1 0 0 0 0 1 0 0 0 0 1 0 0 0 0.2 0"/>
<feBlend mode="normal" in2="shape" result="effect1_innerShadow_0_1"/>
</filter>
<filter id="filter1_i_0_1" x="-94.6035" y="8.0011" width="424.989" height="182.187" filterUnits="userSpaceOnUse" color-interpolation-filters="sRGB">
<feFlood flood-opacity="0" result="BackgroundImageFix"/>
<feBlend mode="normal" in="SourceGraphic" in2="BackgroundImageFix" result="shape"/>
<feColorMatrix in="SourceAlpha" type="matrix" values="0 0 0 0 0 0 0 0 0 0 0 0 0 0 0 0 0 0 127 0" result="hardAlpha"/>
<feOffset dy="3"/>
<feGaussianBlur stdDeviation="2.5"/>
<feComposite in2="hardAlpha" operator="arithmetic" k2="-1" k3="1"/>
<feColorMatrix type="matrix" values="0 0 0 0 1 0 0 0 0 1 0 0 0 0 1 0 0 0 0.2 0"/>
<feBlend mode="normal" in2="shape" result="effect1_innerShadow_0_1"/>
</filter>
<filter id="filter2_i_0_1" x="-100.604" y="15.0011" width="424.989" height="182.187" filterUnits="userSpaceOnUse" color-interpolation-filters="sRGB">
<feFlood flood-opacity="0" result="BackgroundImageFix"/>
<feBlend mode="normal" in="SourceGraphic" in2="BackgroundImageFix" result="shape"/>
<feColorMatrix in="SourceAlpha" type="matrix" values="0 0 0 0 0 0 0 0 0 0 0 0 0 0 0 0 0 0 127 0" result="hardAlpha"/>
<feOffset dy="3"/>
<feGaussianBlur stdDeviation="2.5"/>
<feComposite in2="hardAlpha" operator="arithmetic" k2="-1" k3="1"/>
<feColorMatrix type="matrix" values="0 0 0 0 1 0 0 0 0 1 0 0 0 0 1 0 0 0 0.2 0"/>
<feBlend mode="normal" in2="shape" result="effect1_innerShadow_0_1"/>
</filter>
<filter id="filter3_i_0_1" x="-105.604" y="23.0011" width="424.989" height="182.187" filterUnits="userSpaceOnUse" color-interpolation-filters="sRGB">
<feFlood flood-opacity="0" result="BackgroundImageFix"/>
<feBlend mode="normal" in="SourceGraphic" in2="BackgroundImageFix" result="shape"/>
<feColorMatrix in="SourceAlpha" type="matrix" values="0 0 0 0 0 0 0 0 0 0 0 0 0 0 0 0 0 0 127 0" result="hardAlpha"/>
<feOffset dy="3"/>
<feGaussianBlur stdDeviation="2.5"/>
<feComposite in2="hardAlpha" operator="arithmetic" k2="-1" k3="1"/>
<feColorMatrix type="matrix" values="0 0 0 0 1 0 0 0 0 1 0 0 0 0 1 0 0 0 0.2 0"/>
<feBlend mode="normal" in2="shape" result="effect1_innerShadow_0_1"/>
</filter>
</defs>
</svg>
