%TF.GenerationSoftware,KiCad,Pcbnew,8.99.0-3218-gdd8f7901b1*%
%TF.CreationDate,2025-01-02T16:36:55-05:00*%
%TF.ProjectId,hack_matrix,6861636b-5f6d-4617-9472-69782e6b6963,rev?*%
%TF.SameCoordinates,Original*%
%TF.FileFunction,Other,User*%
%FSLAX46Y46*%
G04 Gerber Fmt 4.6, Leading zero omitted, Abs format (unit mm)*
G04 Created by KiCad (PCBNEW 8.99.0-3218-gdd8f7901b1) date 2025-01-02 16:36:55*
%MOMM*%
%LPD*%
G01*
G04 APERTURE LIST*
%ADD10C,0.050000*%
%ADD11C,0.100000*%
G04 APERTURE END LIST*
D10*
%TO.C,U5*%
X167090000Y-67450000D02*
X167090000Y-74550000D01*
X167090000Y-67450000D02*
X174910000Y-67450000D01*
X167090000Y-74550000D02*
X174910000Y-74550000D01*
X174910000Y-67450000D02*
X174910000Y-74550000D01*
%TO.C,C5*%
X179363587Y-89081430D02*
X180283587Y-89081430D01*
X179363587Y-90901430D02*
X179363587Y-89081430D01*
X180283587Y-89081430D02*
X180283587Y-90901430D01*
X180283587Y-90901430D02*
X179363587Y-90901430D01*
%TO.C,J1*%
X166150000Y-82597570D02*
X166150000Y-92647570D01*
X166150000Y-92647570D02*
X174570000Y-92647570D01*
X174570000Y-82597570D02*
X166150000Y-82597570D01*
X174570000Y-92647570D02*
X174570000Y-82597570D01*
%TO.C,C10*%
X182590000Y-88040000D02*
X184410000Y-88040000D01*
X182590000Y-88960000D02*
X182590000Y-88040000D01*
X184410000Y-88040000D02*
X184410000Y-88960000D01*
X184410000Y-88960000D02*
X182590000Y-88960000D01*
%TO.C,U1*%
X167090000Y-75248396D02*
X167090000Y-82348396D01*
X167090000Y-75248396D02*
X174910000Y-75248396D01*
X167090000Y-82348396D02*
X174910000Y-82348396D01*
X174910000Y-75248396D02*
X174910000Y-82348396D01*
%TO.C,SW2*%
X184581235Y-86853738D02*
X184581235Y-92853738D01*
X184581235Y-92853738D02*
X187981235Y-92853738D01*
X187981235Y-86853738D02*
X184581235Y-86853738D01*
X187981235Y-92853738D02*
X187981235Y-86853738D01*
%TO.C,U3*%
X180580000Y-89465677D02*
X180580000Y-92865677D01*
X180580000Y-92865677D02*
X184420000Y-92865677D01*
X184420000Y-89465677D02*
X180580000Y-89465677D01*
X184420000Y-92865677D02*
X184420000Y-89465677D01*
%TO.C,D1*%
X174831590Y-93117116D02*
X174831590Y-88717116D01*
X177131590Y-88717116D02*
X174831590Y-88717116D01*
X177131590Y-88717116D02*
X177131590Y-93117116D01*
X177131590Y-93117116D02*
X174831590Y-93117116D01*
%TO.C,U4*%
X181433227Y-62296067D02*
X181433227Y-82796067D01*
X181433227Y-82796067D02*
X197333227Y-82796067D01*
X197333227Y-62296067D02*
X181433227Y-62296067D01*
X197333227Y-82796067D02*
X197333227Y-62296067D01*
%TO.C,C3*%
X178455544Y-91279385D02*
X179375544Y-91279385D01*
X178455544Y-93099385D02*
X178455544Y-91279385D01*
X179375544Y-91279385D02*
X179375544Y-93099385D01*
X179375544Y-93099385D02*
X178455544Y-93099385D01*
%TO.C,J2*%
D11*
X188216183Y-93102955D02*
X197316183Y-93102955D01*
X197316183Y-83102955D01*
X188216183Y-83102955D01*
X188216183Y-93102955D01*
D10*
%TO.C,C6*%
X179498278Y-91278128D02*
X180418278Y-91278128D01*
X179498278Y-93098128D02*
X179498278Y-91278128D01*
X180418278Y-91278128D02*
X180418278Y-93098128D01*
X180418278Y-93098128D02*
X179498278Y-93098128D01*
%TO.C,R2*%
X177314613Y-89060000D02*
X178254613Y-89060000D01*
X177314613Y-90920000D02*
X177314613Y-89060000D01*
X178254613Y-89060000D02*
X178254613Y-90920000D01*
X178254613Y-90920000D02*
X177314613Y-90920000D01*
%TO.C,R1*%
X178314613Y-89060000D02*
X179254613Y-89060000D01*
X178314613Y-90920000D02*
X178314613Y-89060000D01*
X179254613Y-89060000D02*
X179254613Y-90920000D01*
X179254613Y-90920000D02*
X178314613Y-90920000D01*
%TO.C,C4*%
X177411743Y-91281559D02*
X178331743Y-91281559D01*
X177411743Y-93101559D02*
X177411743Y-91281559D01*
X178331743Y-91281559D02*
X178331743Y-93101559D01*
X178331743Y-93101559D02*
X177411743Y-93101559D01*
%TD*%
M02*
