%TF.GenerationSoftware,KiCad,Pcbnew,8.99.0-3218-gdd8f7901b1*%
%TF.CreationDate,2025-01-02T16:36:55-05:00*%
%TF.ProjectId,hack_matrix,6861636b-5f6d-4617-9472-69782e6b6963,rev?*%
%TF.SameCoordinates,Original*%
%TF.FileFunction,AssemblyDrawing,Top*%
%FSLAX46Y46*%
G04 Gerber Fmt 4.6, Leading zero omitted, Abs format (unit mm)*
G04 Created by KiCad (PCBNEW 8.99.0-3218-gdd8f7901b1) date 2025-01-02 16:36:55*
%MOMM*%
%LPD*%
G01*
G04 APERTURE LIST*
%ADD10C,0.150000*%
%ADD11C,0.040000*%
%ADD12C,0.120000*%
%ADD13C,0.050000*%
%ADD14C,0.127000*%
%ADD15C,0.200000*%
%ADD16C,0.100000*%
G04 APERTURE END LIST*
D10*
X157109762Y-68522200D02*
X157252619Y-68569819D01*
X157252619Y-68569819D02*
X157490714Y-68569819D01*
X157490714Y-68569819D02*
X157585952Y-68522200D01*
X157585952Y-68522200D02*
X157633571Y-68474580D01*
X157633571Y-68474580D02*
X157681190Y-68379342D01*
X157681190Y-68379342D02*
X157681190Y-68284104D01*
X157681190Y-68284104D02*
X157633571Y-68188866D01*
X157633571Y-68188866D02*
X157585952Y-68141247D01*
X157585952Y-68141247D02*
X157490714Y-68093628D01*
X157490714Y-68093628D02*
X157300238Y-68046009D01*
X157300238Y-68046009D02*
X157205000Y-67998390D01*
X157205000Y-67998390D02*
X157157381Y-67950771D01*
X157157381Y-67950771D02*
X157109762Y-67855533D01*
X157109762Y-67855533D02*
X157109762Y-67760295D01*
X157109762Y-67760295D02*
X157157381Y-67665057D01*
X157157381Y-67665057D02*
X157205000Y-67617438D01*
X157205000Y-67617438D02*
X157300238Y-67569819D01*
X157300238Y-67569819D02*
X157538333Y-67569819D01*
X157538333Y-67569819D02*
X157681190Y-67617438D01*
X158109762Y-68569819D02*
X158109762Y-67569819D01*
X158109762Y-67569819D02*
X158681190Y-68569819D01*
X158681190Y-68569819D02*
X158681190Y-67569819D01*
X159062143Y-67569819D02*
X159728809Y-67569819D01*
X159728809Y-67569819D02*
X159300238Y-68569819D01*
X160538333Y-67903152D02*
X160538333Y-68569819D01*
X160300238Y-67522200D02*
X160062143Y-68236485D01*
X160062143Y-68236485D02*
X160681190Y-68236485D01*
X161014524Y-68284104D02*
X161490714Y-68284104D01*
X160919286Y-68569819D02*
X161252619Y-67569819D01*
X161252619Y-67569819D02*
X161585952Y-68569819D01*
X161919286Y-68569819D02*
X161919286Y-67569819D01*
X161919286Y-68046009D02*
X162490714Y-68046009D01*
X162490714Y-68569819D02*
X162490714Y-67569819D01*
X163538333Y-68474580D02*
X163490714Y-68522200D01*
X163490714Y-68522200D02*
X163347857Y-68569819D01*
X163347857Y-68569819D02*
X163252619Y-68569819D01*
X163252619Y-68569819D02*
X163109762Y-68522200D01*
X163109762Y-68522200D02*
X163014524Y-68426961D01*
X163014524Y-68426961D02*
X162966905Y-68331723D01*
X162966905Y-68331723D02*
X162919286Y-68141247D01*
X162919286Y-68141247D02*
X162919286Y-67998390D01*
X162919286Y-67998390D02*
X162966905Y-67807914D01*
X162966905Y-67807914D02*
X163014524Y-67712676D01*
X163014524Y-67712676D02*
X163109762Y-67617438D01*
X163109762Y-67617438D02*
X163252619Y-67569819D01*
X163252619Y-67569819D02*
X163347857Y-67569819D01*
X163347857Y-67569819D02*
X163490714Y-67617438D01*
X163490714Y-67617438D02*
X163538333Y-67665057D01*
X163824048Y-67569819D02*
X164395476Y-67569819D01*
X164109762Y-68569819D02*
X164109762Y-67569819D01*
X164681191Y-67665057D02*
X164728810Y-67617438D01*
X164728810Y-67617438D02*
X164824048Y-67569819D01*
X164824048Y-67569819D02*
X165062143Y-67569819D01*
X165062143Y-67569819D02*
X165157381Y-67617438D01*
X165157381Y-67617438D02*
X165205000Y-67665057D01*
X165205000Y-67665057D02*
X165252619Y-67760295D01*
X165252619Y-67760295D02*
X165252619Y-67855533D01*
X165252619Y-67855533D02*
X165205000Y-67998390D01*
X165205000Y-67998390D02*
X164633572Y-68569819D01*
X164633572Y-68569819D02*
X165252619Y-68569819D01*
X166109762Y-67903152D02*
X166109762Y-68569819D01*
X165871667Y-67522200D02*
X165633572Y-68236485D01*
X165633572Y-68236485D02*
X166252619Y-68236485D01*
X167109762Y-67569819D02*
X166633572Y-67569819D01*
X166633572Y-67569819D02*
X166585953Y-68046009D01*
X166585953Y-68046009D02*
X166633572Y-67998390D01*
X166633572Y-67998390D02*
X166728810Y-67950771D01*
X166728810Y-67950771D02*
X166966905Y-67950771D01*
X166966905Y-67950771D02*
X167062143Y-67998390D01*
X167062143Y-67998390D02*
X167109762Y-68046009D01*
X167109762Y-68046009D02*
X167157381Y-68141247D01*
X167157381Y-68141247D02*
X167157381Y-68379342D01*
X167157381Y-68379342D02*
X167109762Y-68474580D01*
X167109762Y-68474580D02*
X167062143Y-68522200D01*
X167062143Y-68522200D02*
X166966905Y-68569819D01*
X166966905Y-68569819D02*
X166728810Y-68569819D01*
X166728810Y-68569819D02*
X166633572Y-68522200D01*
X166633572Y-68522200D02*
X166585953Y-68474580D01*
X167585953Y-68569819D02*
X167585953Y-67569819D01*
X167585953Y-67569819D02*
X167966905Y-67569819D01*
X167966905Y-67569819D02*
X168062143Y-67617438D01*
X168062143Y-67617438D02*
X168109762Y-67665057D01*
X168109762Y-67665057D02*
X168157381Y-67760295D01*
X168157381Y-67760295D02*
X168157381Y-67903152D01*
X168157381Y-67903152D02*
X168109762Y-67998390D01*
X168109762Y-67998390D02*
X168062143Y-68046009D01*
X168062143Y-68046009D02*
X167966905Y-68093628D01*
X167966905Y-68093628D02*
X167585953Y-68093628D01*
X168490715Y-67569819D02*
X168728810Y-68569819D01*
X168728810Y-68569819D02*
X168919286Y-67855533D01*
X168919286Y-67855533D02*
X169109762Y-68569819D01*
X169109762Y-68569819D02*
X169347858Y-67569819D01*
X170300238Y-68569819D02*
X169966905Y-68093628D01*
X169728810Y-68569819D02*
X169728810Y-67569819D01*
X169728810Y-67569819D02*
X170109762Y-67569819D01*
X170109762Y-67569819D02*
X170205000Y-67617438D01*
X170205000Y-67617438D02*
X170252619Y-67665057D01*
X170252619Y-67665057D02*
X170300238Y-67760295D01*
X170300238Y-67760295D02*
X170300238Y-67903152D01*
X170300238Y-67903152D02*
X170252619Y-67998390D01*
X170252619Y-67998390D02*
X170205000Y-68046009D01*
X170205000Y-68046009D02*
X170109762Y-68093628D01*
X170109762Y-68093628D02*
X169728810Y-68093628D01*
X179118406Y-91062858D02*
X179118406Y-91634286D01*
X179118406Y-91348572D02*
X178118406Y-91348572D01*
X178118406Y-91348572D02*
X178261263Y-91443810D01*
X178261263Y-91443810D02*
X178356501Y-91539048D01*
X178356501Y-91539048D02*
X178404120Y-91634286D01*
X178118406Y-90443810D02*
X178118406Y-90348572D01*
X178118406Y-90348572D02*
X178166025Y-90253334D01*
X178166025Y-90253334D02*
X178213644Y-90205715D01*
X178213644Y-90205715D02*
X178308882Y-90158096D01*
X178308882Y-90158096D02*
X178499358Y-90110477D01*
X178499358Y-90110477D02*
X178737453Y-90110477D01*
X178737453Y-90110477D02*
X178927929Y-90158096D01*
X178927929Y-90158096D02*
X179023167Y-90205715D01*
X179023167Y-90205715D02*
X179070787Y-90253334D01*
X179070787Y-90253334D02*
X179118406Y-90348572D01*
X179118406Y-90348572D02*
X179118406Y-90443810D01*
X179118406Y-90443810D02*
X179070787Y-90539048D01*
X179070787Y-90539048D02*
X179023167Y-90586667D01*
X179023167Y-90586667D02*
X178927929Y-90634286D01*
X178927929Y-90634286D02*
X178737453Y-90681905D01*
X178737453Y-90681905D02*
X178499358Y-90681905D01*
X178499358Y-90681905D02*
X178308882Y-90634286D01*
X178308882Y-90634286D02*
X178213644Y-90586667D01*
X178213644Y-90586667D02*
X178166025Y-90539048D01*
X178166025Y-90539048D02*
X178118406Y-90443810D01*
X178451739Y-89253334D02*
X179118406Y-89253334D01*
X178451739Y-89681905D02*
X178975548Y-89681905D01*
X178975548Y-89681905D02*
X179070787Y-89634286D01*
X179070787Y-89634286D02*
X179118406Y-89539048D01*
X179118406Y-89539048D02*
X179118406Y-89396191D01*
X179118406Y-89396191D02*
X179070787Y-89300953D01*
X179070787Y-89300953D02*
X179023167Y-89253334D01*
X178594596Y-88443810D02*
X178594596Y-88777143D01*
X179118406Y-88777143D02*
X178118406Y-88777143D01*
X178118406Y-88777143D02*
X178118406Y-88300953D01*
D11*
X179913352Y-90033096D02*
X179925257Y-90045000D01*
X179925257Y-90045000D02*
X179937161Y-90080715D01*
X179937161Y-90080715D02*
X179937161Y-90104524D01*
X179937161Y-90104524D02*
X179925257Y-90140238D01*
X179925257Y-90140238D02*
X179901447Y-90164048D01*
X179901447Y-90164048D02*
X179877637Y-90175953D01*
X179877637Y-90175953D02*
X179830018Y-90187857D01*
X179830018Y-90187857D02*
X179794304Y-90187857D01*
X179794304Y-90187857D02*
X179746685Y-90175953D01*
X179746685Y-90175953D02*
X179722876Y-90164048D01*
X179722876Y-90164048D02*
X179699066Y-90140238D01*
X179699066Y-90140238D02*
X179687161Y-90104524D01*
X179687161Y-90104524D02*
X179687161Y-90080715D01*
X179687161Y-90080715D02*
X179699066Y-90045000D01*
X179699066Y-90045000D02*
X179710971Y-90033096D01*
X179687161Y-89806905D02*
X179687161Y-89925953D01*
X179687161Y-89925953D02*
X179806209Y-89937857D01*
X179806209Y-89937857D02*
X179794304Y-89925953D01*
X179794304Y-89925953D02*
X179782399Y-89902143D01*
X179782399Y-89902143D02*
X179782399Y-89842619D01*
X179782399Y-89842619D02*
X179794304Y-89818810D01*
X179794304Y-89818810D02*
X179806209Y-89806905D01*
X179806209Y-89806905D02*
X179830018Y-89795000D01*
X179830018Y-89795000D02*
X179889542Y-89795000D01*
X179889542Y-89795000D02*
X179913352Y-89806905D01*
X179913352Y-89806905D02*
X179925257Y-89818810D01*
X179925257Y-89818810D02*
X179937161Y-89842619D01*
X179937161Y-89842619D02*
X179937161Y-89902143D01*
X179937161Y-89902143D02*
X179925257Y-89925953D01*
X179925257Y-89925953D02*
X179913352Y-89937857D01*
D10*
X199048689Y-87174889D02*
X199048689Y-87984412D01*
X199048689Y-87984412D02*
X199096308Y-88079650D01*
X199096308Y-88079650D02*
X199143927Y-88127270D01*
X199143927Y-88127270D02*
X199239165Y-88174889D01*
X199239165Y-88174889D02*
X199429641Y-88174889D01*
X199429641Y-88174889D02*
X199524879Y-88127270D01*
X199524879Y-88127270D02*
X199572498Y-88079650D01*
X199572498Y-88079650D02*
X199620117Y-87984412D01*
X199620117Y-87984412D02*
X199620117Y-87174889D01*
X200048689Y-88127270D02*
X200191546Y-88174889D01*
X200191546Y-88174889D02*
X200429641Y-88174889D01*
X200429641Y-88174889D02*
X200524879Y-88127270D01*
X200524879Y-88127270D02*
X200572498Y-88079650D01*
X200572498Y-88079650D02*
X200620117Y-87984412D01*
X200620117Y-87984412D02*
X200620117Y-87889174D01*
X200620117Y-87889174D02*
X200572498Y-87793936D01*
X200572498Y-87793936D02*
X200524879Y-87746317D01*
X200524879Y-87746317D02*
X200429641Y-87698698D01*
X200429641Y-87698698D02*
X200239165Y-87651079D01*
X200239165Y-87651079D02*
X200143927Y-87603460D01*
X200143927Y-87603460D02*
X200096308Y-87555841D01*
X200096308Y-87555841D02*
X200048689Y-87460603D01*
X200048689Y-87460603D02*
X200048689Y-87365365D01*
X200048689Y-87365365D02*
X200096308Y-87270127D01*
X200096308Y-87270127D02*
X200143927Y-87222508D01*
X200143927Y-87222508D02*
X200239165Y-87174889D01*
X200239165Y-87174889D02*
X200477260Y-87174889D01*
X200477260Y-87174889D02*
X200620117Y-87222508D01*
X201382022Y-87651079D02*
X201524879Y-87698698D01*
X201524879Y-87698698D02*
X201572498Y-87746317D01*
X201572498Y-87746317D02*
X201620117Y-87841555D01*
X201620117Y-87841555D02*
X201620117Y-87984412D01*
X201620117Y-87984412D02*
X201572498Y-88079650D01*
X201572498Y-88079650D02*
X201524879Y-88127270D01*
X201524879Y-88127270D02*
X201429641Y-88174889D01*
X201429641Y-88174889D02*
X201048689Y-88174889D01*
X201048689Y-88174889D02*
X201048689Y-87174889D01*
X201048689Y-87174889D02*
X201382022Y-87174889D01*
X201382022Y-87174889D02*
X201477260Y-87222508D01*
X201477260Y-87222508D02*
X201524879Y-87270127D01*
X201524879Y-87270127D02*
X201572498Y-87365365D01*
X201572498Y-87365365D02*
X201572498Y-87460603D01*
X201572498Y-87460603D02*
X201524879Y-87555841D01*
X201524879Y-87555841D02*
X201477260Y-87603460D01*
X201477260Y-87603460D02*
X201382022Y-87651079D01*
X201382022Y-87651079D02*
X201048689Y-87651079D01*
X201810594Y-88270127D02*
X202572498Y-88270127D01*
X203382022Y-88079650D02*
X203334403Y-88127270D01*
X203334403Y-88127270D02*
X203191546Y-88174889D01*
X203191546Y-88174889D02*
X203096308Y-88174889D01*
X203096308Y-88174889D02*
X202953451Y-88127270D01*
X202953451Y-88127270D02*
X202858213Y-88032031D01*
X202858213Y-88032031D02*
X202810594Y-87936793D01*
X202810594Y-87936793D02*
X202762975Y-87746317D01*
X202762975Y-87746317D02*
X202762975Y-87603460D01*
X202762975Y-87603460D02*
X202810594Y-87412984D01*
X202810594Y-87412984D02*
X202858213Y-87317746D01*
X202858213Y-87317746D02*
X202953451Y-87222508D01*
X202953451Y-87222508D02*
X203096308Y-87174889D01*
X203096308Y-87174889D02*
X203191546Y-87174889D01*
X203191546Y-87174889D02*
X203334403Y-87222508D01*
X203334403Y-87222508D02*
X203382022Y-87270127D01*
X203572499Y-88270127D02*
X204334403Y-88270127D01*
X205143927Y-88174889D02*
X204810594Y-87698698D01*
X204572499Y-88174889D02*
X204572499Y-87174889D01*
X204572499Y-87174889D02*
X204953451Y-87174889D01*
X204953451Y-87174889D02*
X205048689Y-87222508D01*
X205048689Y-87222508D02*
X205096308Y-87270127D01*
X205096308Y-87270127D02*
X205143927Y-87365365D01*
X205143927Y-87365365D02*
X205143927Y-87508222D01*
X205143927Y-87508222D02*
X205096308Y-87603460D01*
X205096308Y-87603460D02*
X205048689Y-87651079D01*
X205048689Y-87651079D02*
X204953451Y-87698698D01*
X204953451Y-87698698D02*
X204572499Y-87698698D01*
X205953451Y-88127270D02*
X205858213Y-88174889D01*
X205858213Y-88174889D02*
X205667737Y-88174889D01*
X205667737Y-88174889D02*
X205572499Y-88127270D01*
X205572499Y-88127270D02*
X205524880Y-88032031D01*
X205524880Y-88032031D02*
X205524880Y-87651079D01*
X205524880Y-87651079D02*
X205572499Y-87555841D01*
X205572499Y-87555841D02*
X205667737Y-87508222D01*
X205667737Y-87508222D02*
X205858213Y-87508222D01*
X205858213Y-87508222D02*
X205953451Y-87555841D01*
X205953451Y-87555841D02*
X206001070Y-87651079D01*
X206001070Y-87651079D02*
X206001070Y-87746317D01*
X206001070Y-87746317D02*
X205524880Y-87841555D01*
X206858213Y-88127270D02*
X206762975Y-88174889D01*
X206762975Y-88174889D02*
X206572499Y-88174889D01*
X206572499Y-88174889D02*
X206477261Y-88127270D01*
X206477261Y-88127270D02*
X206429642Y-88079650D01*
X206429642Y-88079650D02*
X206382023Y-87984412D01*
X206382023Y-87984412D02*
X206382023Y-87698698D01*
X206382023Y-87698698D02*
X206429642Y-87603460D01*
X206429642Y-87603460D02*
X206477261Y-87555841D01*
X206477261Y-87555841D02*
X206572499Y-87508222D01*
X206572499Y-87508222D02*
X206762975Y-87508222D01*
X206762975Y-87508222D02*
X206858213Y-87555841D01*
X207667737Y-88127270D02*
X207572499Y-88174889D01*
X207572499Y-88174889D02*
X207382023Y-88174889D01*
X207382023Y-88174889D02*
X207286785Y-88127270D01*
X207286785Y-88127270D02*
X207239166Y-88032031D01*
X207239166Y-88032031D02*
X207239166Y-87651079D01*
X207239166Y-87651079D02*
X207286785Y-87555841D01*
X207286785Y-87555841D02*
X207382023Y-87508222D01*
X207382023Y-87508222D02*
X207572499Y-87508222D01*
X207572499Y-87508222D02*
X207667737Y-87555841D01*
X207667737Y-87555841D02*
X207715356Y-87651079D01*
X207715356Y-87651079D02*
X207715356Y-87746317D01*
X207715356Y-87746317D02*
X207239166Y-87841555D01*
X208143928Y-87508222D02*
X208143928Y-88508222D01*
X208143928Y-87555841D02*
X208239166Y-87508222D01*
X208239166Y-87508222D02*
X208429642Y-87508222D01*
X208429642Y-87508222D02*
X208524880Y-87555841D01*
X208524880Y-87555841D02*
X208572499Y-87603460D01*
X208572499Y-87603460D02*
X208620118Y-87698698D01*
X208620118Y-87698698D02*
X208620118Y-87984412D01*
X208620118Y-87984412D02*
X208572499Y-88079650D01*
X208572499Y-88079650D02*
X208524880Y-88127270D01*
X208524880Y-88127270D02*
X208429642Y-88174889D01*
X208429642Y-88174889D02*
X208239166Y-88174889D01*
X208239166Y-88174889D02*
X208143928Y-88127270D01*
X208905833Y-87508222D02*
X209286785Y-87508222D01*
X209048690Y-87174889D02*
X209048690Y-88032031D01*
X209048690Y-88032031D02*
X209096309Y-88127270D01*
X209096309Y-88127270D02*
X209191547Y-88174889D01*
X209191547Y-88174889D02*
X209286785Y-88174889D01*
X210048690Y-88174889D02*
X210048690Y-87651079D01*
X210048690Y-87651079D02*
X210001071Y-87555841D01*
X210001071Y-87555841D02*
X209905833Y-87508222D01*
X209905833Y-87508222D02*
X209715357Y-87508222D01*
X209715357Y-87508222D02*
X209620119Y-87555841D01*
X210048690Y-88127270D02*
X209953452Y-88174889D01*
X209953452Y-88174889D02*
X209715357Y-88174889D01*
X209715357Y-88174889D02*
X209620119Y-88127270D01*
X209620119Y-88127270D02*
X209572500Y-88032031D01*
X209572500Y-88032031D02*
X209572500Y-87936793D01*
X209572500Y-87936793D02*
X209620119Y-87841555D01*
X209620119Y-87841555D02*
X209715357Y-87793936D01*
X209715357Y-87793936D02*
X209953452Y-87793936D01*
X209953452Y-87793936D02*
X210048690Y-87746317D01*
X210953452Y-88127270D02*
X210858214Y-88174889D01*
X210858214Y-88174889D02*
X210667738Y-88174889D01*
X210667738Y-88174889D02*
X210572500Y-88127270D01*
X210572500Y-88127270D02*
X210524881Y-88079650D01*
X210524881Y-88079650D02*
X210477262Y-87984412D01*
X210477262Y-87984412D02*
X210477262Y-87698698D01*
X210477262Y-87698698D02*
X210524881Y-87603460D01*
X210524881Y-87603460D02*
X210572500Y-87555841D01*
X210572500Y-87555841D02*
X210667738Y-87508222D01*
X210667738Y-87508222D02*
X210858214Y-87508222D01*
X210858214Y-87508222D02*
X210953452Y-87555841D01*
X211524881Y-88174889D02*
X211429643Y-88127270D01*
X211429643Y-88127270D02*
X211382024Y-88032031D01*
X211382024Y-88032031D02*
X211382024Y-87174889D01*
X212286786Y-88127270D02*
X212191548Y-88174889D01*
X212191548Y-88174889D02*
X212001072Y-88174889D01*
X212001072Y-88174889D02*
X211905834Y-88127270D01*
X211905834Y-88127270D02*
X211858215Y-88032031D01*
X211858215Y-88032031D02*
X211858215Y-87651079D01*
X211858215Y-87651079D02*
X211905834Y-87555841D01*
X211905834Y-87555841D02*
X212001072Y-87508222D01*
X212001072Y-87508222D02*
X212191548Y-87508222D01*
X212191548Y-87508222D02*
X212286786Y-87555841D01*
X212286786Y-87555841D02*
X212334405Y-87651079D01*
X212334405Y-87651079D02*
X212334405Y-87746317D01*
X212334405Y-87746317D02*
X211858215Y-87841555D01*
X212524882Y-88270127D02*
X213286786Y-88270127D01*
X213524882Y-87174889D02*
X213524882Y-87984412D01*
X213524882Y-87984412D02*
X213572501Y-88079650D01*
X213572501Y-88079650D02*
X213620120Y-88127270D01*
X213620120Y-88127270D02*
X213715358Y-88174889D01*
X213715358Y-88174889D02*
X213905834Y-88174889D01*
X213905834Y-88174889D02*
X214001072Y-88127270D01*
X214001072Y-88127270D02*
X214048691Y-88079650D01*
X214048691Y-88079650D02*
X214096310Y-87984412D01*
X214096310Y-87984412D02*
X214096310Y-87174889D01*
X214524882Y-88127270D02*
X214667739Y-88174889D01*
X214667739Y-88174889D02*
X214905834Y-88174889D01*
X214905834Y-88174889D02*
X215001072Y-88127270D01*
X215001072Y-88127270D02*
X215048691Y-88079650D01*
X215048691Y-88079650D02*
X215096310Y-87984412D01*
X215096310Y-87984412D02*
X215096310Y-87889174D01*
X215096310Y-87889174D02*
X215048691Y-87793936D01*
X215048691Y-87793936D02*
X215001072Y-87746317D01*
X215001072Y-87746317D02*
X214905834Y-87698698D01*
X214905834Y-87698698D02*
X214715358Y-87651079D01*
X214715358Y-87651079D02*
X214620120Y-87603460D01*
X214620120Y-87603460D02*
X214572501Y-87555841D01*
X214572501Y-87555841D02*
X214524882Y-87460603D01*
X214524882Y-87460603D02*
X214524882Y-87365365D01*
X214524882Y-87365365D02*
X214572501Y-87270127D01*
X214572501Y-87270127D02*
X214620120Y-87222508D01*
X214620120Y-87222508D02*
X214715358Y-87174889D01*
X214715358Y-87174889D02*
X214953453Y-87174889D01*
X214953453Y-87174889D02*
X215096310Y-87222508D01*
X215858215Y-87651079D02*
X216001072Y-87698698D01*
X216001072Y-87698698D02*
X216048691Y-87746317D01*
X216048691Y-87746317D02*
X216096310Y-87841555D01*
X216096310Y-87841555D02*
X216096310Y-87984412D01*
X216096310Y-87984412D02*
X216048691Y-88079650D01*
X216048691Y-88079650D02*
X216001072Y-88127270D01*
X216001072Y-88127270D02*
X215905834Y-88174889D01*
X215905834Y-88174889D02*
X215524882Y-88174889D01*
X215524882Y-88174889D02*
X215524882Y-87174889D01*
X215524882Y-87174889D02*
X215858215Y-87174889D01*
X215858215Y-87174889D02*
X215953453Y-87222508D01*
X215953453Y-87222508D02*
X216001072Y-87270127D01*
X216001072Y-87270127D02*
X216048691Y-87365365D01*
X216048691Y-87365365D02*
X216048691Y-87460603D01*
X216048691Y-87460603D02*
X216001072Y-87555841D01*
X216001072Y-87555841D02*
X215953453Y-87603460D01*
X215953453Y-87603460D02*
X215858215Y-87651079D01*
X215858215Y-87651079D02*
X215524882Y-87651079D01*
X216477263Y-87270127D02*
X216524882Y-87222508D01*
X216524882Y-87222508D02*
X216620120Y-87174889D01*
X216620120Y-87174889D02*
X216858215Y-87174889D01*
X216858215Y-87174889D02*
X216953453Y-87222508D01*
X216953453Y-87222508D02*
X217001072Y-87270127D01*
X217001072Y-87270127D02*
X217048691Y-87365365D01*
X217048691Y-87365365D02*
X217048691Y-87460603D01*
X217048691Y-87460603D02*
X217001072Y-87603460D01*
X217001072Y-87603460D02*
X216429644Y-88174889D01*
X216429644Y-88174889D02*
X217048691Y-88174889D01*
X217477263Y-88079650D02*
X217524882Y-88127270D01*
X217524882Y-88127270D02*
X217477263Y-88174889D01*
X217477263Y-88174889D02*
X217429644Y-88127270D01*
X217429644Y-88127270D02*
X217477263Y-88079650D01*
X217477263Y-88079650D02*
X217477263Y-88174889D01*
X218143929Y-87174889D02*
X218239167Y-87174889D01*
X218239167Y-87174889D02*
X218334405Y-87222508D01*
X218334405Y-87222508D02*
X218382024Y-87270127D01*
X218382024Y-87270127D02*
X218429643Y-87365365D01*
X218429643Y-87365365D02*
X218477262Y-87555841D01*
X218477262Y-87555841D02*
X218477262Y-87793936D01*
X218477262Y-87793936D02*
X218429643Y-87984412D01*
X218429643Y-87984412D02*
X218382024Y-88079650D01*
X218382024Y-88079650D02*
X218334405Y-88127270D01*
X218334405Y-88127270D02*
X218239167Y-88174889D01*
X218239167Y-88174889D02*
X218143929Y-88174889D01*
X218143929Y-88174889D02*
X218048691Y-88127270D01*
X218048691Y-88127270D02*
X218001072Y-88079650D01*
X218001072Y-88079650D02*
X217953453Y-87984412D01*
X217953453Y-87984412D02*
X217905834Y-87793936D01*
X217905834Y-87793936D02*
X217905834Y-87555841D01*
X217905834Y-87555841D02*
X217953453Y-87365365D01*
X217953453Y-87365365D02*
X218001072Y-87270127D01*
X218001072Y-87270127D02*
X218048691Y-87222508D01*
X218048691Y-87222508D02*
X218143929Y-87174889D01*
X218667739Y-88270127D02*
X219429643Y-88270127D01*
X220191548Y-88174889D02*
X219620120Y-88174889D01*
X219905834Y-88174889D02*
X219905834Y-87174889D01*
X219905834Y-87174889D02*
X219810596Y-87317746D01*
X219810596Y-87317746D02*
X219715358Y-87412984D01*
X219715358Y-87412984D02*
X219620120Y-87460603D01*
X221048691Y-87174889D02*
X220858215Y-87174889D01*
X220858215Y-87174889D02*
X220762977Y-87222508D01*
X220762977Y-87222508D02*
X220715358Y-87270127D01*
X220715358Y-87270127D02*
X220620120Y-87412984D01*
X220620120Y-87412984D02*
X220572501Y-87603460D01*
X220572501Y-87603460D02*
X220572501Y-87984412D01*
X220572501Y-87984412D02*
X220620120Y-88079650D01*
X220620120Y-88079650D02*
X220667739Y-88127270D01*
X220667739Y-88127270D02*
X220762977Y-88174889D01*
X220762977Y-88174889D02*
X220953453Y-88174889D01*
X220953453Y-88174889D02*
X221048691Y-88127270D01*
X221048691Y-88127270D02*
X221096310Y-88079650D01*
X221096310Y-88079650D02*
X221143929Y-87984412D01*
X221143929Y-87984412D02*
X221143929Y-87746317D01*
X221143929Y-87746317D02*
X221096310Y-87651079D01*
X221096310Y-87651079D02*
X221048691Y-87603460D01*
X221048691Y-87603460D02*
X220953453Y-87555841D01*
X220953453Y-87555841D02*
X220762977Y-87555841D01*
X220762977Y-87555841D02*
X220667739Y-87603460D01*
X220667739Y-87603460D02*
X220620120Y-87651079D01*
X220620120Y-87651079D02*
X220572501Y-87746317D01*
X221572501Y-88174889D02*
X221572501Y-87174889D01*
X221572501Y-87174889D02*
X221953453Y-87174889D01*
X221953453Y-87174889D02*
X222048691Y-87222508D01*
X222048691Y-87222508D02*
X222096310Y-87270127D01*
X222096310Y-87270127D02*
X222143929Y-87365365D01*
X222143929Y-87365365D02*
X222143929Y-87508222D01*
X222143929Y-87508222D02*
X222096310Y-87603460D01*
X222096310Y-87603460D02*
X222048691Y-87651079D01*
X222048691Y-87651079D02*
X221953453Y-87698698D01*
X221953453Y-87698698D02*
X221572501Y-87698698D01*
D12*
X167315817Y-94525427D02*
X166835817Y-94525427D01*
X166835817Y-94525427D02*
X166835817Y-94342570D01*
X166835817Y-94342570D02*
X166858674Y-94296855D01*
X166858674Y-94296855D02*
X166881531Y-94273998D01*
X166881531Y-94273998D02*
X166927245Y-94251141D01*
X166927245Y-94251141D02*
X166995817Y-94251141D01*
X166995817Y-94251141D02*
X167041531Y-94273998D01*
X167041531Y-94273998D02*
X167064388Y-94296855D01*
X167064388Y-94296855D02*
X167087245Y-94342570D01*
X167087245Y-94342570D02*
X167087245Y-94525427D01*
X167270102Y-93771141D02*
X167292960Y-93793998D01*
X167292960Y-93793998D02*
X167315817Y-93862570D01*
X167315817Y-93862570D02*
X167315817Y-93908284D01*
X167315817Y-93908284D02*
X167292960Y-93976855D01*
X167292960Y-93976855D02*
X167247245Y-94022570D01*
X167247245Y-94022570D02*
X167201531Y-94045427D01*
X167201531Y-94045427D02*
X167110102Y-94068284D01*
X167110102Y-94068284D02*
X167041531Y-94068284D01*
X167041531Y-94068284D02*
X166950102Y-94045427D01*
X166950102Y-94045427D02*
X166904388Y-94022570D01*
X166904388Y-94022570D02*
X166858674Y-93976855D01*
X166858674Y-93976855D02*
X166835817Y-93908284D01*
X166835817Y-93908284D02*
X166835817Y-93862570D01*
X166835817Y-93862570D02*
X166858674Y-93793998D01*
X166858674Y-93793998D02*
X166881531Y-93771141D01*
X167064388Y-93405427D02*
X167087245Y-93336855D01*
X167087245Y-93336855D02*
X167110102Y-93313998D01*
X167110102Y-93313998D02*
X167155817Y-93291141D01*
X167155817Y-93291141D02*
X167224388Y-93291141D01*
X167224388Y-93291141D02*
X167270102Y-93313998D01*
X167270102Y-93313998D02*
X167292960Y-93336855D01*
X167292960Y-93336855D02*
X167315817Y-93382570D01*
X167315817Y-93382570D02*
X167315817Y-93565427D01*
X167315817Y-93565427D02*
X166835817Y-93565427D01*
X166835817Y-93565427D02*
X166835817Y-93405427D01*
X166835817Y-93405427D02*
X166858674Y-93359713D01*
X166858674Y-93359713D02*
X166881531Y-93336855D01*
X166881531Y-93336855D02*
X166927245Y-93313998D01*
X166927245Y-93313998D02*
X166972960Y-93313998D01*
X166972960Y-93313998D02*
X167018674Y-93336855D01*
X167018674Y-93336855D02*
X167041531Y-93359713D01*
X167041531Y-93359713D02*
X167064388Y-93405427D01*
X167064388Y-93405427D02*
X167064388Y-93565427D01*
X167064388Y-92719713D02*
X167064388Y-92559713D01*
X167315817Y-92491141D02*
X167315817Y-92719713D01*
X167315817Y-92719713D02*
X166835817Y-92719713D01*
X166835817Y-92719713D02*
X166835817Y-92491141D01*
X167315817Y-92285427D02*
X166835817Y-92285427D01*
X166835817Y-92285427D02*
X166835817Y-92171141D01*
X166835817Y-92171141D02*
X166858674Y-92102570D01*
X166858674Y-92102570D02*
X166904388Y-92056855D01*
X166904388Y-92056855D02*
X166950102Y-92033998D01*
X166950102Y-92033998D02*
X167041531Y-92011141D01*
X167041531Y-92011141D02*
X167110102Y-92011141D01*
X167110102Y-92011141D02*
X167201531Y-92033998D01*
X167201531Y-92033998D02*
X167247245Y-92056855D01*
X167247245Y-92056855D02*
X167292960Y-92102570D01*
X167292960Y-92102570D02*
X167315817Y-92171141D01*
X167315817Y-92171141D02*
X167315817Y-92285427D01*
X166858674Y-91553998D02*
X166835817Y-91599713D01*
X166835817Y-91599713D02*
X166835817Y-91668284D01*
X166835817Y-91668284D02*
X166858674Y-91736855D01*
X166858674Y-91736855D02*
X166904388Y-91782570D01*
X166904388Y-91782570D02*
X166950102Y-91805427D01*
X166950102Y-91805427D02*
X167041531Y-91828284D01*
X167041531Y-91828284D02*
X167110102Y-91828284D01*
X167110102Y-91828284D02*
X167201531Y-91805427D01*
X167201531Y-91805427D02*
X167247245Y-91782570D01*
X167247245Y-91782570D02*
X167292960Y-91736855D01*
X167292960Y-91736855D02*
X167315817Y-91668284D01*
X167315817Y-91668284D02*
X167315817Y-91622570D01*
X167315817Y-91622570D02*
X167292960Y-91553998D01*
X167292960Y-91553998D02*
X167270102Y-91531141D01*
X167270102Y-91531141D02*
X167110102Y-91531141D01*
X167110102Y-91531141D02*
X167110102Y-91622570D01*
X167064388Y-91325427D02*
X167064388Y-91165427D01*
X167315817Y-91096855D02*
X167315817Y-91325427D01*
X167315817Y-91325427D02*
X166835817Y-91325427D01*
X166835817Y-91325427D02*
X166835817Y-91096855D01*
D10*
X182904761Y-87794819D02*
X182333333Y-87794819D01*
X182619047Y-87794819D02*
X182619047Y-86794819D01*
X182619047Y-86794819D02*
X182523809Y-86937676D01*
X182523809Y-86937676D02*
X182428571Y-87032914D01*
X182428571Y-87032914D02*
X182333333Y-87080533D01*
X183761904Y-87128152D02*
X183761904Y-87794819D01*
X183333333Y-87128152D02*
X183333333Y-87651961D01*
X183333333Y-87651961D02*
X183380952Y-87747200D01*
X183380952Y-87747200D02*
X183476190Y-87794819D01*
X183476190Y-87794819D02*
X183619047Y-87794819D01*
X183619047Y-87794819D02*
X183714285Y-87747200D01*
X183714285Y-87747200D02*
X183761904Y-87699580D01*
X184571428Y-87271009D02*
X184238095Y-87271009D01*
X184238095Y-87794819D02*
X184238095Y-86794819D01*
X184238095Y-86794819D02*
X184714285Y-86794819D01*
D11*
X183339285Y-88589765D02*
X183327381Y-88601670D01*
X183327381Y-88601670D02*
X183291666Y-88613574D01*
X183291666Y-88613574D02*
X183267857Y-88613574D01*
X183267857Y-88613574D02*
X183232143Y-88601670D01*
X183232143Y-88601670D02*
X183208333Y-88577860D01*
X183208333Y-88577860D02*
X183196428Y-88554050D01*
X183196428Y-88554050D02*
X183184524Y-88506431D01*
X183184524Y-88506431D02*
X183184524Y-88470717D01*
X183184524Y-88470717D02*
X183196428Y-88423098D01*
X183196428Y-88423098D02*
X183208333Y-88399289D01*
X183208333Y-88399289D02*
X183232143Y-88375479D01*
X183232143Y-88375479D02*
X183267857Y-88363574D01*
X183267857Y-88363574D02*
X183291666Y-88363574D01*
X183291666Y-88363574D02*
X183327381Y-88375479D01*
X183327381Y-88375479D02*
X183339285Y-88387384D01*
X183577381Y-88613574D02*
X183434524Y-88613574D01*
X183505952Y-88613574D02*
X183505952Y-88363574D01*
X183505952Y-88363574D02*
X183482143Y-88399289D01*
X183482143Y-88399289D02*
X183458333Y-88423098D01*
X183458333Y-88423098D02*
X183434524Y-88435003D01*
X183732142Y-88363574D02*
X183755952Y-88363574D01*
X183755952Y-88363574D02*
X183779761Y-88375479D01*
X183779761Y-88375479D02*
X183791666Y-88387384D01*
X183791666Y-88387384D02*
X183803571Y-88411193D01*
X183803571Y-88411193D02*
X183815476Y-88458812D01*
X183815476Y-88458812D02*
X183815476Y-88518336D01*
X183815476Y-88518336D02*
X183803571Y-88565955D01*
X183803571Y-88565955D02*
X183791666Y-88589765D01*
X183791666Y-88589765D02*
X183779761Y-88601670D01*
X183779761Y-88601670D02*
X183755952Y-88613574D01*
X183755952Y-88613574D02*
X183732142Y-88613574D01*
X183732142Y-88613574D02*
X183708333Y-88601670D01*
X183708333Y-88601670D02*
X183696428Y-88589765D01*
X183696428Y-88589765D02*
X183684523Y-88565955D01*
X183684523Y-88565955D02*
X183672619Y-88518336D01*
X183672619Y-88518336D02*
X183672619Y-88458812D01*
X183672619Y-88458812D02*
X183684523Y-88411193D01*
X183684523Y-88411193D02*
X183696428Y-88387384D01*
X183696428Y-88387384D02*
X183708333Y-88375479D01*
X183708333Y-88375479D02*
X183732142Y-88363574D01*
D10*
X211807200Y-97688633D02*
X211854819Y-97545776D01*
X211854819Y-97545776D02*
X211854819Y-97307681D01*
X211854819Y-97307681D02*
X211807200Y-97212443D01*
X211807200Y-97212443D02*
X211759580Y-97164824D01*
X211759580Y-97164824D02*
X211664342Y-97117205D01*
X211664342Y-97117205D02*
X211569104Y-97117205D01*
X211569104Y-97117205D02*
X211473866Y-97164824D01*
X211473866Y-97164824D02*
X211426247Y-97212443D01*
X211426247Y-97212443D02*
X211378628Y-97307681D01*
X211378628Y-97307681D02*
X211331009Y-97498157D01*
X211331009Y-97498157D02*
X211283390Y-97593395D01*
X211283390Y-97593395D02*
X211235771Y-97641014D01*
X211235771Y-97641014D02*
X211140533Y-97688633D01*
X211140533Y-97688633D02*
X211045295Y-97688633D01*
X211045295Y-97688633D02*
X210950057Y-97641014D01*
X210950057Y-97641014D02*
X210902438Y-97593395D01*
X210902438Y-97593395D02*
X210854819Y-97498157D01*
X210854819Y-97498157D02*
X210854819Y-97260062D01*
X210854819Y-97260062D02*
X210902438Y-97117205D01*
X211854819Y-96688633D02*
X210854819Y-96688633D01*
X210854819Y-96688633D02*
X211854819Y-96117205D01*
X211854819Y-96117205D02*
X210854819Y-96117205D01*
X210854819Y-95736252D02*
X210854819Y-95069586D01*
X210854819Y-95069586D02*
X211854819Y-95498157D01*
X211188152Y-94260062D02*
X211854819Y-94260062D01*
X210807200Y-94498157D02*
X211521485Y-94736252D01*
X211521485Y-94736252D02*
X211521485Y-94117205D01*
X211569104Y-93783871D02*
X211569104Y-93307681D01*
X211854819Y-93879109D02*
X210854819Y-93545776D01*
X210854819Y-93545776D02*
X211854819Y-93212443D01*
X211854819Y-92879109D02*
X210854819Y-92879109D01*
X211331009Y-92879109D02*
X211331009Y-92307681D01*
X211854819Y-92307681D02*
X210854819Y-92307681D01*
X211759580Y-91260062D02*
X211807200Y-91307681D01*
X211807200Y-91307681D02*
X211854819Y-91450538D01*
X211854819Y-91450538D02*
X211854819Y-91545776D01*
X211854819Y-91545776D02*
X211807200Y-91688633D01*
X211807200Y-91688633D02*
X211711961Y-91783871D01*
X211711961Y-91783871D02*
X211616723Y-91831490D01*
X211616723Y-91831490D02*
X211426247Y-91879109D01*
X211426247Y-91879109D02*
X211283390Y-91879109D01*
X211283390Y-91879109D02*
X211092914Y-91831490D01*
X211092914Y-91831490D02*
X210997676Y-91783871D01*
X210997676Y-91783871D02*
X210902438Y-91688633D01*
X210902438Y-91688633D02*
X210854819Y-91545776D01*
X210854819Y-91545776D02*
X210854819Y-91450538D01*
X210854819Y-91450538D02*
X210902438Y-91307681D01*
X210902438Y-91307681D02*
X210950057Y-91260062D01*
X210854819Y-90974347D02*
X210854819Y-90402919D01*
X211854819Y-90688633D02*
X210854819Y-90688633D01*
X210950057Y-90117204D02*
X210902438Y-90069585D01*
X210902438Y-90069585D02*
X210854819Y-89974347D01*
X210854819Y-89974347D02*
X210854819Y-89736252D01*
X210854819Y-89736252D02*
X210902438Y-89641014D01*
X210902438Y-89641014D02*
X210950057Y-89593395D01*
X210950057Y-89593395D02*
X211045295Y-89545776D01*
X211045295Y-89545776D02*
X211140533Y-89545776D01*
X211140533Y-89545776D02*
X211283390Y-89593395D01*
X211283390Y-89593395D02*
X211854819Y-90164823D01*
X211854819Y-90164823D02*
X211854819Y-89545776D01*
X211188152Y-88688633D02*
X211854819Y-88688633D01*
X210807200Y-88926728D02*
X211521485Y-89164823D01*
X211521485Y-89164823D02*
X211521485Y-88545776D01*
X210854819Y-87688633D02*
X210854819Y-88164823D01*
X210854819Y-88164823D02*
X211331009Y-88212442D01*
X211331009Y-88212442D02*
X211283390Y-88164823D01*
X211283390Y-88164823D02*
X211235771Y-88069585D01*
X211235771Y-88069585D02*
X211235771Y-87831490D01*
X211235771Y-87831490D02*
X211283390Y-87736252D01*
X211283390Y-87736252D02*
X211331009Y-87688633D01*
X211331009Y-87688633D02*
X211426247Y-87641014D01*
X211426247Y-87641014D02*
X211664342Y-87641014D01*
X211664342Y-87641014D02*
X211759580Y-87688633D01*
X211759580Y-87688633D02*
X211807200Y-87736252D01*
X211807200Y-87736252D02*
X211854819Y-87831490D01*
X211854819Y-87831490D02*
X211854819Y-88069585D01*
X211854819Y-88069585D02*
X211807200Y-88164823D01*
X211807200Y-88164823D02*
X211759580Y-88212442D01*
X211854819Y-87212442D02*
X210854819Y-87212442D01*
X210854819Y-87212442D02*
X210854819Y-86831490D01*
X210854819Y-86831490D02*
X210902438Y-86736252D01*
X210902438Y-86736252D02*
X210950057Y-86688633D01*
X210950057Y-86688633D02*
X211045295Y-86641014D01*
X211045295Y-86641014D02*
X211188152Y-86641014D01*
X211188152Y-86641014D02*
X211283390Y-86688633D01*
X211283390Y-86688633D02*
X211331009Y-86736252D01*
X211331009Y-86736252D02*
X211378628Y-86831490D01*
X211378628Y-86831490D02*
X211378628Y-87212442D01*
X210854819Y-86307680D02*
X211854819Y-86069585D01*
X211854819Y-86069585D02*
X211140533Y-85879109D01*
X211140533Y-85879109D02*
X211854819Y-85688633D01*
X211854819Y-85688633D02*
X210854819Y-85450538D01*
X211854819Y-84498157D02*
X211378628Y-84831490D01*
X211854819Y-85069585D02*
X210854819Y-85069585D01*
X210854819Y-85069585D02*
X210854819Y-84688633D01*
X210854819Y-84688633D02*
X210902438Y-84593395D01*
X210902438Y-84593395D02*
X210950057Y-84545776D01*
X210950057Y-84545776D02*
X211045295Y-84498157D01*
X211045295Y-84498157D02*
X211188152Y-84498157D01*
X211188152Y-84498157D02*
X211283390Y-84545776D01*
X211283390Y-84545776D02*
X211331009Y-84593395D01*
X211331009Y-84593395D02*
X211378628Y-84688633D01*
X211378628Y-84688633D02*
X211378628Y-85069585D01*
X184073435Y-101581356D02*
X184121054Y-101438499D01*
X184121054Y-101438499D02*
X184121054Y-101200404D01*
X184121054Y-101200404D02*
X184073435Y-101105166D01*
X184073435Y-101105166D02*
X184025815Y-101057547D01*
X184025815Y-101057547D02*
X183930577Y-101009928D01*
X183930577Y-101009928D02*
X183835339Y-101009928D01*
X183835339Y-101009928D02*
X183740101Y-101057547D01*
X183740101Y-101057547D02*
X183692482Y-101105166D01*
X183692482Y-101105166D02*
X183644863Y-101200404D01*
X183644863Y-101200404D02*
X183597244Y-101390880D01*
X183597244Y-101390880D02*
X183549625Y-101486118D01*
X183549625Y-101486118D02*
X183502006Y-101533737D01*
X183502006Y-101533737D02*
X183406768Y-101581356D01*
X183406768Y-101581356D02*
X183311530Y-101581356D01*
X183311530Y-101581356D02*
X183216292Y-101533737D01*
X183216292Y-101533737D02*
X183168673Y-101486118D01*
X183168673Y-101486118D02*
X183121054Y-101390880D01*
X183121054Y-101390880D02*
X183121054Y-101152785D01*
X183121054Y-101152785D02*
X183168673Y-101009928D01*
X183121054Y-100676594D02*
X184121054Y-100438499D01*
X184121054Y-100438499D02*
X183406768Y-100248023D01*
X183406768Y-100248023D02*
X184121054Y-100057547D01*
X184121054Y-100057547D02*
X183121054Y-99819452D01*
X184216292Y-99676595D02*
X184216292Y-98914690D01*
X184121054Y-98676594D02*
X183121054Y-98676594D01*
X183121054Y-98676594D02*
X183121054Y-98295642D01*
X183121054Y-98295642D02*
X183168673Y-98200404D01*
X183168673Y-98200404D02*
X183216292Y-98152785D01*
X183216292Y-98152785D02*
X183311530Y-98105166D01*
X183311530Y-98105166D02*
X183454387Y-98105166D01*
X183454387Y-98105166D02*
X183549625Y-98152785D01*
X183549625Y-98152785D02*
X183597244Y-98200404D01*
X183597244Y-98200404D02*
X183644863Y-98295642D01*
X183644863Y-98295642D02*
X183644863Y-98676594D01*
X183454387Y-97248023D02*
X184121054Y-97248023D01*
X183454387Y-97676594D02*
X183978196Y-97676594D01*
X183978196Y-97676594D02*
X184073435Y-97628975D01*
X184073435Y-97628975D02*
X184121054Y-97533737D01*
X184121054Y-97533737D02*
X184121054Y-97390880D01*
X184121054Y-97390880D02*
X184073435Y-97295642D01*
X184073435Y-97295642D02*
X184025815Y-97248023D01*
X184073435Y-96819451D02*
X184121054Y-96724213D01*
X184121054Y-96724213D02*
X184121054Y-96533737D01*
X184121054Y-96533737D02*
X184073435Y-96438499D01*
X184073435Y-96438499D02*
X183978196Y-96390880D01*
X183978196Y-96390880D02*
X183930577Y-96390880D01*
X183930577Y-96390880D02*
X183835339Y-96438499D01*
X183835339Y-96438499D02*
X183787720Y-96533737D01*
X183787720Y-96533737D02*
X183787720Y-96676594D01*
X183787720Y-96676594D02*
X183740101Y-96771832D01*
X183740101Y-96771832D02*
X183644863Y-96819451D01*
X183644863Y-96819451D02*
X183597244Y-96819451D01*
X183597244Y-96819451D02*
X183502006Y-96771832D01*
X183502006Y-96771832D02*
X183454387Y-96676594D01*
X183454387Y-96676594D02*
X183454387Y-96533737D01*
X183454387Y-96533737D02*
X183502006Y-96438499D01*
X184121054Y-95962308D02*
X183121054Y-95962308D01*
X184121054Y-95533737D02*
X183597244Y-95533737D01*
X183597244Y-95533737D02*
X183502006Y-95581356D01*
X183502006Y-95581356D02*
X183454387Y-95676594D01*
X183454387Y-95676594D02*
X183454387Y-95819451D01*
X183454387Y-95819451D02*
X183502006Y-95914689D01*
X183502006Y-95914689D02*
X183549625Y-95962308D01*
X193751905Y-91060496D02*
X194418571Y-92060496D01*
X194418571Y-91060496D02*
X193751905Y-92060496D01*
X195370952Y-91965257D02*
X195323333Y-92012877D01*
X195323333Y-92012877D02*
X195180476Y-92060496D01*
X195180476Y-92060496D02*
X195085238Y-92060496D01*
X195085238Y-92060496D02*
X194942381Y-92012877D01*
X194942381Y-92012877D02*
X194847143Y-91917638D01*
X194847143Y-91917638D02*
X194799524Y-91822400D01*
X194799524Y-91822400D02*
X194751905Y-91631924D01*
X194751905Y-91631924D02*
X194751905Y-91489067D01*
X194751905Y-91489067D02*
X194799524Y-91298591D01*
X194799524Y-91298591D02*
X194847143Y-91203353D01*
X194847143Y-91203353D02*
X194942381Y-91108115D01*
X194942381Y-91108115D02*
X195085238Y-91060496D01*
X195085238Y-91060496D02*
X195180476Y-91060496D01*
X195180476Y-91060496D02*
X195323333Y-91108115D01*
X195323333Y-91108115D02*
X195370952Y-91155734D01*
X196228095Y-91060496D02*
X196037619Y-91060496D01*
X196037619Y-91060496D02*
X195942381Y-91108115D01*
X195942381Y-91108115D02*
X195894762Y-91155734D01*
X195894762Y-91155734D02*
X195799524Y-91298591D01*
X195799524Y-91298591D02*
X195751905Y-91489067D01*
X195751905Y-91489067D02*
X195751905Y-91870019D01*
X195751905Y-91870019D02*
X195799524Y-91965257D01*
X195799524Y-91965257D02*
X195847143Y-92012877D01*
X195847143Y-92012877D02*
X195942381Y-92060496D01*
X195942381Y-92060496D02*
X196132857Y-92060496D01*
X196132857Y-92060496D02*
X196228095Y-92012877D01*
X196228095Y-92012877D02*
X196275714Y-91965257D01*
X196275714Y-91965257D02*
X196323333Y-91870019D01*
X196323333Y-91870019D02*
X196323333Y-91631924D01*
X196323333Y-91631924D02*
X196275714Y-91536686D01*
X196275714Y-91536686D02*
X196228095Y-91489067D01*
X196228095Y-91489067D02*
X196132857Y-91441448D01*
X196132857Y-91441448D02*
X195942381Y-91441448D01*
X195942381Y-91441448D02*
X195847143Y-91489067D01*
X195847143Y-91489067D02*
X195799524Y-91536686D01*
X195799524Y-91536686D02*
X195751905Y-91631924D01*
X196704286Y-91155734D02*
X196751905Y-91108115D01*
X196751905Y-91108115D02*
X196847143Y-91060496D01*
X196847143Y-91060496D02*
X197085238Y-91060496D01*
X197085238Y-91060496D02*
X197180476Y-91108115D01*
X197180476Y-91108115D02*
X197228095Y-91155734D01*
X197228095Y-91155734D02*
X197275714Y-91250972D01*
X197275714Y-91250972D02*
X197275714Y-91346210D01*
X197275714Y-91346210D02*
X197228095Y-91489067D01*
X197228095Y-91489067D02*
X196656667Y-92060496D01*
X196656667Y-92060496D02*
X197275714Y-92060496D01*
X197894762Y-91060496D02*
X197990000Y-91060496D01*
X197990000Y-91060496D02*
X198085238Y-91108115D01*
X198085238Y-91108115D02*
X198132857Y-91155734D01*
X198132857Y-91155734D02*
X198180476Y-91250972D01*
X198180476Y-91250972D02*
X198228095Y-91441448D01*
X198228095Y-91441448D02*
X198228095Y-91679543D01*
X198228095Y-91679543D02*
X198180476Y-91870019D01*
X198180476Y-91870019D02*
X198132857Y-91965257D01*
X198132857Y-91965257D02*
X198085238Y-92012877D01*
X198085238Y-92012877D02*
X197990000Y-92060496D01*
X197990000Y-92060496D02*
X197894762Y-92060496D01*
X197894762Y-92060496D02*
X197799524Y-92012877D01*
X197799524Y-92012877D02*
X197751905Y-91965257D01*
X197751905Y-91965257D02*
X197704286Y-91870019D01*
X197704286Y-91870019D02*
X197656667Y-91679543D01*
X197656667Y-91679543D02*
X197656667Y-91441448D01*
X197656667Y-91441448D02*
X197704286Y-91250972D01*
X197704286Y-91250972D02*
X197751905Y-91155734D01*
X197751905Y-91155734D02*
X197799524Y-91108115D01*
X197799524Y-91108115D02*
X197894762Y-91060496D01*
X199085238Y-91060496D02*
X198894762Y-91060496D01*
X198894762Y-91060496D02*
X198799524Y-91108115D01*
X198799524Y-91108115D02*
X198751905Y-91155734D01*
X198751905Y-91155734D02*
X198656667Y-91298591D01*
X198656667Y-91298591D02*
X198609048Y-91489067D01*
X198609048Y-91489067D02*
X198609048Y-91870019D01*
X198609048Y-91870019D02*
X198656667Y-91965257D01*
X198656667Y-91965257D02*
X198704286Y-92012877D01*
X198704286Y-92012877D02*
X198799524Y-92060496D01*
X198799524Y-92060496D02*
X198990000Y-92060496D01*
X198990000Y-92060496D02*
X199085238Y-92012877D01*
X199085238Y-92012877D02*
X199132857Y-91965257D01*
X199132857Y-91965257D02*
X199180476Y-91870019D01*
X199180476Y-91870019D02*
X199180476Y-91631924D01*
X199180476Y-91631924D02*
X199132857Y-91536686D01*
X199132857Y-91536686D02*
X199085238Y-91489067D01*
X199085238Y-91489067D02*
X198990000Y-91441448D01*
X198990000Y-91441448D02*
X198799524Y-91441448D01*
X198799524Y-91441448D02*
X198704286Y-91489067D01*
X198704286Y-91489067D02*
X198656667Y-91536686D01*
X198656667Y-91536686D02*
X198609048Y-91631924D01*
X199609048Y-92060496D02*
X199609048Y-91060496D01*
X199609048Y-91060496D02*
X199990000Y-91060496D01*
X199990000Y-91060496D02*
X200085238Y-91108115D01*
X200085238Y-91108115D02*
X200132857Y-91155734D01*
X200132857Y-91155734D02*
X200180476Y-91250972D01*
X200180476Y-91250972D02*
X200180476Y-91393829D01*
X200180476Y-91393829D02*
X200132857Y-91489067D01*
X200132857Y-91489067D02*
X200085238Y-91536686D01*
X200085238Y-91536686D02*
X199990000Y-91584305D01*
X199990000Y-91584305D02*
X199609048Y-91584305D01*
X200513810Y-91060496D02*
X201132857Y-91060496D01*
X201132857Y-91060496D02*
X200799524Y-91441448D01*
X200799524Y-91441448D02*
X200942381Y-91441448D01*
X200942381Y-91441448D02*
X201037619Y-91489067D01*
X201037619Y-91489067D02*
X201085238Y-91536686D01*
X201085238Y-91536686D02*
X201132857Y-91631924D01*
X201132857Y-91631924D02*
X201132857Y-91870019D01*
X201132857Y-91870019D02*
X201085238Y-91965257D01*
X201085238Y-91965257D02*
X201037619Y-92012877D01*
X201037619Y-92012877D02*
X200942381Y-92060496D01*
X200942381Y-92060496D02*
X200656667Y-92060496D01*
X200656667Y-92060496D02*
X200561429Y-92012877D01*
X200561429Y-92012877D02*
X200513810Y-91965257D01*
X201466191Y-91060496D02*
X202085238Y-91060496D01*
X202085238Y-91060496D02*
X201751905Y-91441448D01*
X201751905Y-91441448D02*
X201894762Y-91441448D01*
X201894762Y-91441448D02*
X201990000Y-91489067D01*
X201990000Y-91489067D02*
X202037619Y-91536686D01*
X202037619Y-91536686D02*
X202085238Y-91631924D01*
X202085238Y-91631924D02*
X202085238Y-91870019D01*
X202085238Y-91870019D02*
X202037619Y-91965257D01*
X202037619Y-91965257D02*
X201990000Y-92012877D01*
X201990000Y-92012877D02*
X201894762Y-92060496D01*
X201894762Y-92060496D02*
X201609048Y-92060496D01*
X201609048Y-92060496D02*
X201513810Y-92012877D01*
X201513810Y-92012877D02*
X201466191Y-91965257D01*
X202466191Y-91155734D02*
X202513810Y-91108115D01*
X202513810Y-91108115D02*
X202609048Y-91060496D01*
X202609048Y-91060496D02*
X202847143Y-91060496D01*
X202847143Y-91060496D02*
X202942381Y-91108115D01*
X202942381Y-91108115D02*
X202990000Y-91155734D01*
X202990000Y-91155734D02*
X203037619Y-91250972D01*
X203037619Y-91250972D02*
X203037619Y-91346210D01*
X203037619Y-91346210D02*
X202990000Y-91489067D01*
X202990000Y-91489067D02*
X202418572Y-92060496D01*
X202418572Y-92060496D02*
X203037619Y-92060496D01*
X203466191Y-92060496D02*
X203466191Y-91060496D01*
X203466191Y-91060496D02*
X203799524Y-91774781D01*
X203799524Y-91774781D02*
X204132857Y-91060496D01*
X204132857Y-91060496D02*
X204132857Y-92060496D01*
X205180476Y-92060496D02*
X204847143Y-91584305D01*
X204609048Y-92060496D02*
X204609048Y-91060496D01*
X204609048Y-91060496D02*
X204990000Y-91060496D01*
X204990000Y-91060496D02*
X205085238Y-91108115D01*
X205085238Y-91108115D02*
X205132857Y-91155734D01*
X205132857Y-91155734D02*
X205180476Y-91250972D01*
X205180476Y-91250972D02*
X205180476Y-91393829D01*
X205180476Y-91393829D02*
X205132857Y-91489067D01*
X205132857Y-91489067D02*
X205085238Y-91536686D01*
X205085238Y-91536686D02*
X204990000Y-91584305D01*
X204990000Y-91584305D02*
X204609048Y-91584305D01*
D13*
X182256190Y-90991115D02*
X182256190Y-91250162D01*
X182256190Y-91250162D02*
X182271428Y-91280638D01*
X182271428Y-91280638D02*
X182286666Y-91295877D01*
X182286666Y-91295877D02*
X182317142Y-91311115D01*
X182317142Y-91311115D02*
X182378095Y-91311115D01*
X182378095Y-91311115D02*
X182408571Y-91295877D01*
X182408571Y-91295877D02*
X182423809Y-91280638D01*
X182423809Y-91280638D02*
X182439047Y-91250162D01*
X182439047Y-91250162D02*
X182439047Y-90991115D01*
X182560952Y-90991115D02*
X182759047Y-90991115D01*
X182759047Y-90991115D02*
X182652380Y-91113019D01*
X182652380Y-91113019D02*
X182698095Y-91113019D01*
X182698095Y-91113019D02*
X182728571Y-91128257D01*
X182728571Y-91128257D02*
X182743809Y-91143496D01*
X182743809Y-91143496D02*
X182759047Y-91173972D01*
X182759047Y-91173972D02*
X182759047Y-91250162D01*
X182759047Y-91250162D02*
X182743809Y-91280638D01*
X182743809Y-91280638D02*
X182728571Y-91295877D01*
X182728571Y-91295877D02*
X182698095Y-91311115D01*
X182698095Y-91311115D02*
X182606666Y-91311115D01*
X182606666Y-91311115D02*
X182576190Y-91295877D01*
X182576190Y-91295877D02*
X182560952Y-91280638D01*
D10*
X184278790Y-93012353D02*
X184326409Y-92869496D01*
X184326409Y-92869496D02*
X184326409Y-92631401D01*
X184326409Y-92631401D02*
X184278790Y-92536163D01*
X184278790Y-92536163D02*
X184231170Y-92488544D01*
X184231170Y-92488544D02*
X184135932Y-92440925D01*
X184135932Y-92440925D02*
X184040694Y-92440925D01*
X184040694Y-92440925D02*
X183945456Y-92488544D01*
X183945456Y-92488544D02*
X183897837Y-92536163D01*
X183897837Y-92536163D02*
X183850218Y-92631401D01*
X183850218Y-92631401D02*
X183802599Y-92821877D01*
X183802599Y-92821877D02*
X183754980Y-92917115D01*
X183754980Y-92917115D02*
X183707361Y-92964734D01*
X183707361Y-92964734D02*
X183612123Y-93012353D01*
X183612123Y-93012353D02*
X183516885Y-93012353D01*
X183516885Y-93012353D02*
X183421647Y-92964734D01*
X183421647Y-92964734D02*
X183374028Y-92917115D01*
X183374028Y-92917115D02*
X183326409Y-92821877D01*
X183326409Y-92821877D02*
X183326409Y-92583782D01*
X183326409Y-92583782D02*
X183374028Y-92440925D01*
X183945456Y-92012353D02*
X183945456Y-91250449D01*
X184326409Y-90298068D02*
X184326409Y-90774258D01*
X184326409Y-90774258D02*
X183326409Y-90774258D01*
X184326409Y-89964734D02*
X183326409Y-89964734D01*
X183326409Y-89964734D02*
X184040694Y-89631401D01*
X184040694Y-89631401D02*
X183326409Y-89298068D01*
X183326409Y-89298068D02*
X184326409Y-89298068D01*
X183802599Y-88488544D02*
X183850218Y-88345687D01*
X183850218Y-88345687D02*
X183897837Y-88298068D01*
X183897837Y-88298068D02*
X183993075Y-88250449D01*
X183993075Y-88250449D02*
X184135932Y-88250449D01*
X184135932Y-88250449D02*
X184231170Y-88298068D01*
X184231170Y-88298068D02*
X184278790Y-88345687D01*
X184278790Y-88345687D02*
X184326409Y-88440925D01*
X184326409Y-88440925D02*
X184326409Y-88821877D01*
X184326409Y-88821877D02*
X183326409Y-88821877D01*
X183326409Y-88821877D02*
X183326409Y-88488544D01*
X183326409Y-88488544D02*
X183374028Y-88393306D01*
X183374028Y-88393306D02*
X183421647Y-88345687D01*
X183421647Y-88345687D02*
X183516885Y-88298068D01*
X183516885Y-88298068D02*
X183612123Y-88298068D01*
X183612123Y-88298068D02*
X183707361Y-88345687D01*
X183707361Y-88345687D02*
X183754980Y-88393306D01*
X183754980Y-88393306D02*
X183802599Y-88488544D01*
X183802599Y-88488544D02*
X183802599Y-88821877D01*
X184326409Y-87250449D02*
X183850218Y-87583782D01*
X184326409Y-87821877D02*
X183326409Y-87821877D01*
X183326409Y-87821877D02*
X183326409Y-87440925D01*
X183326409Y-87440925D02*
X183374028Y-87345687D01*
X183374028Y-87345687D02*
X183421647Y-87298068D01*
X183421647Y-87298068D02*
X183516885Y-87250449D01*
X183516885Y-87250449D02*
X183659742Y-87250449D01*
X183659742Y-87250449D02*
X183754980Y-87298068D01*
X183754980Y-87298068D02*
X183802599Y-87345687D01*
X183802599Y-87345687D02*
X183850218Y-87440925D01*
X183850218Y-87440925D02*
X183850218Y-87821877D01*
X183326409Y-86917115D02*
X183326409Y-86298068D01*
X183326409Y-86298068D02*
X183707361Y-86631401D01*
X183707361Y-86631401D02*
X183707361Y-86488544D01*
X183707361Y-86488544D02*
X183754980Y-86393306D01*
X183754980Y-86393306D02*
X183802599Y-86345687D01*
X183802599Y-86345687D02*
X183897837Y-86298068D01*
X183897837Y-86298068D02*
X184135932Y-86298068D01*
X184135932Y-86298068D02*
X184231170Y-86345687D01*
X184231170Y-86345687D02*
X184278790Y-86393306D01*
X184278790Y-86393306D02*
X184326409Y-86488544D01*
X184326409Y-86488544D02*
X184326409Y-86774258D01*
X184326409Y-86774258D02*
X184278790Y-86869496D01*
X184278790Y-86869496D02*
X184231170Y-86917115D01*
X183659742Y-85440925D02*
X184326409Y-85440925D01*
X183278790Y-85679020D02*
X183993075Y-85917115D01*
X183993075Y-85917115D02*
X183993075Y-85298068D01*
X183326409Y-84726639D02*
X183326409Y-84631401D01*
X183326409Y-84631401D02*
X183374028Y-84536163D01*
X183374028Y-84536163D02*
X183421647Y-84488544D01*
X183421647Y-84488544D02*
X183516885Y-84440925D01*
X183516885Y-84440925D02*
X183707361Y-84393306D01*
X183707361Y-84393306D02*
X183945456Y-84393306D01*
X183945456Y-84393306D02*
X184135932Y-84440925D01*
X184135932Y-84440925D02*
X184231170Y-84488544D01*
X184231170Y-84488544D02*
X184278790Y-84536163D01*
X184278790Y-84536163D02*
X184326409Y-84631401D01*
X184326409Y-84631401D02*
X184326409Y-84726639D01*
X184326409Y-84726639D02*
X184278790Y-84821877D01*
X184278790Y-84821877D02*
X184231170Y-84869496D01*
X184231170Y-84869496D02*
X184135932Y-84917115D01*
X184135932Y-84917115D02*
X183945456Y-84964734D01*
X183945456Y-84964734D02*
X183707361Y-84964734D01*
X183707361Y-84964734D02*
X183516885Y-84917115D01*
X183516885Y-84917115D02*
X183421647Y-84869496D01*
X183421647Y-84869496D02*
X183374028Y-84821877D01*
X183374028Y-84821877D02*
X183326409Y-84726639D01*
X183802599Y-83631401D02*
X183802599Y-83964734D01*
X184326409Y-83964734D02*
X183326409Y-83964734D01*
X183326409Y-83964734D02*
X183326409Y-83488544D01*
X183326409Y-83250448D02*
X183326409Y-82679020D01*
X184326409Y-82964734D02*
X183326409Y-82964734D01*
X184326409Y-81821877D02*
X184326409Y-82393305D01*
X184326409Y-82107591D02*
X183326409Y-82107591D01*
X183326409Y-82107591D02*
X183469266Y-82202829D01*
X183469266Y-82202829D02*
X183564504Y-82298067D01*
X183564504Y-82298067D02*
X183612123Y-82393305D01*
X183374028Y-80869496D02*
X183326409Y-80964734D01*
X183326409Y-80964734D02*
X183326409Y-81107591D01*
X183326409Y-81107591D02*
X183374028Y-81250448D01*
X183374028Y-81250448D02*
X183469266Y-81345686D01*
X183469266Y-81345686D02*
X183564504Y-81393305D01*
X183564504Y-81393305D02*
X183754980Y-81440924D01*
X183754980Y-81440924D02*
X183897837Y-81440924D01*
X183897837Y-81440924D02*
X184088313Y-81393305D01*
X184088313Y-81393305D02*
X184183551Y-81345686D01*
X184183551Y-81345686D02*
X184278790Y-81250448D01*
X184278790Y-81250448D02*
X184326409Y-81107591D01*
X184326409Y-81107591D02*
X184326409Y-81012353D01*
X184326409Y-81012353D02*
X184278790Y-80869496D01*
X184278790Y-80869496D02*
X184231170Y-80821877D01*
X184231170Y-80821877D02*
X183897837Y-80821877D01*
X183897837Y-80821877D02*
X183897837Y-81012353D01*
X178341409Y-91528210D02*
X177341409Y-91528210D01*
X177341409Y-91528210D02*
X177341409Y-91290115D01*
X177341409Y-91290115D02*
X177389028Y-91147258D01*
X177389028Y-91147258D02*
X177484266Y-91052020D01*
X177484266Y-91052020D02*
X177579504Y-91004401D01*
X177579504Y-91004401D02*
X177769980Y-90956782D01*
X177769980Y-90956782D02*
X177912837Y-90956782D01*
X177912837Y-90956782D02*
X178103313Y-91004401D01*
X178103313Y-91004401D02*
X178198551Y-91052020D01*
X178198551Y-91052020D02*
X178293790Y-91147258D01*
X178293790Y-91147258D02*
X178341409Y-91290115D01*
X178341409Y-91290115D02*
X178341409Y-91528210D01*
X178341409Y-90004401D02*
X178341409Y-90575829D01*
X178341409Y-90290115D02*
X177341409Y-90290115D01*
X177341409Y-90290115D02*
X177484266Y-90385353D01*
X177484266Y-90385353D02*
X177579504Y-90480591D01*
X177579504Y-90480591D02*
X177627123Y-90575829D01*
X216080728Y-104202076D02*
X216414061Y-104202076D01*
X216556918Y-104725886D02*
X216080728Y-104725886D01*
X216080728Y-104725886D02*
X216080728Y-103725886D01*
X216080728Y-103725886D02*
X216556918Y-103725886D01*
X216937871Y-104678267D02*
X217080728Y-104725886D01*
X217080728Y-104725886D02*
X217318823Y-104725886D01*
X217318823Y-104725886D02*
X217414061Y-104678267D01*
X217414061Y-104678267D02*
X217461680Y-104630647D01*
X217461680Y-104630647D02*
X217509299Y-104535409D01*
X217509299Y-104535409D02*
X217509299Y-104440171D01*
X217509299Y-104440171D02*
X217461680Y-104344933D01*
X217461680Y-104344933D02*
X217414061Y-104297314D01*
X217414061Y-104297314D02*
X217318823Y-104249695D01*
X217318823Y-104249695D02*
X217128347Y-104202076D01*
X217128347Y-104202076D02*
X217033109Y-104154457D01*
X217033109Y-104154457D02*
X216985490Y-104106838D01*
X216985490Y-104106838D02*
X216937871Y-104011600D01*
X216937871Y-104011600D02*
X216937871Y-103916362D01*
X216937871Y-103916362D02*
X216985490Y-103821124D01*
X216985490Y-103821124D02*
X217033109Y-103773505D01*
X217033109Y-103773505D02*
X217128347Y-103725886D01*
X217128347Y-103725886D02*
X217366442Y-103725886D01*
X217366442Y-103725886D02*
X217509299Y-103773505D01*
X217937871Y-104725886D02*
X217937871Y-103725886D01*
X217937871Y-103725886D02*
X218318823Y-103725886D01*
X218318823Y-103725886D02*
X218414061Y-103773505D01*
X218414061Y-103773505D02*
X218461680Y-103821124D01*
X218461680Y-103821124D02*
X218509299Y-103916362D01*
X218509299Y-103916362D02*
X218509299Y-104059219D01*
X218509299Y-104059219D02*
X218461680Y-104154457D01*
X218461680Y-104154457D02*
X218414061Y-104202076D01*
X218414061Y-104202076D02*
X218318823Y-104249695D01*
X218318823Y-104249695D02*
X217937871Y-104249695D01*
X218842633Y-103725886D02*
X219461680Y-103725886D01*
X219461680Y-103725886D02*
X219128347Y-104106838D01*
X219128347Y-104106838D02*
X219271204Y-104106838D01*
X219271204Y-104106838D02*
X219366442Y-104154457D01*
X219366442Y-104154457D02*
X219414061Y-104202076D01*
X219414061Y-104202076D02*
X219461680Y-104297314D01*
X219461680Y-104297314D02*
X219461680Y-104535409D01*
X219461680Y-104535409D02*
X219414061Y-104630647D01*
X219414061Y-104630647D02*
X219366442Y-104678267D01*
X219366442Y-104678267D02*
X219271204Y-104725886D01*
X219271204Y-104725886D02*
X218985490Y-104725886D01*
X218985490Y-104725886D02*
X218890252Y-104678267D01*
X218890252Y-104678267D02*
X218842633Y-104630647D01*
X219842633Y-103821124D02*
X219890252Y-103773505D01*
X219890252Y-103773505D02*
X219985490Y-103725886D01*
X219985490Y-103725886D02*
X220223585Y-103725886D01*
X220223585Y-103725886D02*
X220318823Y-103773505D01*
X220318823Y-103773505D02*
X220366442Y-103821124D01*
X220366442Y-103821124D02*
X220414061Y-103916362D01*
X220414061Y-103916362D02*
X220414061Y-104011600D01*
X220414061Y-104011600D02*
X220366442Y-104154457D01*
X220366442Y-104154457D02*
X219795014Y-104725886D01*
X219795014Y-104725886D02*
X220414061Y-104725886D01*
X220842633Y-104344933D02*
X221604538Y-104344933D01*
X222033109Y-104678267D02*
X222175966Y-104725886D01*
X222175966Y-104725886D02*
X222414061Y-104725886D01*
X222414061Y-104725886D02*
X222509299Y-104678267D01*
X222509299Y-104678267D02*
X222556918Y-104630647D01*
X222556918Y-104630647D02*
X222604537Y-104535409D01*
X222604537Y-104535409D02*
X222604537Y-104440171D01*
X222604537Y-104440171D02*
X222556918Y-104344933D01*
X222556918Y-104344933D02*
X222509299Y-104297314D01*
X222509299Y-104297314D02*
X222414061Y-104249695D01*
X222414061Y-104249695D02*
X222223585Y-104202076D01*
X222223585Y-104202076D02*
X222128347Y-104154457D01*
X222128347Y-104154457D02*
X222080728Y-104106838D01*
X222080728Y-104106838D02*
X222033109Y-104011600D01*
X222033109Y-104011600D02*
X222033109Y-103916362D01*
X222033109Y-103916362D02*
X222080728Y-103821124D01*
X222080728Y-103821124D02*
X222128347Y-103773505D01*
X222128347Y-103773505D02*
X222223585Y-103725886D01*
X222223585Y-103725886D02*
X222461680Y-103725886D01*
X222461680Y-103725886D02*
X222604537Y-103773505D01*
X222985490Y-103821124D02*
X223033109Y-103773505D01*
X223033109Y-103773505D02*
X223128347Y-103725886D01*
X223128347Y-103725886D02*
X223366442Y-103725886D01*
X223366442Y-103725886D02*
X223461680Y-103773505D01*
X223461680Y-103773505D02*
X223509299Y-103821124D01*
X223509299Y-103821124D02*
X223556918Y-103916362D01*
X223556918Y-103916362D02*
X223556918Y-104011600D01*
X223556918Y-104011600D02*
X223509299Y-104154457D01*
X223509299Y-104154457D02*
X222937871Y-104725886D01*
X222937871Y-104725886D02*
X223556918Y-104725886D01*
X223985490Y-104344933D02*
X224747395Y-104344933D01*
X225223585Y-104725886D02*
X225223585Y-103725886D01*
X225223585Y-103725886D02*
X225556918Y-104440171D01*
X225556918Y-104440171D02*
X225890251Y-103725886D01*
X225890251Y-103725886D02*
X225890251Y-104725886D01*
X226366442Y-104725886D02*
X226366442Y-103725886D01*
X226842632Y-104725886D02*
X226842632Y-103725886D01*
X226842632Y-103725886D02*
X227414060Y-104725886D01*
X227414060Y-104725886D02*
X227414060Y-103725886D01*
X227890251Y-104725886D02*
X227890251Y-103725886D01*
X228366441Y-104344933D02*
X229128346Y-104344933D01*
X229556917Y-103821124D02*
X229604536Y-103773505D01*
X229604536Y-103773505D02*
X229699774Y-103725886D01*
X229699774Y-103725886D02*
X229937869Y-103725886D01*
X229937869Y-103725886D02*
X230033107Y-103773505D01*
X230033107Y-103773505D02*
X230080726Y-103821124D01*
X230080726Y-103821124D02*
X230128345Y-103916362D01*
X230128345Y-103916362D02*
X230128345Y-104011600D01*
X230128345Y-104011600D02*
X230080726Y-104154457D01*
X230080726Y-104154457D02*
X229509298Y-104725886D01*
X229509298Y-104725886D02*
X230128345Y-104725886D01*
X177210363Y-93832241D02*
X177210363Y-93737003D01*
X177210363Y-93737003D02*
X177257982Y-93641765D01*
X177257982Y-93641765D02*
X177305601Y-93594146D01*
X177305601Y-93594146D02*
X177400839Y-93546527D01*
X177400839Y-93546527D02*
X177591315Y-93498908D01*
X177591315Y-93498908D02*
X177829410Y-93498908D01*
X177829410Y-93498908D02*
X178019886Y-93546527D01*
X178019886Y-93546527D02*
X178115124Y-93594146D01*
X178115124Y-93594146D02*
X178162744Y-93641765D01*
X178162744Y-93641765D02*
X178210363Y-93737003D01*
X178210363Y-93737003D02*
X178210363Y-93832241D01*
X178210363Y-93832241D02*
X178162744Y-93927479D01*
X178162744Y-93927479D02*
X178115124Y-93975098D01*
X178115124Y-93975098D02*
X178019886Y-94022717D01*
X178019886Y-94022717D02*
X177829410Y-94070336D01*
X177829410Y-94070336D02*
X177591315Y-94070336D01*
X177591315Y-94070336D02*
X177400839Y-94022717D01*
X177400839Y-94022717D02*
X177305601Y-93975098D01*
X177305601Y-93975098D02*
X177257982Y-93927479D01*
X177257982Y-93927479D02*
X177210363Y-93832241D01*
X178115124Y-93070336D02*
X178162744Y-93022717D01*
X178162744Y-93022717D02*
X178210363Y-93070336D01*
X178210363Y-93070336D02*
X178162744Y-93117955D01*
X178162744Y-93117955D02*
X178115124Y-93070336D01*
X178115124Y-93070336D02*
X178210363Y-93070336D01*
X178210363Y-92070337D02*
X178210363Y-92641765D01*
X178210363Y-92356051D02*
X177210363Y-92356051D01*
X177210363Y-92356051D02*
X177353220Y-92451289D01*
X177353220Y-92451289D02*
X177448458Y-92546527D01*
X177448458Y-92546527D02*
X177496077Y-92641765D01*
X177543696Y-91213194D02*
X178210363Y-91213194D01*
X177543696Y-91641765D02*
X178067505Y-91641765D01*
X178067505Y-91641765D02*
X178162744Y-91594146D01*
X178162744Y-91594146D02*
X178210363Y-91498908D01*
X178210363Y-91498908D02*
X178210363Y-91356051D01*
X178210363Y-91356051D02*
X178162744Y-91260813D01*
X178162744Y-91260813D02*
X178115124Y-91213194D01*
X177686553Y-90403670D02*
X177686553Y-90737003D01*
X178210363Y-90737003D02*
X177210363Y-90737003D01*
X177210363Y-90737003D02*
X177210363Y-90260813D01*
D11*
X179005309Y-92231051D02*
X179017214Y-92242955D01*
X179017214Y-92242955D02*
X179029118Y-92278670D01*
X179029118Y-92278670D02*
X179029118Y-92302479D01*
X179029118Y-92302479D02*
X179017214Y-92338193D01*
X179017214Y-92338193D02*
X178993404Y-92362003D01*
X178993404Y-92362003D02*
X178969594Y-92373908D01*
X178969594Y-92373908D02*
X178921975Y-92385812D01*
X178921975Y-92385812D02*
X178886261Y-92385812D01*
X178886261Y-92385812D02*
X178838642Y-92373908D01*
X178838642Y-92373908D02*
X178814833Y-92362003D01*
X178814833Y-92362003D02*
X178791023Y-92338193D01*
X178791023Y-92338193D02*
X178779118Y-92302479D01*
X178779118Y-92302479D02*
X178779118Y-92278670D01*
X178779118Y-92278670D02*
X178791023Y-92242955D01*
X178791023Y-92242955D02*
X178802928Y-92231051D01*
X178779118Y-92147717D02*
X178779118Y-91992955D01*
X178779118Y-91992955D02*
X178874356Y-92076289D01*
X178874356Y-92076289D02*
X178874356Y-92040574D01*
X178874356Y-92040574D02*
X178886261Y-92016765D01*
X178886261Y-92016765D02*
X178898166Y-92004860D01*
X178898166Y-92004860D02*
X178921975Y-91992955D01*
X178921975Y-91992955D02*
X178981499Y-91992955D01*
X178981499Y-91992955D02*
X179005309Y-92004860D01*
X179005309Y-92004860D02*
X179017214Y-92016765D01*
X179017214Y-92016765D02*
X179029118Y-92040574D01*
X179029118Y-92040574D02*
X179029118Y-92112003D01*
X179029118Y-92112003D02*
X179017214Y-92135812D01*
X179017214Y-92135812D02*
X179005309Y-92147717D01*
D10*
X189623383Y-101341050D02*
X189671002Y-101198193D01*
X189671002Y-101198193D02*
X189671002Y-100960098D01*
X189671002Y-100960098D02*
X189623383Y-100864860D01*
X189623383Y-100864860D02*
X189575763Y-100817241D01*
X189575763Y-100817241D02*
X189480525Y-100769622D01*
X189480525Y-100769622D02*
X189385287Y-100769622D01*
X189385287Y-100769622D02*
X189290049Y-100817241D01*
X189290049Y-100817241D02*
X189242430Y-100864860D01*
X189242430Y-100864860D02*
X189194811Y-100960098D01*
X189194811Y-100960098D02*
X189147192Y-101150574D01*
X189147192Y-101150574D02*
X189099573Y-101245812D01*
X189099573Y-101245812D02*
X189051954Y-101293431D01*
X189051954Y-101293431D02*
X188956716Y-101341050D01*
X188956716Y-101341050D02*
X188861478Y-101341050D01*
X188861478Y-101341050D02*
X188766240Y-101293431D01*
X188766240Y-101293431D02*
X188718621Y-101245812D01*
X188718621Y-101245812D02*
X188671002Y-101150574D01*
X188671002Y-101150574D02*
X188671002Y-100912479D01*
X188671002Y-100912479D02*
X188718621Y-100769622D01*
X189623383Y-99912479D02*
X189671002Y-100007717D01*
X189671002Y-100007717D02*
X189671002Y-100198193D01*
X189671002Y-100198193D02*
X189623383Y-100293431D01*
X189623383Y-100293431D02*
X189575763Y-100341050D01*
X189575763Y-100341050D02*
X189480525Y-100388669D01*
X189480525Y-100388669D02*
X189194811Y-100388669D01*
X189194811Y-100388669D02*
X189099573Y-100341050D01*
X189099573Y-100341050D02*
X189051954Y-100293431D01*
X189051954Y-100293431D02*
X189004335Y-100198193D01*
X189004335Y-100198193D02*
X189004335Y-100007717D01*
X189004335Y-100007717D02*
X189051954Y-99912479D01*
X189671002Y-99483907D02*
X189004335Y-99483907D01*
X189194811Y-99483907D02*
X189099573Y-99436288D01*
X189099573Y-99436288D02*
X189051954Y-99388669D01*
X189051954Y-99388669D02*
X189004335Y-99293431D01*
X189004335Y-99293431D02*
X189004335Y-99198193D01*
X189623383Y-98483907D02*
X189671002Y-98579145D01*
X189671002Y-98579145D02*
X189671002Y-98769621D01*
X189671002Y-98769621D02*
X189623383Y-98864859D01*
X189623383Y-98864859D02*
X189528144Y-98912478D01*
X189528144Y-98912478D02*
X189147192Y-98912478D01*
X189147192Y-98912478D02*
X189051954Y-98864859D01*
X189051954Y-98864859D02*
X189004335Y-98769621D01*
X189004335Y-98769621D02*
X189004335Y-98579145D01*
X189004335Y-98579145D02*
X189051954Y-98483907D01*
X189051954Y-98483907D02*
X189147192Y-98436288D01*
X189147192Y-98436288D02*
X189242430Y-98436288D01*
X189242430Y-98436288D02*
X189337668Y-98912478D01*
X189004335Y-98102954D02*
X189671002Y-97912478D01*
X189671002Y-97912478D02*
X189194811Y-97722002D01*
X189194811Y-97722002D02*
X189671002Y-97531526D01*
X189671002Y-97531526D02*
X189004335Y-97341050D01*
X189766240Y-97198193D02*
X189766240Y-96436288D01*
X188671002Y-96341049D02*
X188671002Y-95769621D01*
X189671002Y-96055335D02*
X188671002Y-96055335D01*
X189623383Y-95055335D02*
X189671002Y-95150573D01*
X189671002Y-95150573D02*
X189671002Y-95341049D01*
X189671002Y-95341049D02*
X189623383Y-95436287D01*
X189623383Y-95436287D02*
X189528144Y-95483906D01*
X189528144Y-95483906D02*
X189147192Y-95483906D01*
X189147192Y-95483906D02*
X189051954Y-95436287D01*
X189051954Y-95436287D02*
X189004335Y-95341049D01*
X189004335Y-95341049D02*
X189004335Y-95150573D01*
X189004335Y-95150573D02*
X189051954Y-95055335D01*
X189051954Y-95055335D02*
X189147192Y-95007716D01*
X189147192Y-95007716D02*
X189242430Y-95007716D01*
X189242430Y-95007716D02*
X189337668Y-95483906D01*
X189671002Y-94579144D02*
X189004335Y-94579144D01*
X189194811Y-94579144D02*
X189099573Y-94531525D01*
X189099573Y-94531525D02*
X189051954Y-94483906D01*
X189051954Y-94483906D02*
X189004335Y-94388668D01*
X189004335Y-94388668D02*
X189004335Y-94293430D01*
X189671002Y-93960096D02*
X189004335Y-93960096D01*
X189099573Y-93960096D02*
X189051954Y-93912477D01*
X189051954Y-93912477D02*
X189004335Y-93817239D01*
X189004335Y-93817239D02*
X189004335Y-93674382D01*
X189004335Y-93674382D02*
X189051954Y-93579144D01*
X189051954Y-93579144D02*
X189147192Y-93531525D01*
X189147192Y-93531525D02*
X189671002Y-93531525D01*
X189147192Y-93531525D02*
X189051954Y-93483906D01*
X189051954Y-93483906D02*
X189004335Y-93388668D01*
X189004335Y-93388668D02*
X189004335Y-93245811D01*
X189004335Y-93245811D02*
X189051954Y-93150572D01*
X189051954Y-93150572D02*
X189147192Y-93102953D01*
X189147192Y-93102953D02*
X189671002Y-93102953D01*
X189671002Y-92626763D02*
X189004335Y-92626763D01*
X188671002Y-92626763D02*
X188718621Y-92674382D01*
X188718621Y-92674382D02*
X188766240Y-92626763D01*
X188766240Y-92626763D02*
X188718621Y-92579144D01*
X188718621Y-92579144D02*
X188671002Y-92626763D01*
X188671002Y-92626763D02*
X188766240Y-92626763D01*
X189004335Y-92150573D02*
X189671002Y-92150573D01*
X189099573Y-92150573D02*
X189051954Y-92102954D01*
X189051954Y-92102954D02*
X189004335Y-92007716D01*
X189004335Y-92007716D02*
X189004335Y-91864859D01*
X189004335Y-91864859D02*
X189051954Y-91769621D01*
X189051954Y-91769621D02*
X189147192Y-91722002D01*
X189147192Y-91722002D02*
X189671002Y-91722002D01*
X189671002Y-90817240D02*
X189147192Y-90817240D01*
X189147192Y-90817240D02*
X189051954Y-90864859D01*
X189051954Y-90864859D02*
X189004335Y-90960097D01*
X189004335Y-90960097D02*
X189004335Y-91150573D01*
X189004335Y-91150573D02*
X189051954Y-91245811D01*
X189623383Y-90817240D02*
X189671002Y-90912478D01*
X189671002Y-90912478D02*
X189671002Y-91150573D01*
X189671002Y-91150573D02*
X189623383Y-91245811D01*
X189623383Y-91245811D02*
X189528144Y-91293430D01*
X189528144Y-91293430D02*
X189432906Y-91293430D01*
X189432906Y-91293430D02*
X189337668Y-91245811D01*
X189337668Y-91245811D02*
X189290049Y-91150573D01*
X189290049Y-91150573D02*
X189290049Y-90912478D01*
X189290049Y-90912478D02*
X189242430Y-90817240D01*
X189671002Y-90198192D02*
X189623383Y-90293430D01*
X189623383Y-90293430D02*
X189528144Y-90341049D01*
X189528144Y-90341049D02*
X188671002Y-90341049D01*
X189766240Y-90055335D02*
X189766240Y-89293430D01*
X188671002Y-88864858D02*
X188671002Y-88769620D01*
X188671002Y-88769620D02*
X188718621Y-88674382D01*
X188718621Y-88674382D02*
X188766240Y-88626763D01*
X188766240Y-88626763D02*
X188861478Y-88579144D01*
X188861478Y-88579144D02*
X189051954Y-88531525D01*
X189051954Y-88531525D02*
X189290049Y-88531525D01*
X189290049Y-88531525D02*
X189480525Y-88579144D01*
X189480525Y-88579144D02*
X189575763Y-88626763D01*
X189575763Y-88626763D02*
X189623383Y-88674382D01*
X189623383Y-88674382D02*
X189671002Y-88769620D01*
X189671002Y-88769620D02*
X189671002Y-88864858D01*
X189671002Y-88864858D02*
X189623383Y-88960096D01*
X189623383Y-88960096D02*
X189575763Y-89007715D01*
X189575763Y-89007715D02*
X189480525Y-89055334D01*
X189480525Y-89055334D02*
X189290049Y-89102953D01*
X189290049Y-89102953D02*
X189051954Y-89102953D01*
X189051954Y-89102953D02*
X188861478Y-89055334D01*
X188861478Y-89055334D02*
X188766240Y-89007715D01*
X188766240Y-89007715D02*
X188718621Y-88960096D01*
X188718621Y-88960096D02*
X188671002Y-88864858D01*
X189671002Y-87579144D02*
X189671002Y-88150572D01*
X189671002Y-87864858D02*
X188671002Y-87864858D01*
X188671002Y-87864858D02*
X188813859Y-87960096D01*
X188813859Y-87960096D02*
X188909097Y-88055334D01*
X188909097Y-88055334D02*
X188956716Y-88150572D01*
X189671002Y-87245810D02*
X189004335Y-86722001D01*
X189004335Y-87245810D02*
X189671002Y-86722001D01*
X188671002Y-86150572D02*
X188671002Y-86055334D01*
X188671002Y-86055334D02*
X188718621Y-85960096D01*
X188718621Y-85960096D02*
X188766240Y-85912477D01*
X188766240Y-85912477D02*
X188861478Y-85864858D01*
X188861478Y-85864858D02*
X189051954Y-85817239D01*
X189051954Y-85817239D02*
X189290049Y-85817239D01*
X189290049Y-85817239D02*
X189480525Y-85864858D01*
X189480525Y-85864858D02*
X189575763Y-85912477D01*
X189575763Y-85912477D02*
X189623383Y-85960096D01*
X189623383Y-85960096D02*
X189671002Y-86055334D01*
X189671002Y-86055334D02*
X189671002Y-86150572D01*
X189671002Y-86150572D02*
X189623383Y-86245810D01*
X189623383Y-86245810D02*
X189575763Y-86293429D01*
X189575763Y-86293429D02*
X189480525Y-86341048D01*
X189480525Y-86341048D02*
X189290049Y-86388667D01*
X189290049Y-86388667D02*
X189051954Y-86388667D01*
X189051954Y-86388667D02*
X188861478Y-86341048D01*
X188861478Y-86341048D02*
X188766240Y-86293429D01*
X188766240Y-86293429D02*
X188718621Y-86245810D01*
X188718621Y-86245810D02*
X188671002Y-86150572D01*
X188766240Y-85436286D02*
X188718621Y-85388667D01*
X188718621Y-85388667D02*
X188671002Y-85293429D01*
X188671002Y-85293429D02*
X188671002Y-85055334D01*
X188671002Y-85055334D02*
X188718621Y-84960096D01*
X188718621Y-84960096D02*
X188766240Y-84912477D01*
X188766240Y-84912477D02*
X188861478Y-84864858D01*
X188861478Y-84864858D02*
X188956716Y-84864858D01*
X188956716Y-84864858D02*
X189099573Y-84912477D01*
X189099573Y-84912477D02*
X189671002Y-85483905D01*
X189671002Y-85483905D02*
X189671002Y-84864858D01*
X190171002Y-93436288D02*
X190885287Y-93436288D01*
X190885287Y-93436288D02*
X191028144Y-93483907D01*
X191028144Y-93483907D02*
X191123383Y-93579145D01*
X191123383Y-93579145D02*
X191171002Y-93722002D01*
X191171002Y-93722002D02*
X191171002Y-93817240D01*
X190266240Y-93007716D02*
X190218621Y-92960097D01*
X190218621Y-92960097D02*
X190171002Y-92864859D01*
X190171002Y-92864859D02*
X190171002Y-92626764D01*
X190171002Y-92626764D02*
X190218621Y-92531526D01*
X190218621Y-92531526D02*
X190266240Y-92483907D01*
X190266240Y-92483907D02*
X190361478Y-92436288D01*
X190361478Y-92436288D02*
X190456716Y-92436288D01*
X190456716Y-92436288D02*
X190599573Y-92483907D01*
X190599573Y-92483907D02*
X191171002Y-93055335D01*
X191171002Y-93055335D02*
X191171002Y-92436288D01*
X180573097Y-93830984D02*
X180573097Y-93735746D01*
X180573097Y-93735746D02*
X180620716Y-93640508D01*
X180620716Y-93640508D02*
X180668335Y-93592889D01*
X180668335Y-93592889D02*
X180763573Y-93545270D01*
X180763573Y-93545270D02*
X180954049Y-93497651D01*
X180954049Y-93497651D02*
X181192144Y-93497651D01*
X181192144Y-93497651D02*
X181382620Y-93545270D01*
X181382620Y-93545270D02*
X181477858Y-93592889D01*
X181477858Y-93592889D02*
X181525478Y-93640508D01*
X181525478Y-93640508D02*
X181573097Y-93735746D01*
X181573097Y-93735746D02*
X181573097Y-93830984D01*
X181573097Y-93830984D02*
X181525478Y-93926222D01*
X181525478Y-93926222D02*
X181477858Y-93973841D01*
X181477858Y-93973841D02*
X181382620Y-94021460D01*
X181382620Y-94021460D02*
X181192144Y-94069079D01*
X181192144Y-94069079D02*
X180954049Y-94069079D01*
X180954049Y-94069079D02*
X180763573Y-94021460D01*
X180763573Y-94021460D02*
X180668335Y-93973841D01*
X180668335Y-93973841D02*
X180620716Y-93926222D01*
X180620716Y-93926222D02*
X180573097Y-93830984D01*
X181477858Y-93069079D02*
X181525478Y-93021460D01*
X181525478Y-93021460D02*
X181573097Y-93069079D01*
X181573097Y-93069079D02*
X181525478Y-93116698D01*
X181525478Y-93116698D02*
X181477858Y-93069079D01*
X181477858Y-93069079D02*
X181573097Y-93069079D01*
X181573097Y-92069080D02*
X181573097Y-92640508D01*
X181573097Y-92354794D02*
X180573097Y-92354794D01*
X180573097Y-92354794D02*
X180715954Y-92450032D01*
X180715954Y-92450032D02*
X180811192Y-92545270D01*
X180811192Y-92545270D02*
X180858811Y-92640508D01*
X180906430Y-91211937D02*
X181573097Y-91211937D01*
X180906430Y-91640508D02*
X181430239Y-91640508D01*
X181430239Y-91640508D02*
X181525478Y-91592889D01*
X181525478Y-91592889D02*
X181573097Y-91497651D01*
X181573097Y-91497651D02*
X181573097Y-91354794D01*
X181573097Y-91354794D02*
X181525478Y-91259556D01*
X181525478Y-91259556D02*
X181477858Y-91211937D01*
X181049287Y-90402413D02*
X181049287Y-90735746D01*
X181573097Y-90735746D02*
X180573097Y-90735746D01*
X180573097Y-90735746D02*
X180573097Y-90259556D01*
D11*
X180048043Y-92229794D02*
X180059948Y-92241698D01*
X180059948Y-92241698D02*
X180071852Y-92277413D01*
X180071852Y-92277413D02*
X180071852Y-92301222D01*
X180071852Y-92301222D02*
X180059948Y-92336936D01*
X180059948Y-92336936D02*
X180036138Y-92360746D01*
X180036138Y-92360746D02*
X180012328Y-92372651D01*
X180012328Y-92372651D02*
X179964709Y-92384555D01*
X179964709Y-92384555D02*
X179928995Y-92384555D01*
X179928995Y-92384555D02*
X179881376Y-92372651D01*
X179881376Y-92372651D02*
X179857567Y-92360746D01*
X179857567Y-92360746D02*
X179833757Y-92336936D01*
X179833757Y-92336936D02*
X179821852Y-92301222D01*
X179821852Y-92301222D02*
X179821852Y-92277413D01*
X179821852Y-92277413D02*
X179833757Y-92241698D01*
X179833757Y-92241698D02*
X179845662Y-92229794D01*
X179821852Y-92015508D02*
X179821852Y-92063127D01*
X179821852Y-92063127D02*
X179833757Y-92086936D01*
X179833757Y-92086936D02*
X179845662Y-92098841D01*
X179845662Y-92098841D02*
X179881376Y-92122651D01*
X179881376Y-92122651D02*
X179928995Y-92134555D01*
X179928995Y-92134555D02*
X180024233Y-92134555D01*
X180024233Y-92134555D02*
X180048043Y-92122651D01*
X180048043Y-92122651D02*
X180059948Y-92110746D01*
X180059948Y-92110746D02*
X180071852Y-92086936D01*
X180071852Y-92086936D02*
X180071852Y-92039317D01*
X180071852Y-92039317D02*
X180059948Y-92015508D01*
X180059948Y-92015508D02*
X180048043Y-92003603D01*
X180048043Y-92003603D02*
X180024233Y-91991698D01*
X180024233Y-91991698D02*
X179964709Y-91991698D01*
X179964709Y-91991698D02*
X179940900Y-92003603D01*
X179940900Y-92003603D02*
X179928995Y-92015508D01*
X179928995Y-92015508D02*
X179917090Y-92039317D01*
X179917090Y-92039317D02*
X179917090Y-92086936D01*
X179917090Y-92086936D02*
X179928995Y-92110746D01*
X179928995Y-92110746D02*
X179940900Y-92122651D01*
X179940900Y-92122651D02*
X179964709Y-92134555D01*
D10*
X178409432Y-90966190D02*
X178409432Y-91442380D01*
X178409432Y-91442380D02*
X178885622Y-91489999D01*
X178885622Y-91489999D02*
X178838003Y-91442380D01*
X178838003Y-91442380D02*
X178790384Y-91347142D01*
X178790384Y-91347142D02*
X178790384Y-91109047D01*
X178790384Y-91109047D02*
X178838003Y-91013809D01*
X178838003Y-91013809D02*
X178885622Y-90966190D01*
X178885622Y-90966190D02*
X178980860Y-90918571D01*
X178980860Y-90918571D02*
X179218955Y-90918571D01*
X179218955Y-90918571D02*
X179314193Y-90966190D01*
X179314193Y-90966190D02*
X179361813Y-91013809D01*
X179361813Y-91013809D02*
X179409432Y-91109047D01*
X179409432Y-91109047D02*
X179409432Y-91347142D01*
X179409432Y-91347142D02*
X179361813Y-91442380D01*
X179361813Y-91442380D02*
X179314193Y-91489999D01*
X179314193Y-90489999D02*
X179361813Y-90442380D01*
X179361813Y-90442380D02*
X179409432Y-90489999D01*
X179409432Y-90489999D02*
X179361813Y-90537618D01*
X179361813Y-90537618D02*
X179314193Y-90489999D01*
X179314193Y-90489999D02*
X179409432Y-90489999D01*
X179409432Y-89490000D02*
X179409432Y-90061428D01*
X179409432Y-89775714D02*
X178409432Y-89775714D01*
X178409432Y-89775714D02*
X178552289Y-89870952D01*
X178552289Y-89870952D02*
X178647527Y-89966190D01*
X178647527Y-89966190D02*
X178695146Y-90061428D01*
X179409432Y-89061428D02*
X178409432Y-89061428D01*
X179409432Y-88490000D02*
X178838003Y-88918571D01*
X178409432Y-88490000D02*
X178980860Y-89061428D01*
D11*
X177902813Y-90033332D02*
X177779004Y-90119999D01*
X177902813Y-90181904D02*
X177642813Y-90181904D01*
X177642813Y-90181904D02*
X177642813Y-90082856D01*
X177642813Y-90082856D02*
X177655194Y-90058094D01*
X177655194Y-90058094D02*
X177667575Y-90045713D01*
X177667575Y-90045713D02*
X177692337Y-90033332D01*
X177692337Y-90033332D02*
X177729480Y-90033332D01*
X177729480Y-90033332D02*
X177754242Y-90045713D01*
X177754242Y-90045713D02*
X177766623Y-90058094D01*
X177766623Y-90058094D02*
X177779004Y-90082856D01*
X177779004Y-90082856D02*
X177779004Y-90181904D01*
X177667575Y-89934285D02*
X177655194Y-89921904D01*
X177655194Y-89921904D02*
X177642813Y-89897142D01*
X177642813Y-89897142D02*
X177642813Y-89835237D01*
X177642813Y-89835237D02*
X177655194Y-89810475D01*
X177655194Y-89810475D02*
X177667575Y-89798094D01*
X177667575Y-89798094D02*
X177692337Y-89785713D01*
X177692337Y-89785713D02*
X177717099Y-89785713D01*
X177717099Y-89785713D02*
X177754242Y-89798094D01*
X177754242Y-89798094D02*
X177902813Y-89946666D01*
X177902813Y-89946666D02*
X177902813Y-89785713D01*
D10*
X179409432Y-90966190D02*
X179409432Y-91442380D01*
X179409432Y-91442380D02*
X179885622Y-91489999D01*
X179885622Y-91489999D02*
X179838003Y-91442380D01*
X179838003Y-91442380D02*
X179790384Y-91347142D01*
X179790384Y-91347142D02*
X179790384Y-91109047D01*
X179790384Y-91109047D02*
X179838003Y-91013809D01*
X179838003Y-91013809D02*
X179885622Y-90966190D01*
X179885622Y-90966190D02*
X179980860Y-90918571D01*
X179980860Y-90918571D02*
X180218955Y-90918571D01*
X180218955Y-90918571D02*
X180314193Y-90966190D01*
X180314193Y-90966190D02*
X180361813Y-91013809D01*
X180361813Y-91013809D02*
X180409432Y-91109047D01*
X180409432Y-91109047D02*
X180409432Y-91347142D01*
X180409432Y-91347142D02*
X180361813Y-91442380D01*
X180361813Y-91442380D02*
X180314193Y-91489999D01*
X180314193Y-90489999D02*
X180361813Y-90442380D01*
X180361813Y-90442380D02*
X180409432Y-90489999D01*
X180409432Y-90489999D02*
X180361813Y-90537618D01*
X180361813Y-90537618D02*
X180314193Y-90489999D01*
X180314193Y-90489999D02*
X180409432Y-90489999D01*
X180409432Y-89490000D02*
X180409432Y-90061428D01*
X180409432Y-89775714D02*
X179409432Y-89775714D01*
X179409432Y-89775714D02*
X179552289Y-89870952D01*
X179552289Y-89870952D02*
X179647527Y-89966190D01*
X179647527Y-89966190D02*
X179695146Y-90061428D01*
X180409432Y-89061428D02*
X179409432Y-89061428D01*
X180409432Y-88490000D02*
X179838003Y-88918571D01*
X179409432Y-88490000D02*
X179980860Y-89061428D01*
D11*
X178902813Y-90033332D02*
X178779004Y-90119999D01*
X178902813Y-90181904D02*
X178642813Y-90181904D01*
X178642813Y-90181904D02*
X178642813Y-90082856D01*
X178642813Y-90082856D02*
X178655194Y-90058094D01*
X178655194Y-90058094D02*
X178667575Y-90045713D01*
X178667575Y-90045713D02*
X178692337Y-90033332D01*
X178692337Y-90033332D02*
X178729480Y-90033332D01*
X178729480Y-90033332D02*
X178754242Y-90045713D01*
X178754242Y-90045713D02*
X178766623Y-90058094D01*
X178766623Y-90058094D02*
X178779004Y-90082856D01*
X178779004Y-90082856D02*
X178779004Y-90181904D01*
X178902813Y-89785713D02*
X178902813Y-89934285D01*
X178902813Y-89859999D02*
X178642813Y-89859999D01*
X178642813Y-89859999D02*
X178679956Y-89884761D01*
X178679956Y-89884761D02*
X178704718Y-89909523D01*
X178704718Y-89909523D02*
X178717099Y-89934285D01*
D10*
X177166562Y-93262987D02*
X177166562Y-93834415D01*
X177166562Y-93548701D02*
X176166562Y-93548701D01*
X176166562Y-93548701D02*
X176309419Y-93643939D01*
X176309419Y-93643939D02*
X176404657Y-93739177D01*
X176404657Y-93739177D02*
X176452276Y-93834415D01*
X176166562Y-92643939D02*
X176166562Y-92548701D01*
X176166562Y-92548701D02*
X176214181Y-92453463D01*
X176214181Y-92453463D02*
X176261800Y-92405844D01*
X176261800Y-92405844D02*
X176357038Y-92358225D01*
X176357038Y-92358225D02*
X176547514Y-92310606D01*
X176547514Y-92310606D02*
X176785609Y-92310606D01*
X176785609Y-92310606D02*
X176976085Y-92358225D01*
X176976085Y-92358225D02*
X177071323Y-92405844D01*
X177071323Y-92405844D02*
X177118943Y-92453463D01*
X177118943Y-92453463D02*
X177166562Y-92548701D01*
X177166562Y-92548701D02*
X177166562Y-92643939D01*
X177166562Y-92643939D02*
X177118943Y-92739177D01*
X177118943Y-92739177D02*
X177071323Y-92786796D01*
X177071323Y-92786796D02*
X176976085Y-92834415D01*
X176976085Y-92834415D02*
X176785609Y-92882034D01*
X176785609Y-92882034D02*
X176547514Y-92882034D01*
X176547514Y-92882034D02*
X176357038Y-92834415D01*
X176357038Y-92834415D02*
X176261800Y-92786796D01*
X176261800Y-92786796D02*
X176214181Y-92739177D01*
X176214181Y-92739177D02*
X176166562Y-92643939D01*
X176499895Y-91453463D02*
X177166562Y-91453463D01*
X176499895Y-91882034D02*
X177023704Y-91882034D01*
X177023704Y-91882034D02*
X177118943Y-91834415D01*
X177118943Y-91834415D02*
X177166562Y-91739177D01*
X177166562Y-91739177D02*
X177166562Y-91596320D01*
X177166562Y-91596320D02*
X177118943Y-91501082D01*
X177118943Y-91501082D02*
X177071323Y-91453463D01*
X176642752Y-90643939D02*
X176642752Y-90977272D01*
X177166562Y-90977272D02*
X176166562Y-90977272D01*
X176166562Y-90977272D02*
X176166562Y-90501082D01*
D11*
X177961508Y-92233225D02*
X177973413Y-92245129D01*
X177973413Y-92245129D02*
X177985317Y-92280844D01*
X177985317Y-92280844D02*
X177985317Y-92304653D01*
X177985317Y-92304653D02*
X177973413Y-92340367D01*
X177973413Y-92340367D02*
X177949603Y-92364177D01*
X177949603Y-92364177D02*
X177925793Y-92376082D01*
X177925793Y-92376082D02*
X177878174Y-92387986D01*
X177878174Y-92387986D02*
X177842460Y-92387986D01*
X177842460Y-92387986D02*
X177794841Y-92376082D01*
X177794841Y-92376082D02*
X177771032Y-92364177D01*
X177771032Y-92364177D02*
X177747222Y-92340367D01*
X177747222Y-92340367D02*
X177735317Y-92304653D01*
X177735317Y-92304653D02*
X177735317Y-92280844D01*
X177735317Y-92280844D02*
X177747222Y-92245129D01*
X177747222Y-92245129D02*
X177759127Y-92233225D01*
X177818651Y-92018939D02*
X177985317Y-92018939D01*
X177723413Y-92078463D02*
X177901984Y-92137986D01*
X177901984Y-92137986D02*
X177901984Y-91983225D01*
D14*
%TO.C,U5*%
X168800000Y-67750000D02*
X168800000Y-74250000D01*
X168800000Y-67750000D02*
X173200000Y-67750000D01*
X168800000Y-74250000D02*
X173200000Y-74250000D01*
X173200000Y-67750000D02*
X173200000Y-74250000D01*
D15*
X166910000Y-68075000D02*
G75*
G02*
X166710000Y-68075000I-100000J0D01*
G01*
X166710000Y-68075000D02*
G75*
G02*
X166910000Y-68075000I100000J0D01*
G01*
D16*
%TO.C,C5*%
X179573587Y-89491430D02*
X180073587Y-89491430D01*
X179573587Y-90491430D02*
X179573587Y-89491430D01*
X180073587Y-89491430D02*
X180073587Y-90491430D01*
X180073587Y-90491430D02*
X179573587Y-90491430D01*
D14*
%TO.C,J1*%
X166400000Y-83152570D02*
X166400000Y-92092570D01*
X166400000Y-92092570D02*
X173750000Y-92092570D01*
X166890000Y-82122570D02*
X166890000Y-96622570D01*
X173750000Y-83152570D02*
X166400000Y-83152570D01*
X173750000Y-92092570D02*
X173750000Y-83152570D01*
D15*
X175100000Y-84422570D02*
G75*
G02*
X174900000Y-84422570I-100000J0D01*
G01*
X174900000Y-84422570D02*
G75*
G02*
X175100000Y-84422570I100000J0D01*
G01*
D16*
%TO.C,C10*%
X183000000Y-88250000D02*
X184000000Y-88250000D01*
X183000000Y-88750000D02*
X183000000Y-88250000D01*
X184000000Y-88250000D02*
X184000000Y-88750000D01*
X184000000Y-88750000D02*
X183000000Y-88750000D01*
D14*
%TO.C,U1*%
X168800000Y-75548396D02*
X168800000Y-82048396D01*
X168800000Y-75548396D02*
X173200000Y-75548396D01*
X168800000Y-82048396D02*
X173200000Y-82048396D01*
X173200000Y-75548396D02*
X173200000Y-82048396D01*
D15*
X166910000Y-75873396D02*
G75*
G02*
X166710000Y-75873396I-100000J0D01*
G01*
X166710000Y-75873396D02*
G75*
G02*
X166910000Y-75873396I100000J0D01*
G01*
D14*
%TO.C,SW2*%
X184831235Y-87853738D02*
X187731235Y-87853738D01*
X184831235Y-91853738D02*
X184831235Y-87853738D01*
X187731235Y-87853738D02*
X187731235Y-91853738D01*
X187731235Y-91853738D02*
X184831235Y-91853738D01*
D16*
%TO.C,U3*%
X181850000Y-90040677D02*
X182175000Y-89715677D01*
X181850000Y-92615677D02*
X181850000Y-90040677D01*
X182175000Y-89715677D02*
X183150000Y-89715677D01*
X183150000Y-89715677D02*
X183150000Y-92615677D01*
X183150000Y-92615677D02*
X181850000Y-92615677D01*
%TO.C,D1*%
X175081590Y-89517116D02*
X176881590Y-89517116D01*
X175081590Y-92317116D02*
X175081590Y-89517116D01*
X175581590Y-91167116D02*
X175981590Y-90567116D01*
X175981590Y-90167116D02*
X175981590Y-90567116D01*
X175981590Y-90567116D02*
X175431590Y-90567116D01*
X175981590Y-90567116D02*
X176381590Y-91167116D01*
X175981590Y-90567116D02*
X176531590Y-90567116D01*
X175981590Y-91167116D02*
X175981590Y-91667116D01*
X176381590Y-91167116D02*
X175581590Y-91167116D01*
X176881590Y-89517116D02*
X176881590Y-92317116D01*
X176881590Y-92317116D02*
X175081590Y-92317116D01*
D14*
%TO.C,U4*%
X181683227Y-62546067D02*
X197083227Y-62546067D01*
X181683227Y-82546067D02*
X181683227Y-62546067D01*
X197083227Y-62546067D02*
X197083227Y-82546067D01*
X197083227Y-82546067D02*
X181683227Y-82546067D01*
D15*
X181033227Y-68846067D02*
G75*
G02*
X180833227Y-68846067I-100000J0D01*
G01*
X180833227Y-68846067D02*
G75*
G02*
X181033227Y-68846067I100000J0D01*
G01*
D16*
%TO.C,C3*%
X178665544Y-91689385D02*
X179165544Y-91689385D01*
X178665544Y-92689385D02*
X178665544Y-91689385D01*
X179165544Y-91689385D02*
X179165544Y-92689385D01*
X179165544Y-92689385D02*
X178665544Y-92689385D01*
%TO.C,C6*%
X179708278Y-91688128D02*
X180208278Y-91688128D01*
X179708278Y-92688128D02*
X179708278Y-91688128D01*
X180208278Y-91688128D02*
X180208278Y-92688128D01*
X180208278Y-92688128D02*
X179708278Y-92688128D01*
%TO.C,R2*%
X177514613Y-89465000D02*
X178054613Y-89465000D01*
X177514613Y-90515000D02*
X177514613Y-89465000D01*
X178054613Y-89465000D02*
X178054613Y-90515000D01*
X178054613Y-90515000D02*
X177514613Y-90515000D01*
%TO.C,R1*%
X178514613Y-89465000D02*
X179054613Y-89465000D01*
X178514613Y-90515000D02*
X178514613Y-89465000D01*
X179054613Y-89465000D02*
X179054613Y-90515000D01*
X179054613Y-90515000D02*
X178514613Y-90515000D01*
%TO.C,C4*%
X177621743Y-91691559D02*
X178121743Y-91691559D01*
X177621743Y-92691559D02*
X177621743Y-91691559D01*
X178121743Y-91691559D02*
X178121743Y-92691559D01*
X178121743Y-92691559D02*
X177621743Y-92691559D01*
%TD*%
M02*
