%TF.GenerationSoftware,KiCad,Pcbnew,8.99.0-3218-gdd8f7901b1*%
%TF.CreationDate,2025-01-02T16:36:55-05:00*%
%TF.ProjectId,hack_matrix,6861636b-5f6d-4617-9472-69782e6b6963,rev?*%
%TF.SameCoordinates,Original*%
%TF.FileFunction,Copper,L1,Top*%
%TF.FilePolarity,Positive*%
%FSLAX46Y46*%
G04 Gerber Fmt 4.6, Leading zero omitted, Abs format (unit mm)*
G04 Created by KiCad (PCBNEW 8.99.0-3218-gdd8f7901b1) date 2025-01-02 16:36:55*
%MOMM*%
%LPD*%
G01*
G04 APERTURE LIST*
G04 Aperture macros list*
%AMRoundRect*
0 Rectangle with rounded corners*
0 $1 Rounding radius*
0 $2 $3 $4 $5 $6 $7 $8 $9 X,Y pos of 4 corners*
0 Add a 4 corners polygon primitive as box body*
4,1,4,$2,$3,$4,$5,$6,$7,$8,$9,$2,$3,0*
0 Add four circle primitives for the rounded corners*
1,1,$1+$1,$2,$3*
1,1,$1+$1,$4,$5*
1,1,$1+$1,$6,$7*
1,1,$1+$1,$8,$9*
0 Add four rect primitives between the rounded corners*
20,1,$1+$1,$2,$3,$4,$5,0*
20,1,$1+$1,$4,$5,$6,$7,0*
20,1,$1+$1,$6,$7,$8,$9,0*
20,1,$1+$1,$8,$9,$2,$3,0*%
%AMFreePoly0*
4,1,14,0.603536,0.603536,0.605000,0.600000,0.605000,-0.600000,0.603536,-0.603536,0.600000,-0.605000,-0.600000,-0.605000,-0.603536,-0.603536,-0.605000,-0.600000,-0.605000,0.000000,-0.603536,0.003536,-0.003536,0.603536,0.000000,0.605000,0.600000,0.605000,0.603536,0.603536,0.603536,0.603536,$1*%
G04 Aperture macros list end*
%TA.AperFunction,SMDPad,CuDef*%
%ADD10RoundRect,0.051250X-0.733750X-0.153750X0.733750X-0.153750X0.733750X0.153750X-0.733750X0.153750X0*%
%TD*%
%TA.AperFunction,SMDPad,CuDef*%
%ADD11RoundRect,0.140000X-0.170000X0.140000X-0.170000X-0.140000X0.170000X-0.140000X0.170000X0.140000X0*%
%TD*%
%TA.AperFunction,SMDPad,CuDef*%
%ADD12R,1.140000X0.600000*%
%TD*%
%TA.AperFunction,SMDPad,CuDef*%
%ADD13R,1.140000X0.300000*%
%TD*%
%TA.AperFunction,ComponentPad*%
%ADD14O,2.000000X0.900000*%
%TD*%
%TA.AperFunction,ComponentPad*%
%ADD15O,1.700000X0.900000*%
%TD*%
%TA.AperFunction,SMDPad,CuDef*%
%ADD16RoundRect,0.140000X0.140000X0.170000X-0.140000X0.170000X-0.140000X-0.170000X0.140000X-0.170000X0*%
%TD*%
%TA.AperFunction,SMDPad,CuDef*%
%ADD17R,1.800000X1.350000*%
%TD*%
%TA.AperFunction,SMDPad,CuDef*%
%ADD18RoundRect,0.150000X-0.587500X-0.150000X0.587500X-0.150000X0.587500X0.150000X-0.587500X0.150000X0*%
%TD*%
%TA.AperFunction,SMDPad,CuDef*%
%ADD19RoundRect,0.250000X-0.300000X0.300000X-0.300000X-0.300000X0.300000X-0.300000X0.300000X0.300000X0*%
%TD*%
%TA.AperFunction,SMDPad,CuDef*%
%ADD20R,0.800000X0.400000*%
%TD*%
%TA.AperFunction,SMDPad,CuDef*%
%ADD21R,0.400000X0.800000*%
%TD*%
%TA.AperFunction,SMDPad,CuDef*%
%ADD22R,1.200000X1.200000*%
%TD*%
%TA.AperFunction,SMDPad,CuDef*%
%ADD23FreePoly0,0.000000*%
%TD*%
%TA.AperFunction,SMDPad,CuDef*%
%ADD24R,0.800000X0.800000*%
%TD*%
%TA.AperFunction,ComponentPad*%
%ADD25C,2.000000*%
%TD*%
%TA.AperFunction,SMDPad,CuDef*%
%ADD26RoundRect,0.140000X0.170000X-0.140000X0.170000X0.140000X-0.170000X0.140000X-0.170000X-0.140000X0*%
%TD*%
%TA.AperFunction,SMDPad,CuDef*%
%ADD27RoundRect,0.135000X0.185000X-0.135000X0.185000X0.135000X-0.185000X0.135000X-0.185000X-0.135000X0*%
%TD*%
%TA.AperFunction,ComponentPad*%
%ADD28R,1.700000X1.700000*%
%TD*%
%TA.AperFunction,ComponentPad*%
%ADD29O,1.700000X1.700000*%
%TD*%
%TA.AperFunction,ViaPad*%
%ADD30C,0.600000*%
%TD*%
%TA.AperFunction,Conductor*%
%ADD31C,0.200000*%
%TD*%
G04 APERTURE END LIST*
D10*
%TO.P,U5,1,DIR*%
%TO.N,+5V*%
X168130000Y-68075000D03*
%TO.P,U5,2,A1*%
%TO.N,GND*%
X168130000Y-68725000D03*
%TO.P,U5,3,A2*%
X168130000Y-69375000D03*
%TO.P,U5,4,A3*%
%TO.N,/R1*%
X168130000Y-70025000D03*
%TO.P,U5,5,A4*%
%TO.N,/G1*%
X168130000Y-70675000D03*
%TO.P,U5,6,A5*%
%TO.N,/B1*%
X168130000Y-71325000D03*
%TO.P,U5,7,A6*%
%TO.N,/G2*%
X168130000Y-71975000D03*
%TO.P,U5,8,A7*%
%TO.N,/R2*%
X168130000Y-72625000D03*
%TO.P,U5,9,A8*%
%TO.N,/B2*%
X168130000Y-73275000D03*
%TO.P,U5,10,GND*%
%TO.N,GND*%
X168130000Y-73925000D03*
%TO.P,U5,11,B8*%
%TO.N,Net-(U2-B2)*%
X173870000Y-73925000D03*
%TO.P,U5,12,B7*%
%TO.N,Net-(U2-R2)*%
X173870000Y-73275000D03*
%TO.P,U5,13,B6*%
%TO.N,Net-(U2-G2)*%
X173870000Y-72625000D03*
%TO.P,U5,14,B5*%
%TO.N,Net-(U2-B1)*%
X173870000Y-71975000D03*
%TO.P,U5,15,B4*%
%TO.N,Net-(U2-G1)*%
X173870000Y-71325000D03*
%TO.P,U5,16,B3*%
%TO.N,Net-(U2-R1)*%
X173870000Y-70675000D03*
%TO.P,U5,17,B2*%
%TO.N,unconnected-(U5-B2-Pad17)*%
X173870000Y-70025000D03*
%TO.P,U5,18,B1*%
%TO.N,unconnected-(U5-B1-Pad18)*%
X173870000Y-69375000D03*
%TO.P,U5,19,~{OE}*%
%TO.N,GND*%
X173870000Y-68725000D03*
%TO.P,U5,20,VCC*%
%TO.N,+5V*%
X173870000Y-68075000D03*
%TD*%
D11*
%TO.P,C5,1*%
%TO.N,GND*%
X179823587Y-89511430D03*
%TO.P,C5,2*%
%TO.N,+5V*%
X179823587Y-90471430D03*
%TD*%
D12*
%TO.P,J1,A1_B12,GND*%
%TO.N,GND*%
X173750000Y-84422570D03*
%TO.P,J1,A4_B9,VBUS*%
%TO.N,Net-(D1-A)*%
X173750000Y-85222570D03*
D13*
%TO.P,J1,A5,CC1*%
%TO.N,Net-(J1-CC1)*%
X173750000Y-86372570D03*
%TO.P,J1,A6,D+*%
%TO.N,/D+*%
X173750000Y-87372570D03*
%TO.P,J1,A7,D-*%
%TO.N,/D-*%
X173750000Y-87872570D03*
%TO.P,J1,A8,SBU1*%
%TO.N,unconnected-(J1-SBU1-PadA8)*%
X173750000Y-88872570D03*
D12*
%TO.P,J1,B1_A12,GND*%
%TO.N,GND*%
X173750000Y-90822570D03*
%TO.P,J1,B4_A9,VBUS*%
%TO.N,Net-(D1-A)*%
X173750000Y-90022570D03*
D13*
%TO.P,J1,B5,CC2*%
%TO.N,Net-(J1-CC2)*%
X173750000Y-89372570D03*
%TO.P,J1,B6,D+*%
%TO.N,/D+*%
X173750000Y-88372570D03*
%TO.P,J1,B7,D-*%
%TO.N,/D-*%
X173750000Y-86872570D03*
%TO.P,J1,B8,SBU2*%
%TO.N,unconnected-(J1-SBU2-PadB8)*%
X173750000Y-85872570D03*
D14*
%TO.P,J1,S1,SHIELD*%
%TO.N,GND*%
X173170000Y-83297570D03*
%TO.P,J1,S2,SHIELD*%
X173170000Y-91947570D03*
D15*
%TO.P,J1,S3,SHIELD*%
X169000000Y-83297570D03*
%TO.P,J1,S4,SHIELD*%
X169000000Y-91947570D03*
%TD*%
D16*
%TO.P,C10,1*%
%TO.N,GND*%
X183980000Y-88500000D03*
%TO.P,C10,2*%
%TO.N,/GPIO0*%
X183020000Y-88500000D03*
%TD*%
D10*
%TO.P,U1,1,DIR*%
%TO.N,+5V*%
X168130000Y-75873396D03*
%TO.P,U1,2,A1*%
%TO.N,GND*%
X168130000Y-76523396D03*
%TO.P,U1,3,A2*%
%TO.N,/B*%
X168130000Y-77173396D03*
%TO.P,U1,4,A3*%
%TO.N,/A*%
X168130000Y-77823396D03*
%TO.P,U1,5,A4*%
%TO.N,/D*%
X168130000Y-78473396D03*
%TO.P,U1,6,A5*%
%TO.N,/C*%
X168130000Y-79123396D03*
%TO.P,U1,7,A6*%
%TO.N,/STROBE*%
X168130000Y-79773396D03*
%TO.P,U1,8,A7*%
%TO.N,/CLK*%
X168130000Y-80423396D03*
%TO.P,U1,9,A8*%
%TO.N,/OE-*%
X168130000Y-81073396D03*
%TO.P,U1,10,GND*%
%TO.N,GND*%
X168130000Y-81723396D03*
%TO.P,U1,11,B8*%
%TO.N,Net-(U1-B8)*%
X173870000Y-81723396D03*
%TO.P,U1,12,B7*%
%TO.N,Net-(U1-B7)*%
X173870000Y-81073396D03*
%TO.P,U1,13,B6*%
%TO.N,Net-(U1-B6)*%
X173870000Y-80423396D03*
%TO.P,U1,14,B5*%
%TO.N,Net-(U1-B5)*%
X173870000Y-79773396D03*
%TO.P,U1,15,B4*%
%TO.N,Net-(U1-B4)*%
X173870000Y-79123396D03*
%TO.P,U1,16,B3*%
%TO.N,Net-(U1-B3)*%
X173870000Y-78473396D03*
%TO.P,U1,17,B2*%
%TO.N,Net-(U1-B2)*%
X173870000Y-77823396D03*
%TO.P,U1,18,B1*%
%TO.N,unconnected-(U1-B1-Pad18)*%
X173870000Y-77173396D03*
%TO.P,U1,19,~{OE}*%
%TO.N,GND*%
X173870000Y-76523396D03*
%TO.P,U1,20,VCC*%
%TO.N,+5V*%
X173870000Y-75873396D03*
%TD*%
D17*
%TO.P,SW2,1,1*%
%TO.N,/GPIO0*%
X186281235Y-87778738D03*
%TO.P,SW2,2,2*%
%TO.N,GND*%
X186281235Y-91928738D03*
%TD*%
D18*
%TO.P,U3,1,GND*%
%TO.N,GND*%
X181562500Y-90215677D03*
%TO.P,U3,2,VO*%
%TO.N,+3V3*%
X181562500Y-92115677D03*
%TO.P,U3,3,VI*%
%TO.N,+5V*%
X183437500Y-91165677D03*
%TD*%
D19*
%TO.P,D1,1,K*%
%TO.N,+5V*%
X175981590Y-89517116D03*
%TO.P,D1,2,A*%
%TO.N,Net-(D1-A)*%
X175981590Y-92317116D03*
%TD*%
D20*
%TO.P,U4,1,GND*%
%TO.N,GND*%
X182383227Y-68846067D03*
%TO.P,U4,2,GND*%
X182383227Y-69696067D03*
%TO.P,U4,3,3V3*%
%TO.N,+3V3*%
X182383227Y-70546067D03*
%TO.P,U4,4,IO0*%
%TO.N,/GPIO0*%
X182383227Y-71396067D03*
%TO.P,U4,5,IO1*%
%TO.N,/R1*%
X182383227Y-72246067D03*
%TO.P,U4,6,IO2*%
%TO.N,/G1*%
X182383227Y-73096067D03*
%TO.P,U4,7,IO3*%
%TO.N,/B1*%
X182383227Y-73946067D03*
%TO.P,U4,8,IO4*%
%TO.N,/G2*%
X182383227Y-74796067D03*
%TO.P,U4,9,IO5*%
%TO.N,/R2*%
X182383227Y-75646067D03*
%TO.P,U4,10,IO6*%
%TO.N,/B2*%
X182383227Y-76496067D03*
%TO.P,U4,11,IO7*%
%TO.N,/B*%
X182383227Y-77346067D03*
%TO.P,U4,12,IO8*%
%TO.N,/A*%
X182383227Y-78196067D03*
%TO.P,U4,13,IO9*%
%TO.N,/D*%
X182383227Y-79046067D03*
%TO.P,U4,14,IO10*%
%TO.N,/C*%
X182383227Y-79896067D03*
%TO.P,U4,15,IO11*%
%TO.N,/STROBE*%
X182383227Y-80746067D03*
D21*
%TO.P,U4,16,IO12*%
%TO.N,/CLK*%
X183433227Y-81796067D03*
%TO.P,U4,17,IO13*%
%TO.N,/OE-*%
X184283227Y-81796067D03*
%TO.P,U4,18,IO14*%
%TO.N,unconnected-(U4-IO14-Pad18)*%
X185133227Y-81796067D03*
%TO.P,U4,19,IO15*%
%TO.N,unconnected-(U4-IO15-Pad19)*%
X185983227Y-81796067D03*
%TO.P,U4,20,IO16*%
%TO.N,unconnected-(U4-IO16-Pad20)*%
X186833227Y-81796067D03*
%TO.P,U4,21,IO17*%
%TO.N,unconnected-(U4-IO17-Pad21)*%
X187683227Y-81796067D03*
%TO.P,U4,22,IO18*%
%TO.N,unconnected-(U4-IO18-Pad22)*%
X188533227Y-81796067D03*
%TO.P,U4,23,IO19*%
%TO.N,/D-*%
X189383227Y-81796067D03*
%TO.P,U4,24,IO20*%
%TO.N,/D+*%
X190233227Y-81796067D03*
%TO.P,U4,25,IO21*%
%TO.N,unconnected-(U4-IO21-Pad25)*%
X191083227Y-81796067D03*
%TO.P,U4,26,IO26*%
%TO.N,unconnected-(U4-IO26-Pad26)*%
X191933227Y-81796067D03*
%TO.P,U4,27,NC*%
%TO.N,unconnected-(U4-NC-Pad27)*%
X192783227Y-81796067D03*
%TO.P,U4,28,IO33*%
%TO.N,unconnected-(U4-IO33-Pad28)*%
X193633227Y-81796067D03*
%TO.P,U4,29,IO34*%
%TO.N,unconnected-(U4-IO34-Pad29)*%
X194483227Y-81796067D03*
%TO.P,U4,30,GND*%
%TO.N,GND*%
X195333227Y-81796067D03*
D20*
%TO.P,U4,31,IO35*%
%TO.N,unconnected-(U4-IO35-Pad31)*%
X196383227Y-80746067D03*
%TO.P,U4,32,IO36*%
%TO.N,unconnected-(U4-IO36-Pad32)*%
X196383227Y-79896067D03*
%TO.P,U4,33,IO37*%
%TO.N,unconnected-(U4-IO37-Pad33)*%
X196383227Y-79046067D03*
%TO.P,U4,34,IO38*%
%TO.N,unconnected-(U4-IO38-Pad34)*%
X196383227Y-78196067D03*
%TO.P,U4,35,IO39*%
%TO.N,unconnected-(U4-IO39-Pad35)*%
X196383227Y-77346067D03*
%TO.P,U4,36,IO40*%
%TO.N,unconnected-(U4-IO40-Pad36)*%
X196383227Y-76496067D03*
%TO.P,U4,37,IO41*%
%TO.N,unconnected-(U4-IO41-Pad37)*%
X196383227Y-75646067D03*
%TO.P,U4,38,IO42*%
%TO.N,unconnected-(U4-IO42-Pad38)*%
X196383227Y-74796067D03*
%TO.P,U4,39,TXD0*%
%TO.N,unconnected-(U4-TXD0-Pad39)*%
X196383227Y-73946067D03*
%TO.P,U4,40,RXD0*%
%TO.N,unconnected-(U4-RXD0-Pad40)*%
X196383227Y-73096067D03*
%TO.P,U4,41,IO45*%
%TO.N,unconnected-(U4-IO45-Pad41)*%
X196383227Y-72246067D03*
%TO.P,U4,42,GND*%
%TO.N,GND*%
X196383227Y-71396067D03*
%TO.P,U4,43,GND*%
X196383227Y-70546067D03*
%TO.P,U4,44,IO46*%
%TO.N,unconnected-(U4-IO46-Pad44)*%
X196383227Y-69696067D03*
%TO.P,U4,45,EN*%
%TO.N,+3V3*%
X196383227Y-68846067D03*
D21*
%TO.P,U4,46,GND*%
%TO.N,GND*%
X195333227Y-67796067D03*
%TO.P,U4,47,GND*%
X194483227Y-67796067D03*
%TO.P,U4,48,GND*%
X193633227Y-67796067D03*
%TO.P,U4,49,GND*%
X192783227Y-67796067D03*
%TO.P,U4,50,GND*%
X191933227Y-67796067D03*
%TO.P,U4,51,GND*%
X191083227Y-67796067D03*
%TO.P,U4,52,GND*%
X190233227Y-67796067D03*
%TO.P,U4,53,GND*%
X189383227Y-67796067D03*
%TO.P,U4,54,GND*%
X188533227Y-67796067D03*
%TO.P,U4,55,GND*%
X187683227Y-67796067D03*
%TO.P,U4,56,GND*%
X186833227Y-67796067D03*
%TO.P,U4,57,GND*%
X185983227Y-67796067D03*
%TO.P,U4,58,GND*%
X185133227Y-67796067D03*
%TO.P,U4,59,GND*%
X184283227Y-67796067D03*
%TO.P,U4,60,GND*%
X183433227Y-67796067D03*
D22*
%TO.P,U4,61,GND*%
X189383227Y-74796067D03*
%TO.P,U4,61_1,GND*%
X187733227Y-74796067D03*
%TO.P,U4,61_2,GND*%
X187733227Y-76446067D03*
%TO.P,U4,61_3,GND*%
X189383227Y-76446067D03*
%TO.P,U4,61_4,GND*%
X191033227Y-76446067D03*
%TO.P,U4,61_5,GND*%
X191033227Y-74796067D03*
%TO.P,U4,61_6,GND*%
X191033227Y-73146067D03*
%TO.P,U4,61_7,GND*%
X189383227Y-73146067D03*
D23*
%TO.P,U4,61_8,GND*%
X187733227Y-73146067D03*
D24*
%TO.P,U4,62,GND*%
X182383227Y-67796067D03*
%TO.P,U4,63,GND*%
X182383227Y-81796067D03*
%TO.P,U4,64,GND*%
X196383227Y-81796067D03*
%TO.P,U4,65,GND*%
X196383227Y-67796067D03*
%TD*%
D11*
%TO.P,C3,1*%
%TO.N,+3V3*%
X178915544Y-91709385D03*
%TO.P,C3,2*%
%TO.N,GND*%
X178915544Y-92669385D03*
%TD*%
D25*
%TO.P,J2,1,Pin_1*%
%TO.N,+5V*%
X193216183Y-90602955D03*
%TO.P,J2,2,Pin_2*%
%TO.N,GND*%
X193216183Y-85602955D03*
%TD*%
D26*
%TO.P,C6,1*%
%TO.N,GND*%
X179958278Y-92668128D03*
%TO.P,C6,2*%
%TO.N,+5V*%
X179958278Y-91708128D03*
%TD*%
D27*
%TO.P,R2,1*%
%TO.N,Net-(J1-CC2)*%
X177784613Y-90500000D03*
%TO.P,R2,2*%
%TO.N,GND*%
X177784613Y-89480000D03*
%TD*%
%TO.P,R1,1*%
%TO.N,Net-(J1-CC1)*%
X178784613Y-90500000D03*
%TO.P,R1,2*%
%TO.N,GND*%
X178784613Y-89480000D03*
%TD*%
D11*
%TO.P,C4,1*%
%TO.N,+3V3*%
X177871743Y-91711559D03*
%TO.P,C4,2*%
%TO.N,GND*%
X177871743Y-92671559D03*
%TD*%
D28*
%TO.P,U2,1,R1*%
%TO.N,Net-(U2-R1)*%
X176964810Y-69220000D03*
D29*
%TO.P,U2,2,G1*%
%TO.N,Net-(U2-G1)*%
X179504810Y-69220000D03*
%TO.P,U2,3,B1*%
%TO.N,Net-(U2-B1)*%
X176964810Y-71760000D03*
%TO.P,U2,4,GND*%
%TO.N,GND*%
X179504810Y-71760000D03*
%TO.P,U2,5,R2*%
%TO.N,Net-(U2-R2)*%
X176964810Y-74300000D03*
%TO.P,U2,6,G2*%
%TO.N,Net-(U2-G2)*%
X179504810Y-74300000D03*
%TO.P,U2,7,B2*%
%TO.N,Net-(U2-B2)*%
X176964810Y-76840000D03*
%TO.P,U2,8,GND*%
%TO.N,GND*%
X179504810Y-76840000D03*
%TO.P,U2,9,A*%
%TO.N,Net-(U1-B3)*%
X176964810Y-79380000D03*
%TO.P,U2,10,B*%
%TO.N,Net-(U1-B2)*%
X179504810Y-79380000D03*
%TO.P,U2,11,C*%
%TO.N,Net-(U1-B5)*%
X176964810Y-81920000D03*
%TO.P,U2,12,D*%
%TO.N,Net-(U1-B4)*%
X179504810Y-81920000D03*
%TO.P,U2,13,CLK*%
%TO.N,Net-(U1-B7)*%
X176964810Y-84460000D03*
%TO.P,U2,14,STROBE*%
%TO.N,Net-(U1-B6)*%
X179504810Y-84460000D03*
%TO.P,U2,15,OE-*%
%TO.N,Net-(U1-B8)*%
X176964810Y-87000000D03*
%TO.P,U2,16,GND*%
%TO.N,GND*%
X179504810Y-87000000D03*
%TD*%
D30*
%TO.N,+5V*%
X183000000Y-84000000D03*
X173524821Y-74875179D03*
X182951421Y-85951421D03*
X175250000Y-74250000D03*
%TO.N,GND*%
X183019588Y-89710000D03*
X184825735Y-91325735D03*
X185500000Y-90000000D03*
X168130000Y-74630000D03*
X169500000Y-76000000D03*
X171500000Y-69000000D03*
X171120736Y-76398318D03*
X184065637Y-87665637D03*
X169500000Y-69000000D03*
%TO.N,+3V3*%
X184100000Y-70500000D03*
X183000000Y-92000000D03*
X177031590Y-92098912D03*
%TO.N,/GPIO0*%
X187000000Y-86500000D03*
X185500000Y-70500000D03*
%TO.N,Net-(J1-CC1)*%
X172614871Y-89000000D03*
X175983897Y-91126936D03*
%TO.N,/B2*%
X183516726Y-76139377D03*
X169410604Y-73589396D03*
%TO.N,/R1*%
X183500000Y-72000000D03*
X169500000Y-70000000D03*
%TO.N,/C*%
X183512637Y-79515911D03*
X169996927Y-79199726D03*
%TO.N,/R2*%
X183507866Y-75313392D03*
X169976291Y-73023709D03*
%TO.N,/B1*%
X183507866Y-73613394D03*
X170242785Y-71400003D03*
%TO.N,/CLK*%
X184212475Y-80755323D03*
X170300071Y-81199929D03*
%TO.N,/A*%
X170324264Y-77614370D03*
X183517700Y-77823220D03*
%TO.N,/OE-*%
X169500000Y-81500000D03*
X185000000Y-80500000D03*
%TO.N,/G1*%
X169500000Y-70800003D03*
X183500000Y-72800003D03*
%TO.N,/STROBE*%
X169976736Y-80028064D03*
X184251743Y-79822059D03*
%TO.N,/D*%
X183526524Y-78659022D03*
X169984251Y-78338521D03*
%TO.N,/G2*%
X183500000Y-74500000D03*
X169942705Y-72141593D03*
%TO.N,/B*%
X183500000Y-77000000D03*
X170324264Y-76473396D03*
%TO.N,/D-*%
X189250000Y-83500000D03*
X172100000Y-88000000D03*
%TD*%
D31*
%TO.N,Net-(D1-A)*%
X175981590Y-92317116D02*
X175734954Y-92070480D01*
X175734954Y-91727936D02*
X175000000Y-90992982D01*
X175000000Y-90992982D02*
X175000000Y-90487370D01*
X175734954Y-92070480D02*
X175734954Y-91727936D01*
X175000000Y-90487370D02*
X174734200Y-90221570D01*
X174734200Y-90221570D02*
X173949000Y-90221570D01*
X173949000Y-90221570D02*
X173750000Y-90022570D01*
X173750000Y-90022570D02*
X173727430Y-90000000D01*
X173727430Y-90000000D02*
X173088083Y-90000000D01*
X171099000Y-86899586D02*
X172027016Y-85971570D01*
X173088083Y-90000000D02*
X172689083Y-89601000D01*
X171099000Y-88666100D02*
X171099000Y-86899586D01*
X172689083Y-89601000D02*
X172365928Y-89601000D01*
X172365928Y-89601000D02*
X172165928Y-89401000D01*
X172165928Y-89401000D02*
X171833900Y-89401000D01*
X171833900Y-89401000D02*
X171099000Y-88666100D01*
X172027016Y-85971570D02*
X172278430Y-85971570D01*
X173589000Y-85383570D02*
X173750000Y-85222570D01*
X172278430Y-85971570D02*
X172866430Y-85383570D01*
X172866430Y-85383570D02*
X173589000Y-85383570D01*
%TO.N,Net-(J1-CC1)*%
X172614871Y-89000000D02*
X172000000Y-89000000D01*
X172000000Y-89000000D02*
X171500000Y-88500000D01*
X171500000Y-88500000D02*
X171500000Y-87065686D01*
X171500000Y-87065686D02*
X172193116Y-86372570D01*
X172193116Y-86372570D02*
X173750000Y-86372570D01*
X175983897Y-91126936D02*
X176856514Y-91126936D01*
X176913450Y-91070000D02*
X178153537Y-91070000D01*
X178153537Y-91070000D02*
X178723537Y-90500000D01*
X176856514Y-91126936D02*
X176913450Y-91070000D01*
X178723537Y-90500000D02*
X178784613Y-90500000D01*
%TO.N,+5V*%
X177441156Y-75690000D02*
X178290496Y-76539340D01*
X182100000Y-88910000D02*
X182300000Y-89110000D01*
X178290496Y-76539340D02*
X178290496Y-77600000D01*
X181000000Y-79248844D02*
X181000000Y-82000000D01*
X182000000Y-88910000D02*
X182100000Y-88910000D01*
X179989264Y-90637107D02*
X179823587Y-90471430D01*
X168130000Y-68075000D02*
X171000000Y-68075000D01*
X192613228Y-90000000D02*
X193216183Y-90602955D01*
X171000000Y-68075000D02*
X173870000Y-68075000D01*
X172748302Y-74751698D02*
X170998302Y-73001698D01*
X178290496Y-77600000D02*
X178920496Y-78230000D01*
X176588706Y-88910000D02*
X182000000Y-88910000D01*
X179981156Y-78230000D02*
X181000000Y-79248844D01*
X170998302Y-73001698D02*
X170900000Y-72903396D01*
X170900000Y-72903396D02*
X170900000Y-68175000D01*
X172748302Y-74751698D02*
X172871783Y-74875179D01*
X183268117Y-89110000D02*
X184000222Y-89842105D01*
X180500729Y-91165677D02*
X179823587Y-90488535D01*
X183437500Y-91165677D02*
X180500729Y-91165677D01*
X182951421Y-86548579D02*
X182000000Y-87500000D01*
X173870000Y-75873396D02*
X172748302Y-74751698D01*
X179823587Y-90488535D02*
X179823587Y-90471430D01*
X180500729Y-91165677D02*
X179958278Y-91708128D01*
X179823587Y-91612119D02*
X179923027Y-91711559D01*
X175981590Y-89517116D02*
X176588706Y-88910000D01*
X184000222Y-89842105D02*
X184000222Y-90602955D01*
X175250000Y-74250000D02*
X175288464Y-74250000D01*
X175288464Y-74250000D02*
X176728464Y-75690000D01*
X170900000Y-68175000D02*
X171000000Y-68075000D01*
X178920496Y-78230000D02*
X179981156Y-78230000D01*
X181000000Y-82000000D02*
X183000000Y-84000000D01*
X168130000Y-75873396D02*
X170001698Y-74001698D01*
X182300000Y-89110000D02*
X183268117Y-89110000D01*
X182951421Y-85951421D02*
X182951421Y-86548579D01*
X170998302Y-73005094D02*
X170998302Y-73001698D01*
X183437500Y-91165677D02*
X184000222Y-90602955D01*
X184000222Y-90602955D02*
X193216183Y-90602955D01*
X172871783Y-74875179D02*
X173524821Y-74875179D01*
X176728464Y-75690000D02*
X177441156Y-75690000D01*
X170001698Y-74001698D02*
X170998302Y-73005094D01*
X175565182Y-89517116D02*
X175981590Y-89517116D01*
X182000000Y-87500000D02*
X182000000Y-88910000D01*
%TO.N,GND*%
X183980000Y-88500000D02*
X183980000Y-87751274D01*
X181052899Y-87000000D02*
X182802899Y-85250000D01*
X173170000Y-83842570D02*
X173750000Y-84422570D01*
X185428738Y-91928738D02*
X184825735Y-91325735D01*
X179792157Y-89480000D02*
X179823587Y-89511430D01*
X181568743Y-69696067D02*
X182383227Y-69696067D01*
X171120736Y-76398318D02*
X171245814Y-76523396D01*
X168500000Y-69005000D02*
X168130000Y-69375000D01*
X171775000Y-68725000D02*
X173870000Y-68725000D01*
X196383227Y-67796067D02*
X195333227Y-67796067D01*
X180236489Y-92946339D02*
X185263634Y-92946339D01*
X169000000Y-83297570D02*
X169000000Y-82593396D01*
X171500000Y-69000000D02*
X171775000Y-68725000D01*
X186000000Y-85250000D02*
X186250000Y-85500000D01*
X179504810Y-71760000D02*
X181568743Y-69696067D01*
X181400000Y-80812840D02*
X181400000Y-78735190D01*
X168976604Y-76523396D02*
X169500000Y-76000000D01*
X180527834Y-90215677D02*
X181562500Y-90215677D01*
X179957021Y-92669385D02*
X179958278Y-92668128D01*
X179958278Y-92668128D02*
X180236489Y-92946339D01*
X185500000Y-90000000D02*
X185480000Y-90000000D01*
X177784613Y-89480000D02*
X179792157Y-89480000D01*
X168500000Y-69000000D02*
X168500000Y-69005000D01*
X169000000Y-82593396D02*
X168130000Y-81723396D01*
X179504810Y-87000000D02*
X181052899Y-87000000D01*
X173170000Y-83297570D02*
X173170000Y-83842570D01*
X183980000Y-87751274D02*
X184065637Y-87665637D01*
X173750000Y-90822570D02*
X173750000Y-91367570D01*
X182068177Y-89710000D02*
X181562500Y-90215677D01*
X185263634Y-92946339D02*
X186281235Y-91928738D01*
X168500000Y-69000000D02*
X168405000Y-69000000D01*
X181400000Y-78735190D02*
X179504810Y-76840000D01*
X169500000Y-69000000D02*
X168500000Y-69000000D01*
X182383227Y-81796067D02*
X181400000Y-80812840D01*
X168130000Y-74630000D02*
X168130000Y-73925000D01*
X177875174Y-92668128D02*
X177871743Y-92671559D01*
X168405000Y-69000000D02*
X168130000Y-68725000D01*
X186281235Y-91928738D02*
X185428738Y-91928738D01*
X171245814Y-76523396D02*
X173870000Y-76523396D01*
X179823587Y-89511430D02*
X180527834Y-90215677D01*
X173870000Y-68725000D02*
X175275000Y-68725000D01*
X183019588Y-89710000D02*
X182068177Y-89710000D01*
X173750000Y-91367570D02*
X173170000Y-91947570D01*
X185480000Y-90000000D02*
X183980000Y-88500000D01*
X168130000Y-76523396D02*
X168976604Y-76523396D01*
X182802899Y-85250000D02*
X186000000Y-85250000D01*
X179958278Y-92668128D02*
X177875174Y-92668128D01*
X178913370Y-92671559D02*
X178915544Y-92669385D01*
%TO.N,+3V3*%
X183000000Y-92000000D02*
X181678177Y-92000000D01*
X177031590Y-92098912D02*
X177418943Y-91711559D01*
X184100000Y-70500000D02*
X182429294Y-70500000D01*
X182429294Y-70500000D02*
X182383227Y-70546067D01*
X177418943Y-91711559D02*
X178871743Y-91711559D01*
X185753933Y-68846067D02*
X184100000Y-70500000D01*
X196383227Y-68846067D02*
X185753933Y-68846067D01*
X181678177Y-92000000D02*
X181562500Y-92115677D01*
%TO.N,/GPIO0*%
X183020000Y-87480000D02*
X183020000Y-88500000D01*
X185500000Y-70500000D02*
X184603933Y-71396067D01*
X183500000Y-87000000D02*
X183020000Y-87480000D01*
X186281235Y-87218765D02*
X187000000Y-86500000D01*
X186281235Y-87778738D02*
X185502497Y-87000000D01*
X184603933Y-71396067D02*
X182383227Y-71396067D01*
X185502497Y-87000000D02*
X183500000Y-87000000D01*
X186281235Y-87778738D02*
X186281235Y-87218765D01*
%TO.N,Net-(J1-CC2)*%
X177784613Y-90500000D02*
X175579730Y-90500000D01*
X175579730Y-90500000D02*
X174452300Y-89372570D01*
X174452300Y-89372570D02*
X173750000Y-89372570D01*
%TO.N,/B2*%
X168130000Y-73275000D02*
X169096208Y-73275000D01*
X183160036Y-76496067D02*
X183516726Y-76139377D01*
X182383227Y-76496067D02*
X183160036Y-76496067D01*
X169096208Y-73275000D02*
X169410604Y-73589396D01*
%TO.N,/R1*%
X169500000Y-70000000D02*
X168155000Y-70000000D01*
X182383227Y-72246067D02*
X183253933Y-72246067D01*
X183253933Y-72246067D02*
X183500000Y-72000000D01*
X168155000Y-70000000D02*
X168130000Y-70025000D01*
%TO.N,/C*%
X183132481Y-79896067D02*
X183512637Y-79515911D01*
X169920597Y-79123396D02*
X168130000Y-79123396D01*
X182383227Y-79896067D02*
X183132481Y-79896067D01*
X169996927Y-79199726D02*
X169920597Y-79123396D01*
%TO.N,/R2*%
X183175191Y-75646067D02*
X183507866Y-75313392D01*
X182383227Y-75646067D02*
X183175191Y-75646067D01*
X169577582Y-72625000D02*
X169976291Y-73023709D01*
X168130000Y-72625000D02*
X169577582Y-72625000D01*
%TO.N,/B1*%
X168130000Y-71325000D02*
X168914999Y-71325000D01*
X168914999Y-71325000D02*
X168990002Y-71400003D01*
X168990002Y-71400003D02*
X170242785Y-71400003D01*
X183175193Y-73946067D02*
X183507866Y-73613394D01*
X182383227Y-73946067D02*
X183175193Y-73946067D01*
%TO.N,/CLK*%
X183433227Y-81796067D02*
X183433227Y-81571910D01*
X183433227Y-81596067D02*
X183433227Y-81796067D01*
X184212475Y-80816819D02*
X183433227Y-81596067D01*
X184212475Y-80755323D02*
X184212475Y-80816819D01*
X170300071Y-81199929D02*
X169523538Y-80423396D01*
X169523538Y-80423396D02*
X168130000Y-80423396D01*
%TO.N,/A*%
X169650847Y-77823396D02*
X168130000Y-77823396D01*
X182383227Y-78196067D02*
X183144853Y-78196067D01*
X170200113Y-77738521D02*
X169735722Y-77738521D01*
X183144853Y-78196067D02*
X183517700Y-77823220D01*
X170324264Y-77614370D02*
X170200113Y-77738521D01*
X169735722Y-77738521D02*
X169650847Y-77823396D01*
%TO.N,/OE-*%
X184283227Y-81533100D02*
X184283227Y-81796067D01*
X168130000Y-81073396D02*
X169073396Y-81073396D01*
X185000000Y-80500000D02*
X185000000Y-80816327D01*
X184283227Y-81796067D02*
X184283227Y-81596067D01*
X169073396Y-81073396D02*
X169500000Y-81500000D01*
X185000000Y-80816327D02*
X184283227Y-81533100D01*
%TO.N,/G1*%
X183203936Y-73096067D02*
X183500000Y-72800003D01*
X168130000Y-70675000D02*
X169374997Y-70675000D01*
X182383227Y-73096067D02*
X183203936Y-73096067D01*
X169374997Y-70675000D02*
X169500000Y-70800003D01*
%TO.N,/STROBE*%
X182633227Y-80746067D02*
X182383227Y-80746067D01*
X184194124Y-79764440D02*
X184112637Y-79764440D01*
X169722068Y-79773396D02*
X168130000Y-79773396D01*
X169976736Y-80028064D02*
X169722068Y-79773396D01*
X183581010Y-80296067D02*
X183083227Y-80296067D01*
X183083227Y-80296067D02*
X182633227Y-80746067D01*
X184251743Y-79822059D02*
X184194124Y-79764440D01*
X184112637Y-79764440D02*
X183581010Y-80296067D01*
%TO.N,/D*%
X169849376Y-78473396D02*
X168130000Y-78473396D01*
X169984251Y-78338521D02*
X169849376Y-78473396D01*
X182383227Y-79046067D02*
X183139479Y-79046067D01*
X183139479Y-79046067D02*
X183526524Y-78659022D01*
%TO.N,/G2*%
X183203933Y-74796067D02*
X183500000Y-74500000D01*
X168130000Y-71975000D02*
X169776112Y-71975000D01*
X169776112Y-71975000D02*
X169942705Y-72141593D01*
X182383227Y-74796067D02*
X183203933Y-74796067D01*
%TO.N,/B*%
X183153933Y-77346067D02*
X183500000Y-77000000D01*
X169478075Y-77173396D02*
X168130000Y-77173396D01*
X182383227Y-77346067D02*
X183153933Y-77346067D01*
X170178075Y-76473396D02*
X169478075Y-77173396D01*
X170324264Y-76473396D02*
X170178075Y-76473396D01*
%TO.N,Net-(U1-B8)*%
X175500000Y-85535190D02*
X176964810Y-87000000D01*
X175500000Y-83212908D02*
X175500000Y-85535190D01*
X175014810Y-82727718D02*
X175500000Y-83212908D01*
X174723396Y-81723396D02*
X175014810Y-82014810D01*
X173870000Y-81723396D02*
X174723396Y-81723396D01*
X175014810Y-82014810D02*
X175014810Y-82727718D01*
%TO.N,Net-(U1-B3)*%
X173870000Y-78473396D02*
X176058206Y-78473396D01*
X176058206Y-78473396D02*
X176964810Y-79380000D01*
%TO.N,Net-(U1-B6)*%
X175814810Y-81335686D02*
X175814810Y-82396346D01*
X175814810Y-82396346D02*
X176488464Y-83070000D01*
X178114810Y-83070000D02*
X179504810Y-84460000D01*
X173870000Y-80423396D02*
X174902520Y-80423396D01*
X176488464Y-83070000D02*
X178114810Y-83070000D01*
X174902520Y-80423396D02*
X175814810Y-81335686D01*
%TO.N,Net-(U1-B7)*%
X173870000Y-81073396D02*
X174654999Y-81073396D01*
X175414810Y-81833207D02*
X175414810Y-82562032D01*
X176964810Y-84112032D02*
X176964810Y-84460000D01*
X174654999Y-81073396D02*
X175414810Y-81833207D01*
X175414810Y-82562032D02*
X176964810Y-84112032D01*
%TO.N,Net-(U1-B4)*%
X173870000Y-79123396D02*
X175081860Y-79123396D01*
X178114810Y-80530000D02*
X179504810Y-81920000D01*
X175081860Y-79123396D02*
X176488464Y-80530000D01*
X176488464Y-80530000D02*
X178114810Y-80530000D01*
%TO.N,Net-(U1-B2)*%
X178124810Y-78000000D02*
X179504810Y-79380000D01*
X173870000Y-77823396D02*
X176323396Y-77823396D01*
X176500000Y-78000000D02*
X178124810Y-78000000D01*
X176323396Y-77823396D02*
X176500000Y-78000000D01*
%TO.N,Net-(U1-B5)*%
X173870000Y-79773396D02*
X174818206Y-79773396D01*
X174818206Y-79773396D02*
X176964810Y-81920000D01*
%TO.N,Net-(U2-B2)*%
X176785000Y-76840000D02*
X176964810Y-76840000D01*
X173870000Y-73925000D02*
X176785000Y-76840000D01*
%TO.N,Net-(U2-G1)*%
X173870000Y-71325000D02*
X175773464Y-71325000D01*
X176598464Y-70500000D02*
X178224810Y-70500000D01*
X175773464Y-71325000D02*
X176598464Y-70500000D01*
X178224810Y-70500000D02*
X179504810Y-69220000D01*
%TO.N,Net-(U2-B1)*%
X176749810Y-71975000D02*
X176964810Y-71760000D01*
X173870000Y-71975000D02*
X176749810Y-71975000D01*
%TO.N,Net-(U2-R2)*%
X175939810Y-73275000D02*
X176964810Y-74300000D01*
X173870000Y-73275000D02*
X175939810Y-73275000D01*
%TO.N,Net-(U2-G2)*%
X176578464Y-73000000D02*
X178204810Y-73000000D01*
X173870000Y-72625000D02*
X176203464Y-72625000D01*
X178204810Y-73000000D02*
X179504810Y-74300000D01*
X176203464Y-72625000D02*
X176578464Y-73000000D01*
%TO.N,Net-(U2-R1)*%
X176725000Y-68725000D02*
X177000000Y-69000000D01*
X173870000Y-70675000D02*
X175509810Y-70675000D01*
X175509810Y-70675000D02*
X176964810Y-69220000D01*
%TO.N,/D-*%
X172880000Y-87822570D02*
X172930000Y-87872570D01*
X172930000Y-87872570D02*
X173750000Y-87872570D01*
X172880000Y-86922570D02*
X172880000Y-87822570D01*
X173750000Y-86872570D02*
X172930000Y-86872570D01*
X172930000Y-86872570D02*
X172880000Y-86922570D01*
%TO.N,/D+*%
X181741471Y-85610000D02*
X182751471Y-84600000D01*
X182751471Y-84600000D02*
X188999943Y-84600000D01*
X174681505Y-88211065D02*
X177380091Y-88211065D01*
X174681505Y-87484075D02*
X174681505Y-88211065D01*
X188999943Y-84600000D02*
X189851000Y-83748943D01*
X189851000Y-83251057D02*
X190233227Y-82868830D01*
X174520000Y-88372570D02*
X173750000Y-88372570D01*
X178114810Y-86523654D02*
X179028464Y-85610000D01*
X174681505Y-88211065D02*
X174520000Y-88372570D01*
X174570000Y-87372570D02*
X174681505Y-87484075D01*
X173750000Y-87372570D02*
X174570000Y-87372570D01*
X179028464Y-85610000D02*
X181741471Y-85610000D01*
X177380091Y-88211065D02*
X178114810Y-87476346D01*
X178114810Y-87476346D02*
X178114810Y-86523654D01*
X189851000Y-83748943D02*
X189851000Y-83251057D01*
X190233227Y-82868830D02*
X190233227Y-81796067D01*
%TO.N,/D-*%
X172894426Y-87872570D02*
X173750000Y-87872570D01*
X172100000Y-88000000D02*
X172766996Y-88000000D01*
X172766996Y-88000000D02*
X172894426Y-87872570D01*
X189250000Y-81929294D02*
X189383227Y-81796067D01*
X189250000Y-83500000D02*
X189250000Y-81929294D01*
%TD*%
%TA.AperFunction,Conductor*%
%TO.N,GND*%
G36*
X171043333Y-73911811D02*
G01*
X171087680Y-73940312D01*
X172577233Y-75429865D01*
X172610718Y-75491188D01*
X172605734Y-75560880D01*
X172604908Y-75563033D01*
X172595147Y-75587784D01*
X172594316Y-75594709D01*
X172584500Y-75676452D01*
X172584500Y-76070340D01*
X172589791Y-76114398D01*
X172595148Y-76159008D01*
X172597095Y-76166710D01*
X172594262Y-76167426D01*
X172599286Y-76223197D01*
X172597257Y-76230110D01*
X172597586Y-76230194D01*
X172595638Y-76237900D01*
X172585973Y-76318396D01*
X172603070Y-76318396D01*
X172603490Y-76318519D01*
X172603912Y-76318399D01*
X172637034Y-76328369D01*
X172670109Y-76338081D01*
X172670535Y-76338453D01*
X172670817Y-76338538D01*
X172673533Y-76341069D01*
X172697332Y-76361832D01*
X172699688Y-76364589D01*
X172742436Y-76420960D01*
X172757871Y-76432665D01*
X172766561Y-76442832D01*
X172775609Y-76463005D01*
X172788749Y-76480789D01*
X172789628Y-76494262D01*
X172795154Y-76506583D01*
X172791858Y-76528448D01*
X172793298Y-76550510D01*
X172786753Y-76562319D01*
X172784741Y-76575673D01*
X172770147Y-76592285D01*
X172759431Y-76611623D01*
X172747228Y-76622197D01*
X172742436Y-76625830D01*
X172701874Y-76679321D01*
X172645682Y-76720844D01*
X172603070Y-76728396D01*
X172585973Y-76728396D01*
X172595638Y-76808894D01*
X172597586Y-76816600D01*
X172594394Y-76817406D01*
X172599271Y-76871907D01*
X172596886Y-76880024D01*
X172597095Y-76880077D01*
X172595148Y-76887776D01*
X172591140Y-76921155D01*
X172584500Y-76976452D01*
X172584500Y-77370340D01*
X172588453Y-77403254D01*
X172595148Y-77459013D01*
X172597095Y-77466713D01*
X172594068Y-77467478D01*
X172599008Y-77522566D01*
X172596822Y-77530010D01*
X172597095Y-77530079D01*
X172595148Y-77537778D01*
X172594153Y-77546066D01*
X172584500Y-77626452D01*
X172584500Y-78020340D01*
X172591276Y-78076765D01*
X172595148Y-78109013D01*
X172597095Y-78116713D01*
X172594068Y-78117478D01*
X172599008Y-78172566D01*
X172596822Y-78180010D01*
X172597095Y-78180079D01*
X172595148Y-78187778D01*
X172592666Y-78208452D01*
X172584500Y-78276452D01*
X172584500Y-78670340D01*
X172589052Y-78708244D01*
X172595148Y-78759013D01*
X172597095Y-78766713D01*
X172594068Y-78767478D01*
X172599008Y-78822566D01*
X172596822Y-78830010D01*
X172597095Y-78830079D01*
X172595148Y-78837778D01*
X172590308Y-78878087D01*
X172584500Y-78926452D01*
X172584500Y-79320340D01*
X172588488Y-79353550D01*
X172595148Y-79409013D01*
X172597095Y-79416713D01*
X172594068Y-79417478D01*
X172599008Y-79472566D01*
X172596822Y-79480010D01*
X172597095Y-79480079D01*
X172595148Y-79487778D01*
X172593990Y-79497425D01*
X172584500Y-79576452D01*
X172584500Y-79970340D01*
X172591276Y-80026765D01*
X172595148Y-80059013D01*
X172597095Y-80066713D01*
X172594068Y-80067478D01*
X172599008Y-80122566D01*
X172596822Y-80130010D01*
X172597095Y-80130079D01*
X172595148Y-80137778D01*
X172594408Y-80143943D01*
X172584500Y-80226452D01*
X172584500Y-80620340D01*
X172588062Y-80650000D01*
X172595148Y-80709013D01*
X172597095Y-80716713D01*
X172594068Y-80717478D01*
X172599008Y-80772566D01*
X172596822Y-80780010D01*
X172597095Y-80780079D01*
X172595148Y-80787778D01*
X172590308Y-80828087D01*
X172584500Y-80876452D01*
X172584500Y-81270340D01*
X172586691Y-81288583D01*
X172595148Y-81359013D01*
X172597095Y-81366713D01*
X172594068Y-81367478D01*
X172599008Y-81422566D01*
X172596822Y-81430010D01*
X172597095Y-81430079D01*
X172595148Y-81437778D01*
X172594093Y-81446566D01*
X172584500Y-81526452D01*
X172584500Y-81920340D01*
X172590092Y-81966907D01*
X172595147Y-82009007D01*
X172650791Y-82150110D01*
X172654946Y-82157499D01*
X172653381Y-82158378D01*
X172674504Y-82213957D01*
X172660075Y-82282321D01*
X172610977Y-82332032D01*
X172550877Y-82347570D01*
X172526430Y-82347570D01*
X172342902Y-82384076D01*
X172342894Y-82384078D01*
X172170008Y-82455689D01*
X172169999Y-82455694D01*
X172014410Y-82559656D01*
X172014406Y-82559659D01*
X171882089Y-82691976D01*
X171882086Y-82691980D01*
X171778124Y-82847569D01*
X171778119Y-82847578D01*
X171706507Y-83020466D01*
X171706506Y-83020469D01*
X171701115Y-83047569D01*
X171701116Y-83047570D01*
X172453012Y-83047570D01*
X172435795Y-83057510D01*
X172379940Y-83113365D01*
X172340444Y-83181774D01*
X172320000Y-83258074D01*
X172320000Y-83337066D01*
X172340444Y-83413366D01*
X172379940Y-83481775D01*
X172435795Y-83537630D01*
X172453012Y-83547570D01*
X171701116Y-83547570D01*
X171706506Y-83574670D01*
X171706507Y-83574673D01*
X171778119Y-83747561D01*
X171778124Y-83747570D01*
X171882086Y-83903159D01*
X171882089Y-83903163D01*
X172014406Y-84035480D01*
X172014410Y-84035483D01*
X172169999Y-84139445D01*
X172170003Y-84139447D01*
X172228073Y-84163500D01*
X172282476Y-84207341D01*
X172304542Y-84273635D01*
X172287263Y-84341334D01*
X172268304Y-84365742D01*
X172239488Y-84394558D01*
X172167017Y-84520081D01*
X172167016Y-84520085D01*
X172129500Y-84660095D01*
X172129500Y-84805045D01*
X172140791Y-84847182D01*
X172167017Y-84945058D01*
X172225110Y-85045678D01*
X172231675Y-85072739D01*
X172241407Y-85098831D01*
X172239798Y-85106223D01*
X172241583Y-85113578D01*
X172232475Y-85139892D01*
X172226556Y-85167104D01*
X172220047Y-85175798D01*
X172218730Y-85179605D01*
X172205405Y-85195359D01*
X172066013Y-85334751D01*
X172004693Y-85368235D01*
X171978334Y-85371069D01*
X171947959Y-85371069D01*
X171844482Y-85398796D01*
X171795226Y-85411994D01*
X171795225Y-85411995D01*
X171745112Y-85440929D01*
X171745111Y-85440930D01*
X171701705Y-85465990D01*
X171658301Y-85491049D01*
X171658298Y-85491051D01*
X170618481Y-86530868D01*
X170618477Y-86530873D01*
X170569858Y-86615086D01*
X170569857Y-86615085D01*
X170539424Y-86667797D01*
X170539423Y-86667801D01*
X170498499Y-86820529D01*
X170498499Y-86820531D01*
X170498499Y-86988632D01*
X170498500Y-86988645D01*
X170498500Y-88579430D01*
X170498499Y-88579448D01*
X170498499Y-88745154D01*
X170498498Y-88745154D01*
X170539424Y-88897889D01*
X170539425Y-88897890D01*
X170561388Y-88935930D01*
X170561389Y-88935932D01*
X170618475Y-89034809D01*
X170618481Y-89034817D01*
X170737349Y-89153685D01*
X170737354Y-89153689D01*
X171465184Y-89881520D01*
X171465186Y-89881521D01*
X171465190Y-89881524D01*
X171557382Y-89934750D01*
X171602116Y-89960577D01*
X171754843Y-90001501D01*
X171754845Y-90001501D01*
X171865831Y-90001501D01*
X171932870Y-90021186D01*
X171937168Y-90024076D01*
X171945932Y-90030240D01*
X171997212Y-90081520D01*
X172117932Y-90151217D01*
X172122466Y-90154406D01*
X172140906Y-90177576D01*
X172161344Y-90199010D01*
X172162423Y-90204611D01*
X172165976Y-90209075D01*
X172168962Y-90238536D01*
X172174568Y-90267617D01*
X172172680Y-90275205D01*
X172173023Y-90278588D01*
X172170702Y-90283153D01*
X172168485Y-90292065D01*
X172169120Y-90292235D01*
X172167017Y-90300083D01*
X172167016Y-90300085D01*
X172129500Y-90440095D01*
X172129500Y-90585045D01*
X172167016Y-90725055D01*
X172167017Y-90725058D01*
X172239488Y-90850581D01*
X172239493Y-90850587D01*
X172268302Y-90879396D01*
X172301787Y-90940719D01*
X172296803Y-91010411D01*
X172254931Y-91066344D01*
X172228074Y-91081638D01*
X172170009Y-91105689D01*
X172169999Y-91105694D01*
X172014410Y-91209656D01*
X172014406Y-91209659D01*
X171882089Y-91341976D01*
X171882086Y-91341980D01*
X171778124Y-91497569D01*
X171778119Y-91497578D01*
X171706507Y-91670466D01*
X171706506Y-91670469D01*
X171701115Y-91697569D01*
X171701116Y-91697570D01*
X172453012Y-91697570D01*
X172435795Y-91707510D01*
X172379940Y-91763365D01*
X172340444Y-91831774D01*
X172320000Y-91908074D01*
X172320000Y-91987066D01*
X172340444Y-92063366D01*
X172379940Y-92131775D01*
X172435795Y-92187630D01*
X172453012Y-92197570D01*
X171701116Y-92197570D01*
X171706506Y-92224670D01*
X171706507Y-92224673D01*
X171778119Y-92397561D01*
X171778124Y-92397570D01*
X171882086Y-92553159D01*
X171882089Y-92553163D01*
X172014406Y-92685480D01*
X172014410Y-92685483D01*
X172169999Y-92789445D01*
X172170012Y-92789452D01*
X172213048Y-92807278D01*
X172267452Y-92851119D01*
X172289517Y-92917413D01*
X172272238Y-92985112D01*
X172221101Y-93032723D01*
X172165596Y-93045839D01*
X169854404Y-93045839D01*
X169787365Y-93026154D01*
X169741610Y-92973350D01*
X169731666Y-92904192D01*
X169760691Y-92840636D01*
X169806952Y-92807278D01*
X169849987Y-92789452D01*
X169850000Y-92789445D01*
X170005589Y-92685483D01*
X170005593Y-92685480D01*
X170137910Y-92553163D01*
X170137913Y-92553159D01*
X170241875Y-92397570D01*
X170241880Y-92397561D01*
X170313492Y-92224673D01*
X170313493Y-92224670D01*
X170318884Y-92197570D01*
X169566988Y-92197570D01*
X169584205Y-92187630D01*
X169640060Y-92131775D01*
X169679556Y-92063366D01*
X169700000Y-91987066D01*
X169700000Y-91908074D01*
X169679556Y-91831774D01*
X169640060Y-91763365D01*
X169584205Y-91707510D01*
X169566988Y-91697570D01*
X170318884Y-91697570D01*
X170318884Y-91697569D01*
X170313493Y-91670469D01*
X170313492Y-91670466D01*
X170241880Y-91497578D01*
X170241875Y-91497569D01*
X170137913Y-91341980D01*
X170137910Y-91341976D01*
X170005593Y-91209659D01*
X170005589Y-91209656D01*
X169850000Y-91105694D01*
X169849991Y-91105689D01*
X169677105Y-91034078D01*
X169677097Y-91034076D01*
X169493570Y-90997570D01*
X169250000Y-90997570D01*
X169250000Y-91647570D01*
X168750000Y-91647570D01*
X168750000Y-90997570D01*
X168506430Y-90997570D01*
X168322902Y-91034076D01*
X168322894Y-91034078D01*
X168150008Y-91105689D01*
X168149999Y-91105694D01*
X167994410Y-91209656D01*
X167994406Y-91209659D01*
X167862089Y-91341976D01*
X167862086Y-91341980D01*
X167758124Y-91497569D01*
X167758119Y-91497578D01*
X167686507Y-91670466D01*
X167686506Y-91670469D01*
X167681115Y-91697569D01*
X167681116Y-91697570D01*
X168433012Y-91697570D01*
X168415795Y-91707510D01*
X168359940Y-91763365D01*
X168320444Y-91831774D01*
X168300000Y-91908074D01*
X168300000Y-91987066D01*
X168320444Y-92063366D01*
X168359940Y-92131775D01*
X168415795Y-92187630D01*
X168433012Y-92197570D01*
X167681116Y-92197570D01*
X167686506Y-92224670D01*
X167686507Y-92224673D01*
X167758119Y-92397561D01*
X167758124Y-92397570D01*
X167862086Y-92553159D01*
X167862089Y-92553163D01*
X167994406Y-92685480D01*
X167994410Y-92685483D01*
X168149999Y-92789445D01*
X168150012Y-92789452D01*
X168193048Y-92807278D01*
X168247452Y-92851119D01*
X168269517Y-92917413D01*
X168252238Y-92985112D01*
X168201101Y-93032723D01*
X168145596Y-93045839D01*
X167360834Y-93045839D01*
X167293795Y-93026154D01*
X167248040Y-92973350D01*
X167236834Y-92921839D01*
X167236834Y-82552396D01*
X167256519Y-82485357D01*
X167309323Y-82439602D01*
X167360834Y-82428396D01*
X167826308Y-82428396D01*
X167893347Y-82448081D01*
X167939102Y-82500885D01*
X167949046Y-82570043D01*
X167920021Y-82633599D01*
X167913989Y-82640077D01*
X167862089Y-82691976D01*
X167862086Y-82691980D01*
X167758124Y-82847569D01*
X167758119Y-82847578D01*
X167686507Y-83020466D01*
X167686506Y-83020469D01*
X167681115Y-83047569D01*
X167681116Y-83047570D01*
X168433012Y-83047570D01*
X168415795Y-83057510D01*
X168359940Y-83113365D01*
X168320444Y-83181774D01*
X168300000Y-83258074D01*
X168300000Y-83337066D01*
X168320444Y-83413366D01*
X168359940Y-83481775D01*
X168415795Y-83537630D01*
X168433012Y-83547570D01*
X167681116Y-83547570D01*
X167686506Y-83574670D01*
X167686507Y-83574673D01*
X167758119Y-83747561D01*
X167758124Y-83747570D01*
X167862086Y-83903159D01*
X167862089Y-83903163D01*
X167994406Y-84035480D01*
X167994410Y-84035483D01*
X168149999Y-84139445D01*
X168150008Y-84139450D01*
X168322894Y-84211061D01*
X168322902Y-84211063D01*
X168506428Y-84247569D01*
X168506431Y-84247570D01*
X168750000Y-84247570D01*
X168750000Y-83597570D01*
X169250000Y-83597570D01*
X169250000Y-84247570D01*
X169493569Y-84247570D01*
X169493571Y-84247569D01*
X169677097Y-84211063D01*
X169677105Y-84211061D01*
X169849991Y-84139450D01*
X169850000Y-84139445D01*
X170005589Y-84035483D01*
X170005593Y-84035480D01*
X170137910Y-83903163D01*
X170137913Y-83903159D01*
X170241875Y-83747570D01*
X170241880Y-83747561D01*
X170313492Y-83574673D01*
X170313493Y-83574670D01*
X170318884Y-83547570D01*
X169566988Y-83547570D01*
X169584205Y-83537630D01*
X169640060Y-83481775D01*
X169679556Y-83413366D01*
X169700000Y-83337066D01*
X169700000Y-83258074D01*
X169679556Y-83181774D01*
X169640060Y-83113365D01*
X169584205Y-83057510D01*
X169566988Y-83047570D01*
X170318884Y-83047570D01*
X170318884Y-83047569D01*
X170313493Y-83020469D01*
X170313492Y-83020466D01*
X170241880Y-82847578D01*
X170241875Y-82847569D01*
X170137913Y-82691980D01*
X170137910Y-82691976D01*
X170005593Y-82559659D01*
X170005589Y-82559656D01*
X169850000Y-82455694D01*
X169849986Y-82455686D01*
X169843850Y-82453145D01*
X169789448Y-82409302D01*
X169767386Y-82343007D01*
X169784668Y-82275308D01*
X169835807Y-82227700D01*
X169843839Y-82224031D01*
X169879179Y-82209394D01*
X170010289Y-82121789D01*
X170099645Y-82032432D01*
X170160966Y-81998948D01*
X170211521Y-81998498D01*
X170221226Y-82000429D01*
X170221229Y-82000429D01*
X170378915Y-82000429D01*
X170378916Y-82000428D01*
X170533568Y-81969666D01*
X170652669Y-81920333D01*
X170679243Y-81909326D01*
X170679243Y-81909325D01*
X170679250Y-81909323D01*
X170810360Y-81821718D01*
X170921860Y-81710218D01*
X171009465Y-81579108D01*
X171069808Y-81433426D01*
X171100571Y-81278771D01*
X171100571Y-81121087D01*
X171100571Y-81121084D01*
X171100570Y-81121082D01*
X171087137Y-81053550D01*
X171069808Y-80966432D01*
X171063942Y-80952271D01*
X171009468Y-80820756D01*
X171009461Y-80820743D01*
X170921860Y-80689640D01*
X170921857Y-80689636D01*
X170810363Y-80578142D01*
X170810359Y-80578139D01*
X170742230Y-80532616D01*
X170697425Y-80479003D01*
X170688718Y-80409678D01*
X170696558Y-80382065D01*
X170746473Y-80261561D01*
X170777236Y-80106906D01*
X170777236Y-79949222D01*
X170777236Y-79949219D01*
X170777235Y-79949217D01*
X170746474Y-79794574D01*
X170746473Y-79794567D01*
X170701056Y-79684921D01*
X170693588Y-79615455D01*
X170704299Y-79584662D01*
X170703990Y-79584534D01*
X170706203Y-79579189D01*
X170706270Y-79578999D01*
X170706316Y-79578911D01*
X170706321Y-79578905D01*
X170733041Y-79514398D01*
X170750368Y-79472566D01*
X170766664Y-79433223D01*
X170797427Y-79278568D01*
X170797427Y-79120884D01*
X170797427Y-79120881D01*
X170797426Y-79120879D01*
X170766665Y-78966236D01*
X170766664Y-78966229D01*
X170766662Y-78966224D01*
X170706323Y-78820551D01*
X170703452Y-78815180D01*
X170705709Y-78813973D01*
X170688143Y-78757976D01*
X170697560Y-78708247D01*
X170753988Y-78572018D01*
X170784751Y-78417363D01*
X170784751Y-78335677D01*
X170804436Y-78268638D01*
X170830096Y-78239816D01*
X170834547Y-78236162D01*
X170834553Y-78236159D01*
X170946053Y-78124659D01*
X171033658Y-77993549D01*
X171094001Y-77847867D01*
X171124764Y-77693212D01*
X171124764Y-77535528D01*
X171124764Y-77535525D01*
X171124763Y-77535523D01*
X171094002Y-77380880D01*
X171094001Y-77380873D01*
X171081737Y-77351264D01*
X171033661Y-77235197D01*
X171033659Y-77235193D01*
X171033658Y-77235191D01*
X170951860Y-77112772D01*
X170930983Y-77046097D01*
X170949467Y-76978717D01*
X170951861Y-76974992D01*
X171033658Y-76852575D01*
X171094001Y-76706893D01*
X171124764Y-76552238D01*
X171124764Y-76394554D01*
X171124764Y-76394551D01*
X171124763Y-76394549D01*
X171120452Y-76372878D01*
X171094001Y-76239899D01*
X171085021Y-76218219D01*
X171033661Y-76094223D01*
X171033654Y-76094210D01*
X170946053Y-75963107D01*
X170946050Y-75963103D01*
X170834556Y-75851609D01*
X170834552Y-75851606D01*
X170703449Y-75764005D01*
X170703436Y-75763998D01*
X170557765Y-75703660D01*
X170557753Y-75703657D01*
X170403109Y-75672896D01*
X170403106Y-75672896D01*
X170245422Y-75672896D01*
X170245419Y-75672896D01*
X170090774Y-75703657D01*
X170090762Y-75703660D01*
X169945091Y-75763998D01*
X169945078Y-75764005D01*
X169813975Y-75851606D01*
X169813971Y-75851609D01*
X169702477Y-75963103D01*
X169702474Y-75963107D01*
X169642602Y-76052712D01*
X169588990Y-76097517D01*
X169519665Y-76106224D01*
X169456637Y-76076069D01*
X169419918Y-76016626D01*
X169415500Y-75983821D01*
X169415500Y-75676458D01*
X169415500Y-75676452D01*
X169404852Y-75587783D01*
X169400889Y-75577733D01*
X169395093Y-75563035D01*
X169388811Y-75493448D01*
X169421148Y-75431512D01*
X169422709Y-75429921D01*
X170482218Y-74370414D01*
X170482218Y-74370412D01*
X170492422Y-74360209D01*
X170492426Y-74360204D01*
X170912318Y-73940312D01*
X170973641Y-73906827D01*
X171043333Y-73911811D01*
G37*
%TD.AperFunction*%
%TA.AperFunction,Conductor*%
G36*
X174756731Y-91643776D02*
G01*
X174777253Y-91643227D01*
X174791265Y-91651289D01*
X174804945Y-91654265D01*
X174833199Y-91675416D01*
X174908097Y-91750314D01*
X174941582Y-91811637D01*
X174941660Y-91857521D01*
X174942279Y-91857585D01*
X174941670Y-91863542D01*
X174941671Y-91863940D01*
X174941592Y-91864308D01*
X174931090Y-91967099D01*
X174931090Y-92667117D01*
X174931091Y-92667135D01*
X174941590Y-92769912D01*
X174941591Y-92769915D01*
X174954313Y-92808306D01*
X174969325Y-92853610D01*
X174979010Y-92882835D01*
X174981412Y-92952663D01*
X174945680Y-93012705D01*
X174883160Y-93043898D01*
X174861304Y-93045839D01*
X174174404Y-93045839D01*
X174107365Y-93026154D01*
X174061610Y-92973350D01*
X174051666Y-92904192D01*
X174080691Y-92840636D01*
X174126952Y-92807278D01*
X174169987Y-92789452D01*
X174170000Y-92789445D01*
X174325589Y-92685483D01*
X174325593Y-92685480D01*
X174457910Y-92553163D01*
X174457913Y-92553159D01*
X174561875Y-92397570D01*
X174561880Y-92397561D01*
X174633492Y-92224673D01*
X174633493Y-92224670D01*
X174638884Y-92197570D01*
X173886988Y-92197570D01*
X173904205Y-92187630D01*
X173960060Y-92131775D01*
X173999556Y-92063366D01*
X174020000Y-91987066D01*
X174020000Y-91908074D01*
X173999556Y-91831774D01*
X173960060Y-91763365D01*
X173904205Y-91707510D01*
X173886988Y-91697570D01*
X174638883Y-91697570D01*
X174649663Y-91684434D01*
X174662152Y-91675926D01*
X174671208Y-91663830D01*
X174690441Y-91656656D01*
X174707409Y-91645098D01*
X174722514Y-91644693D01*
X174736672Y-91639413D01*
X174756731Y-91643776D01*
G37*
%TD.AperFunction*%
%TA.AperFunction,Conductor*%
G36*
X195425766Y-69466252D02*
G01*
X195471521Y-69519056D01*
X195482727Y-69570567D01*
X195482727Y-69932493D01*
X195482727Y-69932497D01*
X195482728Y-69943939D01*
X195489136Y-70003550D01*
X195519670Y-70085417D01*
X195521421Y-70092663D01*
X195520071Y-70120422D01*
X195522054Y-70148141D01*
X195518064Y-70161730D01*
X195518029Y-70162451D01*
X195517729Y-70162871D01*
X195517071Y-70165113D01*
X195489629Y-70238690D01*
X195489628Y-70238694D01*
X195483227Y-70298222D01*
X195483227Y-70346067D01*
X195735158Y-70346067D01*
X195778490Y-70353884D01*
X195875744Y-70390158D01*
X195935354Y-70396567D01*
X196259229Y-70396566D01*
X196326266Y-70416250D01*
X196333468Y-70421247D01*
X196533468Y-70570748D01*
X196551904Y-70595340D01*
X196572021Y-70618556D01*
X196573129Y-70623652D01*
X196575379Y-70626653D01*
X196576172Y-70637639D01*
X196583227Y-70670067D01*
X196583227Y-71272067D01*
X196563542Y-71339106D01*
X196510738Y-71384861D01*
X196459227Y-71396067D01*
X196383227Y-71396067D01*
X196383227Y-71421567D01*
X196363542Y-71488606D01*
X196310738Y-71534361D01*
X196259227Y-71545567D01*
X195935357Y-71545567D01*
X195935350Y-71545568D01*
X195875743Y-71551975D01*
X195778491Y-71588249D01*
X195735158Y-71596067D01*
X195483227Y-71596067D01*
X195483227Y-71643911D01*
X195489628Y-71703439D01*
X195489630Y-71703446D01*
X195517071Y-71777019D01*
X195522055Y-71846710D01*
X195517071Y-71863685D01*
X195496254Y-71919500D01*
X195489136Y-71938584D01*
X195482727Y-71998194D01*
X195482727Y-71998201D01*
X195482727Y-71998202D01*
X195482727Y-72493937D01*
X195482728Y-72493943D01*
X195489135Y-72553550D01*
X195516804Y-72627734D01*
X195521788Y-72697425D01*
X195516804Y-72714398D01*
X195489137Y-72788578D01*
X195489136Y-72788582D01*
X195489136Y-72788584D01*
X195482727Y-72848194D01*
X195482727Y-72848201D01*
X195482727Y-72848202D01*
X195482727Y-73343937D01*
X195482728Y-73343943D01*
X195489135Y-73403550D01*
X195516804Y-73477734D01*
X195521788Y-73547425D01*
X195516804Y-73564398D01*
X195489137Y-73638578D01*
X195489136Y-73638582D01*
X195489136Y-73638584D01*
X195482727Y-73698194D01*
X195482727Y-73698201D01*
X195482727Y-73698202D01*
X195482727Y-74193937D01*
X195482728Y-74193943D01*
X195489135Y-74253550D01*
X195516804Y-74327734D01*
X195521788Y-74397425D01*
X195516804Y-74414398D01*
X195489137Y-74488578D01*
X195489136Y-74488582D01*
X195489136Y-74488584D01*
X195482727Y-74548194D01*
X195482727Y-74548201D01*
X195482727Y-74548202D01*
X195482727Y-75043937D01*
X195482728Y-75043943D01*
X195489135Y-75103550D01*
X195516804Y-75177734D01*
X195521788Y-75247425D01*
X195516804Y-75264398D01*
X195489137Y-75338578D01*
X195489136Y-75338582D01*
X195489136Y-75338584D01*
X195482727Y-75398194D01*
X195482727Y-75398201D01*
X195482727Y-75398202D01*
X195482727Y-75893937D01*
X195482728Y-75893943D01*
X195489135Y-75953550D01*
X195516804Y-76027734D01*
X195521788Y-76097425D01*
X195516804Y-76114398D01*
X195489137Y-76188578D01*
X195489136Y-76188582D01*
X195489136Y-76188584D01*
X195482727Y-76248194D01*
X195482727Y-76248201D01*
X195482727Y-76248202D01*
X195482727Y-76743937D01*
X195482728Y-76743943D01*
X195489135Y-76803550D01*
X195516804Y-76877734D01*
X195521788Y-76947425D01*
X195516804Y-76964398D01*
X195489137Y-77038578D01*
X195489136Y-77038582D01*
X195489136Y-77038584D01*
X195482727Y-77098194D01*
X195482727Y-77098201D01*
X195482727Y-77098202D01*
X195482727Y-77593937D01*
X195482728Y-77593943D01*
X195489135Y-77653550D01*
X195516804Y-77727734D01*
X195521788Y-77797425D01*
X195516804Y-77814398D01*
X195489137Y-77888578D01*
X195489136Y-77888582D01*
X195489136Y-77888584D01*
X195482727Y-77948194D01*
X195482727Y-77948201D01*
X195482727Y-77948202D01*
X195482727Y-78443937D01*
X195482728Y-78443943D01*
X195489135Y-78503550D01*
X195516804Y-78577734D01*
X195521788Y-78647425D01*
X195516804Y-78664398D01*
X195489137Y-78738578D01*
X195489136Y-78738582D01*
X195489136Y-78738584D01*
X195482727Y-78798194D01*
X195482727Y-78798201D01*
X195482727Y-78798202D01*
X195482727Y-79293937D01*
X195482728Y-79293943D01*
X195489135Y-79353550D01*
X195516804Y-79427734D01*
X195521788Y-79497425D01*
X195516804Y-79514398D01*
X195489137Y-79588578D01*
X195489136Y-79588582D01*
X195489136Y-79588584D01*
X195482727Y-79648194D01*
X195482727Y-79648201D01*
X195482727Y-79648202D01*
X195482727Y-80143937D01*
X195482728Y-80143943D01*
X195489135Y-80203550D01*
X195516804Y-80277734D01*
X195521788Y-80347425D01*
X195516804Y-80364398D01*
X195489137Y-80438578D01*
X195489136Y-80438582D01*
X195489136Y-80438584D01*
X195482727Y-80498194D01*
X195482727Y-80498201D01*
X195482727Y-80498202D01*
X195482727Y-80993937D01*
X195482728Y-80993943D01*
X195489135Y-81053548D01*
X195489136Y-81053550D01*
X195525409Y-81150803D01*
X195526409Y-81164794D01*
X195532120Y-81177606D01*
X195533227Y-81194135D01*
X195533227Y-81546067D01*
X196259227Y-81546067D01*
X196326266Y-81565752D01*
X196372021Y-81618556D01*
X196383227Y-81670067D01*
X196383227Y-81796067D01*
X196509227Y-81796067D01*
X196576266Y-81815752D01*
X196622021Y-81868556D01*
X196633227Y-81920067D01*
X196633227Y-82696067D01*
X196831055Y-82696067D01*
X196831071Y-82696066D01*
X196890599Y-82689665D01*
X196890606Y-82689663D01*
X196974474Y-82658383D01*
X197044165Y-82653399D01*
X197105488Y-82686884D01*
X197138973Y-82748207D01*
X197141807Y-82774565D01*
X197141807Y-92921839D01*
X197122122Y-92988878D01*
X197069318Y-93034633D01*
X197017807Y-93045839D01*
X187722582Y-93045839D01*
X187655543Y-93026154D01*
X187609788Y-92973350D01*
X187599844Y-92904192D01*
X187620710Y-92853813D01*
X187620338Y-92853610D01*
X187622230Y-92850143D01*
X187623313Y-92847531D01*
X187624586Y-92845829D01*
X187624589Y-92845824D01*
X187674831Y-92711117D01*
X187674833Y-92711110D01*
X187681234Y-92651582D01*
X187681235Y-92651565D01*
X187681235Y-92178738D01*
X184881235Y-92178738D01*
X184881235Y-92651582D01*
X184887636Y-92711110D01*
X184887638Y-92711117D01*
X184937880Y-92845824D01*
X184937883Y-92845829D01*
X184939157Y-92847531D01*
X184939899Y-92849520D01*
X184942132Y-92853610D01*
X184941543Y-92853931D01*
X184963572Y-92912996D01*
X184948719Y-92981269D01*
X184899312Y-93030673D01*
X184839888Y-93045839D01*
X182561978Y-93045839D01*
X182494939Y-93026154D01*
X182449184Y-92973350D01*
X182439240Y-92904192D01*
X182468265Y-92840636D01*
X182498857Y-92815107D01*
X182528055Y-92797839D01*
X182551865Y-92783758D01*
X182566057Y-92769565D01*
X182627378Y-92736079D01*
X182697070Y-92741062D01*
X182701188Y-92742682D01*
X182766503Y-92769737D01*
X182818964Y-92780172D01*
X182907777Y-92797839D01*
X182907780Y-92797839D01*
X182921158Y-92800500D01*
X183078842Y-92800500D01*
X183092220Y-92797839D01*
X183092223Y-92797839D01*
X183166965Y-92782970D01*
X183233497Y-92769737D01*
X183379179Y-92709394D01*
X183510289Y-92621789D01*
X183621789Y-92510289D01*
X183709394Y-92379179D01*
X183769737Y-92233497D01*
X183800500Y-92078842D01*
X183800500Y-92078837D01*
X183800581Y-92078020D01*
X183800744Y-92077614D01*
X183801689Y-92072868D01*
X183802589Y-92073047D01*
X183826744Y-92013233D01*
X183883779Y-91972876D01*
X183923984Y-91966177D01*
X184090686Y-91966177D01*
X184090694Y-91966177D01*
X184127569Y-91963275D01*
X184127571Y-91963274D01*
X184127573Y-91963274D01*
X184169191Y-91951182D01*
X184285398Y-91917421D01*
X184426865Y-91833758D01*
X184543081Y-91717542D01*
X184626744Y-91576075D01*
X184638159Y-91536784D01*
X184675765Y-91477901D01*
X184739237Y-91448694D01*
X184808424Y-91458440D01*
X184861358Y-91504044D01*
X184881234Y-91571027D01*
X184881235Y-91571381D01*
X184881235Y-91678738D01*
X187681235Y-91678738D01*
X187681235Y-91327455D01*
X187700920Y-91260416D01*
X187753724Y-91214661D01*
X187805235Y-91203455D01*
X191762115Y-91203455D01*
X191829154Y-91223140D01*
X191872599Y-91271158D01*
X191932840Y-91389388D01*
X192071666Y-91580465D01*
X192238673Y-91747472D01*
X192429750Y-91886298D01*
X192529174Y-91936957D01*
X192640186Y-91993521D01*
X192640188Y-91993521D01*
X192640191Y-91993523D01*
X192760595Y-92032644D01*
X192864814Y-92066508D01*
X193098086Y-92103455D01*
X193098091Y-92103455D01*
X193334280Y-92103455D01*
X193567551Y-92066508D01*
X193577221Y-92063366D01*
X193792175Y-91993523D01*
X194002616Y-91886298D01*
X194193693Y-91747472D01*
X194360700Y-91580465D01*
X194499526Y-91389388D01*
X194606751Y-91178947D01*
X194679736Y-90954323D01*
X194681891Y-90940719D01*
X194716683Y-90721052D01*
X194716683Y-90484857D01*
X194679736Y-90251586D01*
X194627128Y-90089677D01*
X194606751Y-90026963D01*
X194606749Y-90026960D01*
X194606749Y-90026958D01*
X194526313Y-89869095D01*
X194499526Y-89816522D01*
X194360700Y-89625445D01*
X194193693Y-89458438D01*
X194002616Y-89319612D01*
X193792179Y-89212388D01*
X193567551Y-89139401D01*
X193334280Y-89102455D01*
X193334275Y-89102455D01*
X193098091Y-89102455D01*
X193098086Y-89102455D01*
X192864814Y-89139401D01*
X192640186Y-89212388D01*
X192429749Y-89319612D01*
X192383191Y-89353439D01*
X192238673Y-89458438D01*
X192238671Y-89458440D01*
X192238670Y-89458440D01*
X192071668Y-89625442D01*
X192071668Y-89625443D01*
X192071666Y-89625445D01*
X192012045Y-89707505D01*
X191932840Y-89816521D01*
X191911265Y-89858865D01*
X191875038Y-89929966D01*
X191872600Y-89934750D01*
X191824625Y-89985546D01*
X191762115Y-90002455D01*
X184724723Y-90002455D01*
X184657684Y-89982770D01*
X184611929Y-89929966D01*
X184600723Y-89878455D01*
X184600723Y-89763050D01*
X184600723Y-89763048D01*
X184559799Y-89610320D01*
X184530502Y-89559577D01*
X184530501Y-89559575D01*
X184530501Y-89559574D01*
X184480744Y-89473392D01*
X184480740Y-89473387D01*
X184422115Y-89414762D01*
X184388630Y-89353439D01*
X184393614Y-89283747D01*
X184435486Y-89227814D01*
X184446676Y-89220348D01*
X184515377Y-89179718D01*
X184515383Y-89179714D01*
X184629714Y-89065383D01*
X184629721Y-89065374D01*
X184712031Y-88926195D01*
X184753858Y-88782223D01*
X184791464Y-88723337D01*
X184854936Y-88694130D01*
X184924123Y-88703876D01*
X184972201Y-88742506D01*
X185023687Y-88811282D01*
X185023690Y-88811285D01*
X185138899Y-88897531D01*
X185138906Y-88897535D01*
X185273752Y-88947829D01*
X185273751Y-88947829D01*
X185280679Y-88948573D01*
X185333362Y-88954238D01*
X187229107Y-88954237D01*
X187288718Y-88947829D01*
X187423566Y-88897534D01*
X187538781Y-88811284D01*
X187625031Y-88696069D01*
X187675326Y-88561221D01*
X187681735Y-88501611D01*
X187681734Y-87055866D01*
X187675326Y-86996255D01*
X187674497Y-86988542D01*
X187676828Y-86988291D01*
X187679940Y-86930195D01*
X187684153Y-86919780D01*
X187688276Y-86910783D01*
X187709394Y-86879179D01*
X187769737Y-86733497D01*
X187800500Y-86578842D01*
X187800500Y-86421158D01*
X187800500Y-86421155D01*
X187800499Y-86421153D01*
X187780801Y-86322126D01*
X187769737Y-86266503D01*
X187753779Y-86227976D01*
X187709397Y-86120827D01*
X187709390Y-86120814D01*
X187621789Y-85989711D01*
X187621786Y-85989707D01*
X187510292Y-85878213D01*
X187510288Y-85878210D01*
X187379185Y-85790609D01*
X187379172Y-85790602D01*
X187233501Y-85730264D01*
X187233489Y-85730261D01*
X187078845Y-85699500D01*
X187078842Y-85699500D01*
X186921158Y-85699500D01*
X186921155Y-85699500D01*
X186766510Y-85730261D01*
X186766498Y-85730264D01*
X186620827Y-85790602D01*
X186620814Y-85790609D01*
X186489711Y-85878210D01*
X186489707Y-85878213D01*
X186378213Y-85989707D01*
X186378210Y-85989711D01*
X186290609Y-86120814D01*
X186290602Y-86120827D01*
X186230264Y-86266498D01*
X186230261Y-86266508D01*
X186199362Y-86421848D01*
X186190596Y-86438604D01*
X186186577Y-86457083D01*
X186167834Y-86482119D01*
X186166977Y-86483759D01*
X186165426Y-86485337D01*
X186088929Y-86561834D01*
X186027606Y-86595319D01*
X185957914Y-86590335D01*
X185913567Y-86561834D01*
X185871214Y-86519481D01*
X185871206Y-86519475D01*
X185762470Y-86456697D01*
X185762469Y-86456696D01*
X185762469Y-86456697D01*
X185734282Y-86440423D01*
X185581554Y-86399499D01*
X185423440Y-86399499D01*
X185415844Y-86399499D01*
X185415828Y-86399500D01*
X183817854Y-86399500D01*
X183750815Y-86379815D01*
X183705060Y-86327011D01*
X183695116Y-86257853D01*
X183703291Y-86228050D01*
X183721158Y-86184918D01*
X183751921Y-86030263D01*
X183751921Y-85872579D01*
X183751921Y-85872576D01*
X183751920Y-85872574D01*
X183745537Y-85840486D01*
X183721158Y-85717924D01*
X183713527Y-85699500D01*
X183660818Y-85572248D01*
X183660811Y-85572235D01*
X183647074Y-85551676D01*
X183647066Y-85551666D01*
X183602456Y-85484902D01*
X191716183Y-85484902D01*
X191716183Y-85721007D01*
X191753117Y-85954202D01*
X191826080Y-86178757D01*
X191933270Y-86389129D01*
X191993521Y-86472059D01*
X191993523Y-86472060D01*
X192615141Y-85850442D01*
X192640161Y-85910845D01*
X192711295Y-86017306D01*
X192801832Y-86107843D01*
X192908293Y-86178977D01*
X192968694Y-86203996D01*
X192347076Y-86825613D01*
X192430011Y-86885869D01*
X192640380Y-86993057D01*
X192864935Y-87066020D01*
X192864934Y-87066020D01*
X193098131Y-87102955D01*
X193334235Y-87102955D01*
X193567430Y-87066020D01*
X193791985Y-86993057D01*
X194002346Y-86885873D01*
X194002352Y-86885869D01*
X194085287Y-86825613D01*
X194085288Y-86825613D01*
X193463671Y-86203996D01*
X193524073Y-86178977D01*
X193630534Y-86107843D01*
X193721071Y-86017306D01*
X193792205Y-85910845D01*
X193817224Y-85850443D01*
X194438841Y-86472060D01*
X194438841Y-86472059D01*
X194499097Y-86389124D01*
X194499101Y-86389118D01*
X194606285Y-86178757D01*
X194679248Y-85954202D01*
X194716183Y-85721007D01*
X194716183Y-85484902D01*
X194679248Y-85251707D01*
X194606285Y-85027152D01*
X194499097Y-84816783D01*
X194438841Y-84733849D01*
X194438841Y-84733848D01*
X193817224Y-85355466D01*
X193792205Y-85295065D01*
X193721071Y-85188604D01*
X193630534Y-85098067D01*
X193524073Y-85026933D01*
X193463671Y-85001913D01*
X194085288Y-84380295D01*
X194085287Y-84380293D01*
X194002357Y-84320042D01*
X193791985Y-84212852D01*
X193567430Y-84139889D01*
X193567431Y-84139889D01*
X193334235Y-84102955D01*
X193098131Y-84102955D01*
X192864935Y-84139889D01*
X192640380Y-84212852D01*
X192430013Y-84320039D01*
X192347077Y-84380295D01*
X192968695Y-85001913D01*
X192908293Y-85026933D01*
X192801832Y-85098067D01*
X192711295Y-85188604D01*
X192640161Y-85295065D01*
X192615141Y-85355467D01*
X191993523Y-84733849D01*
X191933267Y-84816785D01*
X191826080Y-85027152D01*
X191753117Y-85251707D01*
X191716183Y-85484902D01*
X183602456Y-85484902D01*
X183573210Y-85441132D01*
X183537983Y-85405905D01*
X183532663Y-85398796D01*
X183523434Y-85374041D01*
X183510775Y-85350858D01*
X183511421Y-85341819D01*
X183508256Y-85333329D01*
X183513874Y-85307518D01*
X183515759Y-85281166D01*
X183521189Y-85273911D01*
X183523117Y-85265058D01*
X183541799Y-85246380D01*
X183557631Y-85225233D01*
X183566120Y-85222066D01*
X183572530Y-85215659D01*
X183598345Y-85210046D01*
X183623095Y-85200816D01*
X183631941Y-85200500D01*
X188913274Y-85200500D01*
X188913290Y-85200501D01*
X188920886Y-85200501D01*
X189078997Y-85200501D01*
X189079000Y-85200501D01*
X189231728Y-85159577D01*
X189265823Y-85139892D01*
X189283856Y-85129481D01*
X189283857Y-85129480D01*
X189368659Y-85080520D01*
X189480463Y-84968716D01*
X189480463Y-84968714D01*
X189490667Y-84958511D01*
X189490671Y-84958506D01*
X190209506Y-84239671D01*
X190209511Y-84239667D01*
X190219714Y-84229463D01*
X190219716Y-84229463D01*
X190331520Y-84117659D01*
X190410577Y-83980727D01*
X190451500Y-83828000D01*
X190451500Y-83551154D01*
X190471185Y-83484115D01*
X190487819Y-83463473D01*
X190573082Y-83378210D01*
X190713747Y-83237546D01*
X190792804Y-83100614D01*
X190833728Y-82947887D01*
X190833728Y-82820566D01*
X190853413Y-82753527D01*
X190906217Y-82707772D01*
X190957724Y-82696566D01*
X191331099Y-82696566D01*
X191390710Y-82690158D01*
X191464894Y-82662488D01*
X191534585Y-82657505D01*
X191551554Y-82662487D01*
X191612237Y-82685120D01*
X191625738Y-82690156D01*
X191625744Y-82690158D01*
X191685354Y-82696567D01*
X192181099Y-82696566D01*
X192240710Y-82690158D01*
X192314894Y-82662488D01*
X192384585Y-82657505D01*
X192401554Y-82662487D01*
X192462237Y-82685120D01*
X192475738Y-82690156D01*
X192475744Y-82690158D01*
X192535354Y-82696567D01*
X193031099Y-82696566D01*
X193090710Y-82690158D01*
X193164894Y-82662488D01*
X193234585Y-82657505D01*
X193251554Y-82662487D01*
X193312237Y-82685120D01*
X193325738Y-82690156D01*
X193325744Y-82690158D01*
X193385354Y-82696567D01*
X193881099Y-82696566D01*
X193940710Y-82690158D01*
X194014894Y-82662488D01*
X194084585Y-82657505D01*
X194101554Y-82662487D01*
X194162237Y-82685120D01*
X194175738Y-82690156D01*
X194175744Y-82690158D01*
X194235354Y-82696567D01*
X194731099Y-82696566D01*
X194790710Y-82690158D01*
X194865607Y-82662222D01*
X194935298Y-82657238D01*
X194952276Y-82662223D01*
X195025848Y-82689664D01*
X195085382Y-82696066D01*
X195085399Y-82696067D01*
X195133227Y-82696067D01*
X195533227Y-82696067D01*
X195581055Y-82696067D01*
X195581071Y-82696066D01*
X195640598Y-82689665D01*
X195714893Y-82661955D01*
X195784585Y-82656971D01*
X195801561Y-82661955D01*
X195875855Y-82689665D01*
X195875854Y-82689665D01*
X195935382Y-82696066D01*
X195935399Y-82696067D01*
X196133227Y-82696067D01*
X196133227Y-82046067D01*
X195533227Y-82046067D01*
X195533227Y-82696067D01*
X195133227Y-82696067D01*
X195133227Y-82444135D01*
X195141044Y-82400804D01*
X195177318Y-82303550D01*
X195183727Y-82243940D01*
X195183726Y-81348195D01*
X195177318Y-81288584D01*
X195173659Y-81278775D01*
X195141045Y-81191330D01*
X195137484Y-81171593D01*
X195134334Y-81164526D01*
X195135194Y-81158903D01*
X195133227Y-81147997D01*
X195133227Y-80896067D01*
X195085382Y-80896067D01*
X195025854Y-80902468D01*
X195025850Y-80902469D01*
X194952273Y-80929911D01*
X194882581Y-80934894D01*
X194865609Y-80929910D01*
X194790715Y-80901977D01*
X194790711Y-80901976D01*
X194790710Y-80901976D01*
X194731100Y-80895567D01*
X194731090Y-80895567D01*
X194235356Y-80895567D01*
X194235350Y-80895568D01*
X194175743Y-80901975D01*
X194101559Y-80929644D01*
X194031867Y-80934628D01*
X194014895Y-80929644D01*
X193940715Y-80901977D01*
X193940711Y-80901976D01*
X193940710Y-80901976D01*
X193881100Y-80895567D01*
X193881090Y-80895567D01*
X193385356Y-80895567D01*
X193385350Y-80895568D01*
X193325743Y-80901975D01*
X193251559Y-80929644D01*
X193181867Y-80934628D01*
X193164895Y-80929644D01*
X193090715Y-80901977D01*
X193090711Y-80901976D01*
X193090710Y-80901976D01*
X193031100Y-80895567D01*
X193031090Y-80895567D01*
X192535356Y-80895567D01*
X192535350Y-80895568D01*
X192475743Y-80901975D01*
X192401559Y-80929644D01*
X192331867Y-80934628D01*
X192314895Y-80929644D01*
X192240715Y-80901977D01*
X192240711Y-80901976D01*
X192240710Y-80901976D01*
X192181100Y-80895567D01*
X192181090Y-80895567D01*
X191685356Y-80895567D01*
X191685350Y-80895568D01*
X191625743Y-80901975D01*
X191551559Y-80929644D01*
X191481867Y-80934628D01*
X191464895Y-80929644D01*
X191390715Y-80901977D01*
X191390711Y-80901976D01*
X191390710Y-80901976D01*
X191331100Y-80895567D01*
X191331090Y-80895567D01*
X190835356Y-80895567D01*
X190835350Y-80895568D01*
X190775743Y-80901975D01*
X190701559Y-80929644D01*
X190631867Y-80934628D01*
X190614895Y-80929644D01*
X190540715Y-80901977D01*
X190540711Y-80901976D01*
X190540710Y-80901976D01*
X190481100Y-80895567D01*
X190481090Y-80895567D01*
X189985356Y-80895567D01*
X189985350Y-80895568D01*
X189925743Y-80901975D01*
X189851559Y-80929644D01*
X189781867Y-80934628D01*
X189764895Y-80929644D01*
X189690715Y-80901977D01*
X189690711Y-80901976D01*
X189690710Y-80901976D01*
X189631100Y-80895567D01*
X189631090Y-80895567D01*
X189135356Y-80895567D01*
X189135350Y-80895568D01*
X189075743Y-80901975D01*
X189001559Y-80929644D01*
X188931867Y-80934628D01*
X188914895Y-80929644D01*
X188840715Y-80901977D01*
X188840711Y-80901976D01*
X188840710Y-80901976D01*
X188781100Y-80895567D01*
X188781090Y-80895567D01*
X188285356Y-80895567D01*
X188285350Y-80895568D01*
X188225743Y-80901975D01*
X188151559Y-80929644D01*
X188081867Y-80934628D01*
X188064895Y-80929644D01*
X187990715Y-80901977D01*
X187990711Y-80901976D01*
X187990710Y-80901976D01*
X187931100Y-80895567D01*
X187931090Y-80895567D01*
X187435356Y-80895567D01*
X187435350Y-80895568D01*
X187375743Y-80901975D01*
X187301559Y-80929644D01*
X187231867Y-80934628D01*
X187214895Y-80929644D01*
X187140715Y-80901977D01*
X187140711Y-80901976D01*
X187140710Y-80901976D01*
X187081100Y-80895567D01*
X187081090Y-80895567D01*
X186585356Y-80895567D01*
X186585350Y-80895568D01*
X186525743Y-80901975D01*
X186451559Y-80929644D01*
X186381867Y-80934628D01*
X186364895Y-80929644D01*
X186290715Y-80901977D01*
X186290711Y-80901976D01*
X186290710Y-80901976D01*
X186231100Y-80895567D01*
X186231091Y-80895567D01*
X185887767Y-80895567D01*
X185820728Y-80875882D01*
X185774973Y-80823078D01*
X185765029Y-80753920D01*
X185769112Y-80735553D01*
X185769731Y-80733510D01*
X185769737Y-80733497D01*
X185800500Y-80578842D01*
X185800500Y-80421158D01*
X185800500Y-80421155D01*
X185800499Y-80421153D01*
X185785833Y-80347425D01*
X185769737Y-80266503D01*
X185753150Y-80226458D01*
X185709397Y-80120827D01*
X185709390Y-80120814D01*
X185621789Y-79989711D01*
X185621786Y-79989707D01*
X185510292Y-79878213D01*
X185510288Y-79878210D01*
X185379185Y-79790609D01*
X185379172Y-79790602D01*
X185233501Y-79730264D01*
X185233491Y-79730261D01*
X185123354Y-79708353D01*
X185061443Y-79675968D01*
X185026869Y-79615252D01*
X185025928Y-79610926D01*
X185021484Y-79588584D01*
X185021480Y-79588562D01*
X185006394Y-79552141D01*
X184961140Y-79442886D01*
X184961133Y-79442873D01*
X184873532Y-79311770D01*
X184873529Y-79311766D01*
X184762035Y-79200272D01*
X184762031Y-79200269D01*
X184630928Y-79112668D01*
X184630915Y-79112661D01*
X184485244Y-79052323D01*
X184485234Y-79052320D01*
X184394493Y-79034270D01*
X184332582Y-79001884D01*
X184298008Y-78941168D01*
X184297068Y-78888461D01*
X184327024Y-78737866D01*
X184327024Y-78580177D01*
X184327023Y-78580175D01*
X184311781Y-78503550D01*
X184296261Y-78425525D01*
X184235918Y-78279843D01*
X184235917Y-78279841D01*
X184235122Y-78277922D01*
X184227653Y-78208452D01*
X184235120Y-78183021D01*
X184287437Y-78056717D01*
X184318200Y-77902062D01*
X184318200Y-77744378D01*
X184318200Y-77744375D01*
X184318199Y-77744373D01*
X184288276Y-77593943D01*
X184287437Y-77589723D01*
X184287435Y-77589718D01*
X184224763Y-77438412D01*
X184227266Y-77437374D01*
X184215384Y-77380445D01*
X184224426Y-77342886D01*
X184269737Y-77233497D01*
X184297503Y-77093911D01*
X186633227Y-77093911D01*
X186639628Y-77153439D01*
X186639630Y-77153446D01*
X186689872Y-77288153D01*
X186689876Y-77288160D01*
X186776036Y-77403254D01*
X186776039Y-77403257D01*
X186891133Y-77489417D01*
X186891140Y-77489421D01*
X187025847Y-77539663D01*
X187025854Y-77539665D01*
X187085382Y-77546066D01*
X187085399Y-77546067D01*
X187483227Y-77546067D01*
X187983227Y-77546067D01*
X188381055Y-77546067D01*
X188381071Y-77546066D01*
X188440598Y-77539665D01*
X188514893Y-77511955D01*
X188584585Y-77506971D01*
X188601561Y-77511955D01*
X188675855Y-77539665D01*
X188675854Y-77539665D01*
X188735382Y-77546066D01*
X188735399Y-77546067D01*
X189133227Y-77546067D01*
X189633227Y-77546067D01*
X190031055Y-77546067D01*
X190031071Y-77546066D01*
X190090598Y-77539665D01*
X190164893Y-77511955D01*
X190234585Y-77506971D01*
X190251561Y-77511955D01*
X190325855Y-77539665D01*
X190325854Y-77539665D01*
X190385382Y-77546066D01*
X190385399Y-77546067D01*
X190783227Y-77546067D01*
X191283227Y-77546067D01*
X191681055Y-77546067D01*
X191681071Y-77546066D01*
X191740599Y-77539665D01*
X191740606Y-77539663D01*
X191875313Y-77489421D01*
X191875320Y-77489417D01*
X191990414Y-77403257D01*
X191990417Y-77403254D01*
X192076577Y-77288160D01*
X192076581Y-77288153D01*
X192126823Y-77153446D01*
X192126825Y-77153439D01*
X192133226Y-77093911D01*
X192133227Y-77093894D01*
X192133227Y-76696067D01*
X191283227Y-76696067D01*
X191283227Y-77546067D01*
X190783227Y-77546067D01*
X190783227Y-76696067D01*
X189633227Y-76696067D01*
X189633227Y-77546067D01*
X189133227Y-77546067D01*
X189133227Y-76696067D01*
X187983227Y-76696067D01*
X187983227Y-77546067D01*
X187483227Y-77546067D01*
X187483227Y-76696067D01*
X186633227Y-76696067D01*
X186633227Y-77093911D01*
X184297503Y-77093911D01*
X184300500Y-77078842D01*
X184300500Y-76921158D01*
X184300500Y-76921155D01*
X184300499Y-76921153D01*
X184286858Y-76852575D01*
X184269737Y-76766503D01*
X184215007Y-76634373D01*
X184207540Y-76564906D01*
X184223944Y-76524293D01*
X184223251Y-76523923D01*
X184226116Y-76518561D01*
X184226120Y-76518556D01*
X184286463Y-76372874D01*
X184317226Y-76218219D01*
X184317226Y-76060535D01*
X184317226Y-76060532D01*
X184317225Y-76060530D01*
X184308492Y-76016626D01*
X184286463Y-75905880D01*
X184227338Y-75763140D01*
X184219870Y-75693672D01*
X184227337Y-75668242D01*
X184277603Y-75546889D01*
X184298087Y-75443911D01*
X186633227Y-75443911D01*
X186639628Y-75503439D01*
X186639630Y-75503449D01*
X186667337Y-75577735D01*
X186672321Y-75647426D01*
X186667337Y-75664399D01*
X186639630Y-75738684D01*
X186639628Y-75738694D01*
X186633227Y-75798222D01*
X186633227Y-76196067D01*
X187483227Y-76196067D01*
X187983227Y-76196067D01*
X189133227Y-76196067D01*
X189633227Y-76196067D01*
X190783227Y-76196067D01*
X191283227Y-76196067D01*
X192133227Y-76196067D01*
X192133227Y-75798239D01*
X192133226Y-75798222D01*
X192126825Y-75738695D01*
X192099115Y-75664401D01*
X192094131Y-75594709D01*
X192099115Y-75577733D01*
X192126825Y-75503438D01*
X192133226Y-75443911D01*
X192133227Y-75443894D01*
X192133227Y-75046067D01*
X191283227Y-75046067D01*
X191283227Y-76196067D01*
X190783227Y-76196067D01*
X190783227Y-75046067D01*
X189633227Y-75046067D01*
X189633227Y-76196067D01*
X189133227Y-76196067D01*
X189133227Y-75046067D01*
X187983227Y-75046067D01*
X187983227Y-76196067D01*
X187483227Y-76196067D01*
X187483227Y-75046067D01*
X186633227Y-75046067D01*
X186633227Y-75443911D01*
X184298087Y-75443911D01*
X184308366Y-75392234D01*
X184308366Y-75234550D01*
X184308366Y-75234547D01*
X184308365Y-75234545D01*
X184297473Y-75179786D01*
X184277603Y-75079895D01*
X184221583Y-74944651D01*
X184214115Y-74875184D01*
X184221581Y-74849755D01*
X184269737Y-74733497D01*
X184300500Y-74578842D01*
X184300500Y-74421158D01*
X184300500Y-74421155D01*
X184300499Y-74421153D01*
X184288374Y-74360199D01*
X184269737Y-74266503D01*
X184264372Y-74253550D01*
X184207063Y-74115192D01*
X184208380Y-74114646D01*
X184195599Y-74053252D01*
X184214767Y-73998141D01*
X184214391Y-73997940D01*
X184215669Y-73995548D01*
X184216101Y-73994307D01*
X184217260Y-73992573D01*
X184277603Y-73846891D01*
X184297658Y-73746069D01*
X186618227Y-73746069D01*
X186621120Y-73800055D01*
X186656670Y-73939329D01*
X186658346Y-73943375D01*
X186665815Y-74012844D01*
X186659967Y-74034159D01*
X186639630Y-74088683D01*
X186639628Y-74088694D01*
X186633227Y-74148222D01*
X186633227Y-74546067D01*
X187483227Y-74546067D01*
X187983227Y-74546067D01*
X189133227Y-74546067D01*
X189633227Y-74546067D01*
X190783227Y-74546067D01*
X191283227Y-74546067D01*
X192133227Y-74546067D01*
X192133227Y-74148239D01*
X192133226Y-74148222D01*
X192126825Y-74088695D01*
X192099115Y-74014401D01*
X192094131Y-73944709D01*
X192099115Y-73927733D01*
X192126825Y-73853438D01*
X192133226Y-73793911D01*
X192133227Y-73793894D01*
X192133227Y-73396067D01*
X191283227Y-73396067D01*
X191283227Y-74546067D01*
X190783227Y-74546067D01*
X190783227Y-73396067D01*
X189633227Y-73396067D01*
X189633227Y-74546067D01*
X189133227Y-74546067D01*
X189133227Y-73396067D01*
X187983227Y-73396067D01*
X187983227Y-74546067D01*
X187483227Y-74546067D01*
X187483227Y-73396067D01*
X186618227Y-73396067D01*
X186618227Y-73746069D01*
X184297658Y-73746069D01*
X184308366Y-73692236D01*
X184308366Y-73534552D01*
X184308366Y-73534549D01*
X184308365Y-73534547D01*
X184295912Y-73471944D01*
X184277603Y-73379897D01*
X184221446Y-73244322D01*
X184221383Y-73244167D01*
X184217827Y-73209717D01*
X184214115Y-73175187D01*
X184214225Y-73174812D01*
X184214210Y-73174666D01*
X184214348Y-73174392D01*
X184221581Y-73149758D01*
X184269737Y-73033500D01*
X184288228Y-72940537D01*
X184297075Y-72896066D01*
X186689070Y-72896066D01*
X186689070Y-72896067D01*
X187483227Y-72896067D01*
X187983227Y-72896067D01*
X189133227Y-72896067D01*
X189633227Y-72896067D01*
X190783227Y-72896067D01*
X191283227Y-72896067D01*
X192133227Y-72896067D01*
X192133227Y-72498239D01*
X192133226Y-72498222D01*
X192126825Y-72438694D01*
X192126823Y-72438687D01*
X192076581Y-72303980D01*
X192076577Y-72303973D01*
X191990417Y-72188879D01*
X191990414Y-72188876D01*
X191875320Y-72102716D01*
X191875313Y-72102712D01*
X191740606Y-72052470D01*
X191740599Y-72052468D01*
X191681071Y-72046067D01*
X191283227Y-72046067D01*
X191283227Y-72896067D01*
X190783227Y-72896067D01*
X190783227Y-72046067D01*
X190385382Y-72046067D01*
X190325854Y-72052468D01*
X190325844Y-72052470D01*
X190251559Y-72080177D01*
X190181868Y-72085161D01*
X190164895Y-72080177D01*
X190090609Y-72052470D01*
X190090599Y-72052468D01*
X190031071Y-72046067D01*
X189633227Y-72046067D01*
X189633227Y-72896067D01*
X189133227Y-72896067D01*
X189133227Y-72046067D01*
X188735382Y-72046067D01*
X188675854Y-72052468D01*
X188675843Y-72052470D01*
X188621319Y-72072807D01*
X188551627Y-72077791D01*
X188530532Y-72071185D01*
X188526499Y-72069514D01*
X188475498Y-72051522D01*
X188333225Y-72031067D01*
X187983227Y-72031067D01*
X187983227Y-72896067D01*
X187483227Y-72896067D01*
X187483227Y-72096447D01*
X187369068Y-72181906D01*
X187369056Y-72181916D01*
X186769080Y-72781893D01*
X186769050Y-72781925D01*
X186732942Y-72822124D01*
X186689070Y-72896066D01*
X184297075Y-72896066D01*
X184300499Y-72878852D01*
X184300500Y-72878844D01*
X184300500Y-72721158D01*
X184300499Y-72721156D01*
X184294496Y-72690979D01*
X184269737Y-72566506D01*
X184220423Y-72447452D01*
X184212955Y-72377984D01*
X184220421Y-72352554D01*
X184269737Y-72233497D01*
X184284337Y-72160099D01*
X184297013Y-72096375D01*
X184311727Y-72068244D01*
X184324917Y-72039364D01*
X184327806Y-72037507D01*
X184329398Y-72034464D01*
X184356990Y-72018751D01*
X184383695Y-72001590D01*
X184388288Y-72000929D01*
X184390114Y-71999890D01*
X184418630Y-71996567D01*
X184517264Y-71996567D01*
X184517280Y-71996568D01*
X184524876Y-71996568D01*
X184682987Y-71996568D01*
X184682990Y-71996568D01*
X184835718Y-71955644D01*
X184898321Y-71919500D01*
X184972649Y-71876587D01*
X185084453Y-71764783D01*
X185084453Y-71764781D01*
X185094657Y-71754578D01*
X185094660Y-71754573D01*
X185514662Y-71334572D01*
X185575983Y-71301089D01*
X185578150Y-71300638D01*
X185636085Y-71289113D01*
X185733497Y-71269737D01*
X185879179Y-71209394D01*
X186010289Y-71121789D01*
X186121789Y-71010289D01*
X186209394Y-70879179D01*
X186244713Y-70793911D01*
X195483227Y-70793911D01*
X195489628Y-70853439D01*
X195489630Y-70853449D01*
X195517337Y-70927735D01*
X195522321Y-70997426D01*
X195517337Y-71014399D01*
X195489630Y-71088684D01*
X195489628Y-71088694D01*
X195483227Y-71148222D01*
X195483227Y-71196067D01*
X196183227Y-71196067D01*
X196183227Y-70746067D01*
X195483227Y-70746067D01*
X195483227Y-70793911D01*
X186244713Y-70793911D01*
X186269737Y-70733497D01*
X186272722Y-70718490D01*
X186282266Y-70670513D01*
X186282266Y-70670512D01*
X186300499Y-70578846D01*
X186300500Y-70578844D01*
X186300500Y-70421155D01*
X186300499Y-70421153D01*
X186296292Y-70400001D01*
X186269737Y-70266503D01*
X186264398Y-70253613D01*
X186209397Y-70120827D01*
X186209390Y-70120814D01*
X186121789Y-69989711D01*
X186121786Y-69989707D01*
X186010292Y-69878213D01*
X186010288Y-69878210D01*
X185874114Y-69787221D01*
X185875427Y-69785254D01*
X185863669Y-69773702D01*
X185842089Y-69757548D01*
X185839118Y-69749582D01*
X185833056Y-69743627D01*
X185827092Y-69717339D01*
X185817673Y-69692083D01*
X185819479Y-69683778D01*
X185817599Y-69675489D01*
X185826794Y-69650150D01*
X185832525Y-69623810D01*
X185839957Y-69613881D01*
X185841435Y-69609811D01*
X185853668Y-69595566D01*
X185966350Y-69482885D01*
X186027673Y-69449401D01*
X186054030Y-69446567D01*
X195358727Y-69446567D01*
X195425766Y-69466252D01*
G37*
%TD.AperFunction*%
%TA.AperFunction,Conductor*%
G36*
X179523044Y-92435395D02*
G01*
X179531883Y-92440622D01*
X179531886Y-92440622D01*
X179531888Y-92440624D01*
X179687280Y-92485770D01*
X179687283Y-92485770D01*
X179687285Y-92485771D01*
X179723588Y-92488628D01*
X179723596Y-92488628D01*
X179834278Y-92488628D01*
X179842963Y-92491178D01*
X179851925Y-92489890D01*
X179875965Y-92500868D01*
X179901317Y-92508313D01*
X179907244Y-92515153D01*
X179915481Y-92518915D01*
X179929770Y-92541149D01*
X179947072Y-92561117D01*
X179949359Y-92571631D01*
X179953255Y-92577693D01*
X179958278Y-92612628D01*
X179958278Y-92794128D01*
X179938593Y-92861167D01*
X179885789Y-92906922D01*
X179834278Y-92918128D01*
X179814616Y-92918128D01*
X179802925Y-92919385D01*
X178778427Y-92919385D01*
X178758207Y-92921559D01*
X177995743Y-92921559D01*
X177987057Y-92919008D01*
X177978096Y-92920297D01*
X177954055Y-92909318D01*
X177928704Y-92901874D01*
X177922776Y-92895033D01*
X177914540Y-92891272D01*
X177900250Y-92869037D01*
X177882949Y-92849070D01*
X177880661Y-92838555D01*
X177876766Y-92832494D01*
X177871743Y-92797559D01*
X177871743Y-92616059D01*
X177891428Y-92549020D01*
X177944232Y-92503265D01*
X177995743Y-92492059D01*
X178106425Y-92492059D01*
X178106433Y-92492059D01*
X178142736Y-92489202D01*
X178142738Y-92489201D01*
X178142740Y-92489201D01*
X178298132Y-92444055D01*
X178298132Y-92444054D01*
X178298138Y-92444053D01*
X178310651Y-92436652D01*
X178326551Y-92432302D01*
X178338836Y-92424408D01*
X178373771Y-92419385D01*
X178417192Y-92419385D01*
X178480310Y-92436652D01*
X178489149Y-92441879D01*
X178489152Y-92441879D01*
X178489154Y-92441881D01*
X178644546Y-92487027D01*
X178644549Y-92487027D01*
X178644551Y-92487028D01*
X178680854Y-92489885D01*
X178680862Y-92489885D01*
X179150226Y-92489885D01*
X179150234Y-92489885D01*
X179186537Y-92487028D01*
X179186539Y-92487027D01*
X179186541Y-92487027D01*
X179227519Y-92475121D01*
X179341939Y-92441879D01*
X179352899Y-92435396D01*
X179368801Y-92431046D01*
X179381087Y-92423151D01*
X179416022Y-92418128D01*
X179459926Y-92418128D01*
X179523044Y-92435395D01*
G37*
%TD.AperFunction*%
%TA.AperFunction,Conductor*%
G36*
X183035059Y-89730185D02*
G01*
X183055701Y-89746819D01*
X183363403Y-90054521D01*
X183396888Y-90115844D01*
X183399722Y-90142202D01*
X183399722Y-90241177D01*
X183380037Y-90308216D01*
X183327233Y-90353971D01*
X183275722Y-90365177D01*
X182784298Y-90365177D01*
X182747432Y-90368078D01*
X182747426Y-90368079D01*
X182589606Y-90413931D01*
X182589603Y-90413932D01*
X182531306Y-90448409D01*
X182468185Y-90465677D01*
X181686500Y-90465677D01*
X181619461Y-90445992D01*
X181573706Y-90393188D01*
X181562500Y-90341677D01*
X181562500Y-90089677D01*
X181582185Y-90022638D01*
X181634989Y-89976883D01*
X181686500Y-89965677D01*
X182797295Y-89965677D01*
X182797295Y-89965675D01*
X182797100Y-89963188D01*
X182797099Y-89963182D01*
X182769764Y-89869095D01*
X182769838Y-89842841D01*
X182766102Y-89816853D01*
X182769936Y-89808456D01*
X182769963Y-89799226D01*
X182784219Y-89777180D01*
X182795127Y-89753297D01*
X182802892Y-89748306D01*
X182807905Y-89740556D01*
X182831817Y-89729717D01*
X182853905Y-89715523D01*
X182867423Y-89713579D01*
X182871543Y-89711712D01*
X182888840Y-89710500D01*
X182968020Y-89710500D01*
X183035059Y-89730185D01*
G37*
%TD.AperFunction*%
%TA.AperFunction,Conductor*%
G36*
X182147799Y-86152496D02*
G01*
X182190439Y-86206055D01*
X182215479Y-86266508D01*
X182233206Y-86309303D01*
X182240675Y-86378772D01*
X182209400Y-86441252D01*
X182206326Y-86444437D01*
X181631286Y-87019478D01*
X181519481Y-87131282D01*
X181519479Y-87131284D01*
X181508385Y-87150501D01*
X181480096Y-87199500D01*
X181440423Y-87268215D01*
X181399499Y-87420943D01*
X181399499Y-87420945D01*
X181399499Y-87589046D01*
X181399500Y-87589059D01*
X181399500Y-88185500D01*
X181379815Y-88252539D01*
X181327011Y-88298294D01*
X181275500Y-88309500D01*
X180380828Y-88309500D01*
X180313789Y-88289815D01*
X180268034Y-88237011D01*
X180258090Y-88167853D01*
X180287115Y-88104297D01*
X180307943Y-88085182D01*
X180384269Y-88029727D01*
X180384274Y-88029723D01*
X180534533Y-87879464D01*
X180534537Y-87879459D01*
X180659430Y-87707557D01*
X180755905Y-87518217D01*
X180821567Y-87316129D01*
X180821567Y-87316126D01*
X180832041Y-87250000D01*
X179937822Y-87250000D01*
X179970735Y-87192993D01*
X180004810Y-87065826D01*
X180004810Y-86934174D01*
X179970735Y-86807007D01*
X179937822Y-86750000D01*
X180832041Y-86750000D01*
X180821567Y-86683873D01*
X180821567Y-86683870D01*
X180755905Y-86481782D01*
X180709545Y-86390795D01*
X180696649Y-86322126D01*
X180722925Y-86257385D01*
X180780032Y-86217128D01*
X180820030Y-86210500D01*
X181654802Y-86210500D01*
X181654818Y-86210501D01*
X181662414Y-86210501D01*
X181820525Y-86210501D01*
X181820528Y-86210501D01*
X181973256Y-86169577D01*
X182013877Y-86146122D01*
X182081771Y-86129648D01*
X182147799Y-86152496D01*
G37*
%TD.AperFunction*%
%TA.AperFunction,Conductor*%
G36*
X181426266Y-67381781D02*
G01*
X181472021Y-67434585D01*
X181483227Y-67486096D01*
X181483227Y-67546067D01*
X183311865Y-67546067D01*
X183378904Y-67565752D01*
X183399546Y-67582386D01*
X183413227Y-67596067D01*
X195353227Y-67596067D01*
X195366908Y-67582386D01*
X195428231Y-67548901D01*
X195454589Y-67546067D01*
X196259227Y-67546067D01*
X196326266Y-67565752D01*
X196372021Y-67618556D01*
X196383227Y-67670067D01*
X196383227Y-67922067D01*
X196363542Y-67989106D01*
X196310738Y-68034861D01*
X196259227Y-68046067D01*
X195454589Y-68046067D01*
X195387550Y-68026382D01*
X195366908Y-68009748D01*
X195353227Y-67996067D01*
X184483227Y-67996067D01*
X184483227Y-68696067D01*
X184531055Y-68696067D01*
X184531071Y-68696066D01*
X184590598Y-68689665D01*
X184664893Y-68661955D01*
X184691251Y-68660069D01*
X184717074Y-68654453D01*
X184730116Y-68657290D01*
X184734585Y-68656971D01*
X184751561Y-68661956D01*
X184816410Y-68686144D01*
X184872344Y-68728015D01*
X184896760Y-68793480D01*
X184881908Y-68861753D01*
X184860757Y-68890006D01*
X184085339Y-69665425D01*
X184024016Y-69698910D01*
X184021850Y-69699361D01*
X183866508Y-69730261D01*
X183866498Y-69730264D01*
X183720827Y-69790602D01*
X183720814Y-69790609D01*
X183589125Y-69878602D01*
X183571078Y-69884252D01*
X183555169Y-69894477D01*
X183524207Y-69898928D01*
X183522447Y-69899480D01*
X183520234Y-69899500D01*
X183338022Y-69899500D01*
X183326331Y-69896067D01*
X183031297Y-69896067D01*
X182987964Y-69888249D01*
X182890709Y-69851975D01*
X182890710Y-69851975D01*
X182831110Y-69845568D01*
X182831108Y-69845567D01*
X182831100Y-69845567D01*
X182831092Y-69845567D01*
X181935356Y-69845567D01*
X181935350Y-69845568D01*
X181875743Y-69851975D01*
X181778491Y-69888249D01*
X181735158Y-69896067D01*
X181483227Y-69896067D01*
X181483227Y-69943911D01*
X181489628Y-70003439D01*
X181489630Y-70003446D01*
X181517071Y-70077019D01*
X181522055Y-70146710D01*
X181517071Y-70163685D01*
X181495345Y-70221937D01*
X181489136Y-70238584D01*
X181482727Y-70298194D01*
X181482727Y-70298201D01*
X181482727Y-70298202D01*
X181482727Y-70793937D01*
X181482728Y-70793943D01*
X181489135Y-70853550D01*
X181516804Y-70927734D01*
X181521788Y-70997425D01*
X181516804Y-71014398D01*
X181489137Y-71088578D01*
X181489136Y-71088582D01*
X181489136Y-71088584D01*
X181482727Y-71148194D01*
X181482727Y-71148201D01*
X181482727Y-71148202D01*
X181482727Y-71643937D01*
X181482728Y-71643943D01*
X181489135Y-71703550D01*
X181516804Y-71777734D01*
X181521788Y-71847425D01*
X181516804Y-71864398D01*
X181489137Y-71938578D01*
X181489137Y-71938580D01*
X181489136Y-71938584D01*
X181482727Y-71998194D01*
X181482727Y-71998201D01*
X181482727Y-71998202D01*
X181482727Y-72493937D01*
X181482728Y-72493943D01*
X181489135Y-72553550D01*
X181516804Y-72627734D01*
X181521788Y-72697425D01*
X181516804Y-72714398D01*
X181489137Y-72788578D01*
X181489136Y-72788582D01*
X181489136Y-72788584D01*
X181482727Y-72848194D01*
X181482727Y-72848201D01*
X181482727Y-72848202D01*
X181482727Y-73343937D01*
X181482728Y-73343943D01*
X181489135Y-73403550D01*
X181516804Y-73477734D01*
X181521788Y-73547425D01*
X181516804Y-73564398D01*
X181489137Y-73638578D01*
X181489136Y-73638582D01*
X181489136Y-73638584D01*
X181482727Y-73698194D01*
X181482727Y-73698201D01*
X181482727Y-73698202D01*
X181482727Y-74193937D01*
X181482728Y-74193943D01*
X181489135Y-74253550D01*
X181516804Y-74327734D01*
X181521788Y-74397425D01*
X181516804Y-74414398D01*
X181489137Y-74488578D01*
X181489136Y-74488582D01*
X181489136Y-74488584D01*
X181482727Y-74548194D01*
X181482727Y-74548201D01*
X181482727Y-74548202D01*
X181482727Y-75043937D01*
X181482728Y-75043943D01*
X181489135Y-75103550D01*
X181516804Y-75177734D01*
X181521788Y-75247425D01*
X181516804Y-75264398D01*
X181489137Y-75338578D01*
X181489136Y-75338582D01*
X181489136Y-75338584D01*
X181482727Y-75398194D01*
X181482727Y-75398201D01*
X181482727Y-75398202D01*
X181482727Y-75893937D01*
X181482728Y-75893943D01*
X181489135Y-75953550D01*
X181516804Y-76027734D01*
X181521788Y-76097425D01*
X181516804Y-76114398D01*
X181489137Y-76188578D01*
X181489136Y-76188582D01*
X181489136Y-76188584D01*
X181482727Y-76248194D01*
X181482727Y-76248201D01*
X181482727Y-76248202D01*
X181482727Y-76743937D01*
X181482728Y-76743943D01*
X181489135Y-76803550D01*
X181516804Y-76877734D01*
X181521788Y-76947425D01*
X181516804Y-76964398D01*
X181489137Y-77038578D01*
X181489136Y-77038582D01*
X181489136Y-77038584D01*
X181482727Y-77098194D01*
X181482727Y-77098201D01*
X181482727Y-77098202D01*
X181482727Y-77593937D01*
X181482728Y-77593943D01*
X181489135Y-77653550D01*
X181516804Y-77727734D01*
X181521788Y-77797425D01*
X181516804Y-77814398D01*
X181489137Y-77888578D01*
X181489136Y-77888582D01*
X181489136Y-77888584D01*
X181482727Y-77948194D01*
X181482727Y-77948201D01*
X181482727Y-77948202D01*
X181482727Y-78443937D01*
X181482728Y-78443943D01*
X181489135Y-78503550D01*
X181516804Y-78577734D01*
X181518688Y-78604086D01*
X181524307Y-78629906D01*
X181521468Y-78642956D01*
X181521788Y-78647425D01*
X181516806Y-78664394D01*
X181515773Y-78667164D01*
X181473904Y-78723099D01*
X181408441Y-78747520D01*
X181340168Y-78732671D01*
X181311908Y-78711517D01*
X180514875Y-77914484D01*
X180481390Y-77853161D01*
X180486374Y-77783469D01*
X180514877Y-77739120D01*
X180534534Y-77719463D01*
X180534537Y-77719459D01*
X180659430Y-77547557D01*
X180755905Y-77358217D01*
X180821567Y-77156129D01*
X180821567Y-77156126D01*
X180832041Y-77090000D01*
X179937822Y-77090000D01*
X179970735Y-77032993D01*
X180004810Y-76905826D01*
X180004810Y-76774174D01*
X179970735Y-76647007D01*
X179937822Y-76590000D01*
X180832041Y-76590000D01*
X180821567Y-76523873D01*
X180821567Y-76523870D01*
X180755905Y-76321782D01*
X180659430Y-76132442D01*
X180534537Y-75960540D01*
X180534533Y-75960535D01*
X180384274Y-75810276D01*
X180384269Y-75810272D01*
X180212365Y-75685377D01*
X180203310Y-75680763D01*
X180152516Y-75632788D01*
X180135722Y-75564966D01*
X180158261Y-75498832D01*
X180203318Y-75459793D01*
X180212626Y-75455051D01*
X180299087Y-75392234D01*
X180384596Y-75330109D01*
X180384598Y-75330106D01*
X180384602Y-75330104D01*
X180534914Y-75179792D01*
X180534916Y-75179788D01*
X180534919Y-75179786D01*
X180659858Y-75007820D01*
X180659857Y-75007820D01*
X180659861Y-75007816D01*
X180756367Y-74818412D01*
X180822056Y-74616243D01*
X180855310Y-74406287D01*
X180855310Y-74193713D01*
X180822056Y-73983757D01*
X180756367Y-73781588D01*
X180659861Y-73592184D01*
X180659859Y-73592181D01*
X180659858Y-73592179D01*
X180534919Y-73420213D01*
X180384596Y-73269890D01*
X180212627Y-73144949D01*
X180203314Y-73140204D01*
X180152517Y-73092230D01*
X180135722Y-73024409D01*
X180158259Y-72958274D01*
X180203317Y-72919232D01*
X180212368Y-72914620D01*
X180384269Y-72789727D01*
X180384274Y-72789723D01*
X180534533Y-72639464D01*
X180534537Y-72639459D01*
X180659430Y-72467557D01*
X180755905Y-72278217D01*
X180821567Y-72076129D01*
X180821567Y-72076126D01*
X180832041Y-72010000D01*
X179937822Y-72010000D01*
X179970735Y-71952993D01*
X180004810Y-71825826D01*
X180004810Y-71694174D01*
X179970735Y-71567007D01*
X179937822Y-71510000D01*
X180832041Y-71510000D01*
X180821567Y-71443873D01*
X180821567Y-71443870D01*
X180755905Y-71241782D01*
X180659430Y-71052442D01*
X180534537Y-70880540D01*
X180534533Y-70880535D01*
X180384274Y-70730276D01*
X180384269Y-70730272D01*
X180212365Y-70605377D01*
X180203310Y-70600763D01*
X180152516Y-70552788D01*
X180135722Y-70484966D01*
X180158261Y-70418832D01*
X180203318Y-70379793D01*
X180212626Y-70375051D01*
X180291817Y-70317515D01*
X180384596Y-70250109D01*
X180384598Y-70250106D01*
X180384602Y-70250104D01*
X180534914Y-70099792D01*
X180534916Y-70099788D01*
X180534919Y-70099786D01*
X180659858Y-69927820D01*
X180659857Y-69927820D01*
X180659861Y-69927816D01*
X180756367Y-69738412D01*
X180822056Y-69536243D01*
X180855310Y-69326287D01*
X180855310Y-69113713D01*
X180852174Y-69093911D01*
X181483227Y-69093911D01*
X181489628Y-69153439D01*
X181489630Y-69153449D01*
X181517337Y-69227735D01*
X181522321Y-69297426D01*
X181517337Y-69314399D01*
X181489630Y-69388684D01*
X181489628Y-69388694D01*
X181483227Y-69448222D01*
X181483227Y-69496067D01*
X182183227Y-69496067D01*
X182583227Y-69496067D01*
X183283227Y-69496067D01*
X183283227Y-69448239D01*
X183283226Y-69448222D01*
X183276825Y-69388695D01*
X183249115Y-69314401D01*
X183244131Y-69244709D01*
X183249115Y-69227733D01*
X183276825Y-69153438D01*
X183283226Y-69093911D01*
X183283227Y-69093894D01*
X183283227Y-69046067D01*
X182583227Y-69046067D01*
X182583227Y-69496067D01*
X182183227Y-69496067D01*
X182183227Y-69046067D01*
X181483227Y-69046067D01*
X181483227Y-69093911D01*
X180852174Y-69093911D01*
X180822056Y-68903757D01*
X180756367Y-68701588D01*
X180753554Y-68696067D01*
X183633227Y-68696067D01*
X183681055Y-68696067D01*
X183681071Y-68696066D01*
X183740598Y-68689665D01*
X183814893Y-68661955D01*
X183884585Y-68656971D01*
X183901561Y-68661955D01*
X183975855Y-68689665D01*
X183975854Y-68689665D01*
X184035382Y-68696066D01*
X184035399Y-68696067D01*
X184083227Y-68696067D01*
X184083227Y-67996067D01*
X183633227Y-67996067D01*
X183633227Y-68696067D01*
X180753554Y-68696067D01*
X180659861Y-68512184D01*
X180659859Y-68512181D01*
X180659858Y-68512179D01*
X180534919Y-68340213D01*
X180438617Y-68243911D01*
X181483227Y-68243911D01*
X181489628Y-68303439D01*
X181489630Y-68303449D01*
X181517337Y-68377735D01*
X181522321Y-68447426D01*
X181517337Y-68464399D01*
X181489630Y-68538684D01*
X181489628Y-68538694D01*
X181483227Y-68598222D01*
X181483227Y-68646067D01*
X182133227Y-68646067D01*
X182633227Y-68646067D01*
X183233227Y-68646067D01*
X183233227Y-68046067D01*
X182633227Y-68046067D01*
X182633227Y-68646067D01*
X182133227Y-68646067D01*
X182133227Y-68046067D01*
X181483227Y-68046067D01*
X181483227Y-68243911D01*
X180438617Y-68243911D01*
X180384600Y-68189894D01*
X180384595Y-68189890D01*
X180254044Y-68095039D01*
X180254021Y-68095024D01*
X180212625Y-68064948D01*
X180023224Y-67968444D01*
X180023223Y-67968443D01*
X180023222Y-67968443D01*
X179821053Y-67902754D01*
X179821051Y-67902753D01*
X179821050Y-67902753D01*
X179659767Y-67877208D01*
X179611097Y-67869500D01*
X179398523Y-67869500D01*
X179349852Y-67877208D01*
X179188570Y-67902753D01*
X178986395Y-67968444D01*
X178796989Y-68064951D01*
X178625025Y-68189889D01*
X178511483Y-68303431D01*
X178450160Y-68336915D01*
X178380468Y-68331931D01*
X178324535Y-68290059D01*
X178307620Y-68259082D01*
X178258607Y-68127671D01*
X178258603Y-68127664D01*
X178172357Y-68012455D01*
X178172354Y-68012452D01*
X178057145Y-67926206D01*
X178057138Y-67926202D01*
X177922292Y-67875908D01*
X177922293Y-67875908D01*
X177862693Y-67869501D01*
X177862691Y-67869500D01*
X177862683Y-67869500D01*
X177862674Y-67869500D01*
X176066939Y-67869500D01*
X176066933Y-67869501D01*
X176007326Y-67875908D01*
X175872481Y-67926202D01*
X175872474Y-67926206D01*
X175757265Y-68012452D01*
X175757262Y-68012455D01*
X175671016Y-68127664D01*
X175671012Y-68127671D01*
X175620718Y-68262517D01*
X175614311Y-68322116D01*
X175614310Y-68322135D01*
X175614310Y-69669901D01*
X175614103Y-69670604D01*
X175614302Y-69671311D01*
X175604275Y-69704075D01*
X175594625Y-69736940D01*
X175594070Y-69737420D01*
X175593856Y-69738122D01*
X175577991Y-69757582D01*
X175367181Y-69968393D01*
X175305858Y-70001878D01*
X175236167Y-69996894D01*
X175180233Y-69955023D01*
X175155816Y-69889558D01*
X175155500Y-69880712D01*
X175155500Y-69828055D01*
X175151003Y-69790609D01*
X175144852Y-69739387D01*
X175144849Y-69739381D01*
X175142903Y-69731675D01*
X175145948Y-69730905D01*
X175145111Y-69721661D01*
X175138621Y-69698590D01*
X175142015Y-69687496D01*
X175140969Y-69675944D01*
X175143185Y-69668396D01*
X175142903Y-69668325D01*
X175144850Y-69660617D01*
X175144852Y-69660613D01*
X175155500Y-69571944D01*
X175155500Y-69178056D01*
X175144852Y-69089387D01*
X175144851Y-69089385D01*
X175144851Y-69089382D01*
X175142905Y-69081683D01*
X175145745Y-69080965D01*
X175140702Y-69025252D01*
X175142751Y-69018286D01*
X175142414Y-69018201D01*
X175144361Y-69010494D01*
X175154028Y-68930000D01*
X175136930Y-68930000D01*
X175136509Y-68929876D01*
X175136088Y-68929997D01*
X175102985Y-68920032D01*
X175069891Y-68910315D01*
X175069463Y-68909942D01*
X175069184Y-68909858D01*
X175066482Y-68907341D01*
X175042668Y-68886565D01*
X175040318Y-68883815D01*
X174997564Y-68827436D01*
X174982123Y-68815726D01*
X174973438Y-68805565D01*
X174964389Y-68785390D01*
X174951252Y-68767612D01*
X174950372Y-68754137D01*
X174944845Y-68741814D01*
X174948140Y-68719950D01*
X174946700Y-68697891D01*
X174953245Y-68686078D01*
X174955258Y-68672724D01*
X174969849Y-68656114D01*
X174980564Y-68636777D01*
X174992775Y-68626196D01*
X174997564Y-68622564D01*
X175038126Y-68569075D01*
X175094318Y-68527552D01*
X175136930Y-68520000D01*
X175154027Y-68520000D01*
X175144361Y-68439502D01*
X175142415Y-68431802D01*
X175145636Y-68430987D01*
X175140687Y-68376689D01*
X175143124Y-68368380D01*
X175142903Y-68368325D01*
X175144849Y-68360620D01*
X175144852Y-68360613D01*
X175155500Y-68271944D01*
X175155500Y-67878056D01*
X175144852Y-67789387D01*
X175089210Y-67648289D01*
X175089209Y-67648288D01*
X175089209Y-67648287D01*
X175023033Y-67561021D01*
X174998210Y-67495710D01*
X175012638Y-67427346D01*
X175061736Y-67377635D01*
X175121837Y-67362096D01*
X181359227Y-67362096D01*
X181426266Y-67381781D01*
G37*
%TD.AperFunction*%
%TA.AperFunction,Conductor*%
G36*
X168278039Y-74000185D02*
G01*
X168323794Y-74052989D01*
X168335000Y-74104500D01*
X168335000Y-74630000D01*
X168341899Y-74636899D01*
X168375384Y-74698222D01*
X168370400Y-74767914D01*
X168341899Y-74812261D01*
X168022584Y-75131577D01*
X167961261Y-75165062D01*
X167934903Y-75167896D01*
X167360834Y-75167896D01*
X167293795Y-75148211D01*
X167248040Y-75095407D01*
X167236834Y-75043896D01*
X167236834Y-74754000D01*
X167256519Y-74686961D01*
X167309323Y-74641206D01*
X167360834Y-74630000D01*
X167925000Y-74630000D01*
X167925000Y-74104500D01*
X167927550Y-74095814D01*
X167926262Y-74086853D01*
X167937240Y-74062812D01*
X167944685Y-74037461D01*
X167951525Y-74031533D01*
X167955287Y-74023297D01*
X167977521Y-74009007D01*
X167997489Y-73991706D01*
X168008003Y-73989418D01*
X168014065Y-73985523D01*
X168049000Y-73980500D01*
X168211000Y-73980500D01*
X168278039Y-74000185D01*
G37*
%TD.AperFunction*%
%TA.AperFunction,Conductor*%
G36*
X172675038Y-68695185D02*
G01*
X172720793Y-68747989D01*
X172730737Y-68817147D01*
X172706804Y-68874424D01*
X172701875Y-68880924D01*
X172645683Y-68922448D01*
X172603070Y-68930000D01*
X172585973Y-68930000D01*
X172595638Y-69010498D01*
X172597586Y-69018204D01*
X172594394Y-69019010D01*
X172599271Y-69073511D01*
X172596886Y-69081628D01*
X172597095Y-69081681D01*
X172595148Y-69089380D01*
X172590630Y-69127011D01*
X172584500Y-69178056D01*
X172584500Y-69571944D01*
X172591276Y-69628369D01*
X172595148Y-69660617D01*
X172597095Y-69668317D01*
X172594068Y-69669082D01*
X172599008Y-69724170D01*
X172596822Y-69731614D01*
X172597095Y-69731683D01*
X172595148Y-69739382D01*
X172592967Y-69757548D01*
X172584500Y-69828056D01*
X172584500Y-70221944D01*
X172589851Y-70266503D01*
X172595148Y-70310617D01*
X172597095Y-70318317D01*
X172594068Y-70319082D01*
X172599008Y-70374170D01*
X172596822Y-70381614D01*
X172597095Y-70381683D01*
X172595148Y-70389382D01*
X172593873Y-70400001D01*
X172584500Y-70478056D01*
X172584500Y-70871944D01*
X172591200Y-70927734D01*
X172595148Y-70960617D01*
X172597095Y-70968317D01*
X172594068Y-70969082D01*
X172599008Y-71024170D01*
X172596822Y-71031614D01*
X172597095Y-71031683D01*
X172595148Y-71039382D01*
X172593580Y-71052442D01*
X172584500Y-71128056D01*
X172584500Y-71521944D01*
X172591276Y-71578369D01*
X172595148Y-71610617D01*
X172597095Y-71618317D01*
X172594068Y-71619082D01*
X172599008Y-71674170D01*
X172596822Y-71681614D01*
X172597095Y-71681683D01*
X172595148Y-71689382D01*
X172593447Y-71703550D01*
X172584500Y-71778056D01*
X172584500Y-72171944D01*
X172586534Y-72188879D01*
X172595148Y-72260617D01*
X172597095Y-72268317D01*
X172594068Y-72269082D01*
X172599008Y-72324170D01*
X172596822Y-72331614D01*
X172597095Y-72331683D01*
X172595148Y-72339382D01*
X172590513Y-72377984D01*
X172584500Y-72428056D01*
X172584500Y-72821944D01*
X172591276Y-72878369D01*
X172595148Y-72910617D01*
X172597095Y-72918317D01*
X172594068Y-72919082D01*
X172599008Y-72974170D01*
X172596822Y-72981614D01*
X172597095Y-72981683D01*
X172595148Y-72989382D01*
X172591475Y-73019973D01*
X172584500Y-73078056D01*
X172584500Y-73078062D01*
X172584500Y-73439298D01*
X172564815Y-73506337D01*
X172512011Y-73552092D01*
X172442853Y-73562036D01*
X172379297Y-73533011D01*
X172372819Y-73526979D01*
X171536819Y-72690979D01*
X171503334Y-72629656D01*
X171500500Y-72603298D01*
X171500500Y-68799500D01*
X171520185Y-68732461D01*
X171572989Y-68686706D01*
X171624500Y-68675500D01*
X172607999Y-68675500D01*
X172675038Y-68695185D01*
G37*
%TD.AperFunction*%
%TA.AperFunction,Conductor*%
G36*
X170242539Y-68695185D02*
G01*
X170288294Y-68747989D01*
X170299500Y-68799500D01*
X170299500Y-69368059D01*
X170279815Y-69435098D01*
X170227011Y-69480853D01*
X170157853Y-69490797D01*
X170094297Y-69461772D01*
X170087819Y-69455740D01*
X170010292Y-69378213D01*
X170010288Y-69378210D01*
X169879185Y-69290609D01*
X169879172Y-69290602D01*
X169733501Y-69230264D01*
X169733489Y-69230261D01*
X169578845Y-69199500D01*
X169578842Y-69199500D01*
X169527571Y-69199500D01*
X169498021Y-69190823D01*
X169467931Y-69184216D01*
X169464793Y-69181066D01*
X169460532Y-69179815D01*
X169440368Y-69156544D01*
X169418623Y-69134714D01*
X169416975Y-69129548D01*
X169414777Y-69127011D01*
X169406353Y-69101621D01*
X169400858Y-69076121D01*
X169402702Y-69051025D01*
X169400426Y-69025975D01*
X169402687Y-69018273D01*
X169402414Y-69018204D01*
X169404361Y-69010499D01*
X169414028Y-68930000D01*
X169220886Y-68930000D01*
X169191801Y-68921459D01*
X169162139Y-68915201D01*
X169158606Y-68911712D01*
X169153847Y-68910315D01*
X169134001Y-68887412D01*
X169112427Y-68866105D01*
X169111341Y-68861261D01*
X169108092Y-68857511D01*
X169103778Y-68827508D01*
X169097149Y-68797926D01*
X169098854Y-68793265D01*
X169098148Y-68788353D01*
X169110740Y-68760779D01*
X169121157Y-68732310D01*
X169125965Y-68727441D01*
X169127173Y-68724797D01*
X169145958Y-68707198D01*
X169149762Y-68704312D01*
X169154529Y-68700697D01*
X169219839Y-68675874D01*
X169229457Y-68675500D01*
X170175500Y-68675500D01*
X170242539Y-68695185D01*
G37*
%TD.AperFunction*%
%TD*%
M02*
