%TF.GenerationSoftware,KiCad,Pcbnew,8.99.0-3218-gdd8f7901b1*%
%TF.CreationDate,2025-01-02T16:36:55-05:00*%
%TF.ProjectId,hack_matrix,6861636b-5f6d-4617-9472-69782e6b6963,rev?*%
%TF.SameCoordinates,Original*%
%TF.FileFunction,Paste,Top*%
%TF.FilePolarity,Positive*%
%FSLAX46Y46*%
G04 Gerber Fmt 4.6, Leading zero omitted, Abs format (unit mm)*
G04 Created by KiCad (PCBNEW 8.99.0-3218-gdd8f7901b1) date 2025-01-02 16:36:55*
%MOMM*%
%LPD*%
G01*
G04 APERTURE LIST*
G04 Aperture macros list*
%AMRoundRect*
0 Rectangle with rounded corners*
0 $1 Rounding radius*
0 $2 $3 $4 $5 $6 $7 $8 $9 X,Y pos of 4 corners*
0 Add a 4 corners polygon primitive as box body*
4,1,4,$2,$3,$4,$5,$6,$7,$8,$9,$2,$3,0*
0 Add four circle primitives for the rounded corners*
1,1,$1+$1,$2,$3*
1,1,$1+$1,$4,$5*
1,1,$1+$1,$6,$7*
1,1,$1+$1,$8,$9*
0 Add four rect primitives between the rounded corners*
20,1,$1+$1,$2,$3,$4,$5,0*
20,1,$1+$1,$4,$5,$6,$7,0*
20,1,$1+$1,$6,$7,$8,$9,0*
20,1,$1+$1,$8,$9,$2,$3,0*%
G04 Aperture macros list end*
%ADD10C,0.010000*%
%ADD11RoundRect,0.051250X-0.733750X-0.153750X0.733750X-0.153750X0.733750X0.153750X-0.733750X0.153750X0*%
%ADD12RoundRect,0.140000X-0.170000X0.140000X-0.170000X-0.140000X0.170000X-0.140000X0.170000X0.140000X0*%
%ADD13R,1.140000X0.600000*%
%ADD14R,1.140000X0.300000*%
%ADD15RoundRect,0.140000X0.140000X0.170000X-0.140000X0.170000X-0.140000X-0.170000X0.140000X-0.170000X0*%
%ADD16R,1.800000X1.350000*%
%ADD17RoundRect,0.150000X-0.587500X-0.150000X0.587500X-0.150000X0.587500X0.150000X-0.587500X0.150000X0*%
%ADD18RoundRect,0.250000X-0.300000X0.300000X-0.300000X-0.300000X0.300000X-0.300000X0.300000X0.300000X0*%
%ADD19R,0.800000X0.400000*%
%ADD20R,0.400000X0.800000*%
%ADD21R,1.200000X1.200000*%
%ADD22R,0.800000X0.800000*%
%ADD23RoundRect,0.140000X0.170000X-0.140000X0.170000X0.140000X-0.170000X0.140000X-0.170000X-0.140000X0*%
%ADD24RoundRect,0.135000X0.185000X-0.135000X0.185000X0.135000X-0.185000X0.135000X-0.185000X-0.135000X0*%
G04 APERTURE END LIST*
D10*
%TO.C,U4*%
X188333227Y-73746067D02*
X187133227Y-73746067D01*
X187133227Y-73146067D01*
X187733227Y-72546067D01*
X188333227Y-72546067D01*
X188333227Y-73746067D01*
G36*
X188333227Y-73746067D02*
G01*
X187133227Y-73746067D01*
X187133227Y-73146067D01*
X187733227Y-72546067D01*
X188333227Y-72546067D01*
X188333227Y-73746067D01*
G37*
%TD*%
D11*
%TO.C,U5*%
X168130000Y-68075000D03*
X168130000Y-68725000D03*
X168130000Y-69375000D03*
X168130000Y-70025000D03*
X168130000Y-70675000D03*
X168130000Y-71325000D03*
X168130000Y-71975000D03*
X168130000Y-72625000D03*
X168130000Y-73275000D03*
X168130000Y-73925000D03*
X173870000Y-73925000D03*
X173870000Y-73275000D03*
X173870000Y-72625000D03*
X173870000Y-71975000D03*
X173870000Y-71325000D03*
X173870000Y-70675000D03*
X173870000Y-70025000D03*
X173870000Y-69375000D03*
X173870000Y-68725000D03*
X173870000Y-68075000D03*
%TD*%
D12*
%TO.C,C5*%
X179823587Y-89511430D03*
X179823587Y-90471430D03*
%TD*%
D13*
%TO.C,J1*%
X173750000Y-84422570D03*
X173750000Y-85222570D03*
D14*
X173750000Y-86372570D03*
X173750000Y-87372570D03*
X173750000Y-87872570D03*
X173750000Y-88872570D03*
D13*
X173750000Y-90822570D03*
X173750000Y-90022570D03*
D14*
X173750000Y-89372570D03*
X173750000Y-88372570D03*
X173750000Y-86872570D03*
X173750000Y-85872570D03*
%TD*%
D15*
%TO.C,C10*%
X183980000Y-88500000D03*
X183020000Y-88500000D03*
%TD*%
D11*
%TO.C,U1*%
X168130000Y-75873396D03*
X168130000Y-76523396D03*
X168130000Y-77173396D03*
X168130000Y-77823396D03*
X168130000Y-78473396D03*
X168130000Y-79123396D03*
X168130000Y-79773396D03*
X168130000Y-80423396D03*
X168130000Y-81073396D03*
X168130000Y-81723396D03*
X173870000Y-81723396D03*
X173870000Y-81073396D03*
X173870000Y-80423396D03*
X173870000Y-79773396D03*
X173870000Y-79123396D03*
X173870000Y-78473396D03*
X173870000Y-77823396D03*
X173870000Y-77173396D03*
X173870000Y-76523396D03*
X173870000Y-75873396D03*
%TD*%
D16*
%TO.C,SW2*%
X186281235Y-87778738D03*
X186281235Y-91928738D03*
%TD*%
D17*
%TO.C,U3*%
X181562500Y-90215677D03*
X181562500Y-92115677D03*
X183437500Y-91165677D03*
%TD*%
D18*
%TO.C,D1*%
X175981590Y-89517116D03*
X175981590Y-92317116D03*
%TD*%
D19*
%TO.C,U4*%
X182383227Y-68846067D03*
X182383227Y-69696067D03*
X182383227Y-70546067D03*
X182383227Y-71396067D03*
X182383227Y-72246067D03*
X182383227Y-73096067D03*
X182383227Y-73946067D03*
X182383227Y-74796067D03*
X182383227Y-75646067D03*
X182383227Y-76496067D03*
X182383227Y-77346067D03*
X182383227Y-78196067D03*
X182383227Y-79046067D03*
X182383227Y-79896067D03*
X182383227Y-80746067D03*
D20*
X183433227Y-81796067D03*
X184283227Y-81796067D03*
X185133227Y-81796067D03*
X185983227Y-81796067D03*
X186833227Y-81796067D03*
X187683227Y-81796067D03*
X188533227Y-81796067D03*
X189383227Y-81796067D03*
X190233227Y-81796067D03*
X191083227Y-81796067D03*
X191933227Y-81796067D03*
X192783227Y-81796067D03*
X193633227Y-81796067D03*
X194483227Y-81796067D03*
X195333227Y-81796067D03*
D19*
X196383227Y-80746067D03*
X196383227Y-79896067D03*
X196383227Y-79046067D03*
X196383227Y-78196067D03*
X196383227Y-77346067D03*
X196383227Y-76496067D03*
X196383227Y-75646067D03*
X196383227Y-74796067D03*
X196383227Y-73946067D03*
X196383227Y-73096067D03*
X196383227Y-72246067D03*
X196383227Y-71396067D03*
X196383227Y-70546067D03*
X196383227Y-69696067D03*
X196383227Y-68846067D03*
D20*
X195333227Y-67796067D03*
X194483227Y-67796067D03*
X193633227Y-67796067D03*
X192783227Y-67796067D03*
X191933227Y-67796067D03*
X191083227Y-67796067D03*
X190233227Y-67796067D03*
X189383227Y-67796067D03*
X188533227Y-67796067D03*
X187683227Y-67796067D03*
X186833227Y-67796067D03*
X185983227Y-67796067D03*
X185133227Y-67796067D03*
X184283227Y-67796067D03*
X183433227Y-67796067D03*
D21*
X189383227Y-74796067D03*
X187733227Y-74796067D03*
X187733227Y-76446067D03*
X189383227Y-76446067D03*
X191033227Y-76446067D03*
X191033227Y-74796067D03*
X191033227Y-73146067D03*
X189383227Y-73146067D03*
D22*
X182383227Y-67796067D03*
X182383227Y-81796067D03*
X196383227Y-81796067D03*
X196383227Y-67796067D03*
%TD*%
D12*
%TO.C,C3*%
X178915544Y-91709385D03*
X178915544Y-92669385D03*
%TD*%
D23*
%TO.C,C6*%
X179958278Y-92668128D03*
X179958278Y-91708128D03*
%TD*%
D24*
%TO.C,R2*%
X177784613Y-90500000D03*
X177784613Y-89480000D03*
%TD*%
%TO.C,R1*%
X178784613Y-90500000D03*
X178784613Y-89480000D03*
%TD*%
D12*
%TO.C,C4*%
X177871743Y-91711559D03*
X177871743Y-92671559D03*
%TD*%
M02*
