%TF.GenerationSoftware,KiCad,Pcbnew,8.99.0-3218-gdd8f7901b1*%
%TF.CreationDate,2025-01-02T16:36:55-05:00*%
%TF.ProjectId,hack_matrix,6861636b-5f6d-4617-9472-69782e6b6963,rev?*%
%TF.SameCoordinates,Original*%
%TF.FileFunction,Legend,Top*%
%TF.FilePolarity,Positive*%
%FSLAX46Y46*%
G04 Gerber Fmt 4.6, Leading zero omitted, Abs format (unit mm)*
G04 Created by KiCad (PCBNEW 8.99.0-3218-gdd8f7901b1) date 2025-01-02 16:36:55*
%MOMM*%
%LPD*%
G01*
G04 APERTURE LIST*
%ADD10C,0.150000*%
%ADD11C,0.250000*%
%ADD12C,0.127000*%
%ADD13C,0.200000*%
%ADD14C,0.120000*%
G04 APERTURE END LIST*
D10*
G36*
X181965893Y-84055776D02*
G01*
X181952581Y-83950874D01*
X181939270Y-83847376D01*
X181929564Y-83845153D01*
X181839986Y-83843162D01*
X181739235Y-83843162D01*
X181736427Y-83862702D01*
X181722444Y-83967665D01*
X181706931Y-84050414D01*
X181689043Y-84103126D01*
X181670244Y-84134382D01*
X181651064Y-84150908D01*
X181635676Y-84155122D01*
X181622219Y-84149269D01*
X181606306Y-84125751D01*
X181599056Y-84082452D01*
X181592323Y-83896285D01*
X181581149Y-83610887D01*
X181574127Y-83490598D01*
X181579072Y-83436412D01*
X181590656Y-83407488D01*
X181606306Y-83394061D01*
X181619284Y-83391515D01*
X181635676Y-83398274D01*
X181655226Y-83419756D01*
X181676505Y-83460746D01*
X181699203Y-83530476D01*
X181722444Y-83640258D01*
X181733388Y-83696419D01*
X181739235Y-83710233D01*
X181806402Y-83717927D01*
X181902939Y-83722812D01*
X181914113Y-83721407D01*
X181916922Y-83721407D01*
X181918997Y-83711522D01*
X181925287Y-83630488D01*
X181937122Y-83490525D01*
X181953850Y-83417696D01*
X181971449Y-83385635D01*
X181985429Y-83376214D01*
X182002224Y-83373056D01*
X182021632Y-83377166D01*
X182038616Y-83389848D01*
X182049181Y-83404045D01*
X182054003Y-83415737D01*
X182062430Y-83478019D01*
X182073907Y-83633163D01*
X182080565Y-83886516D01*
X182080565Y-83987266D01*
X182076965Y-84060207D01*
X182069391Y-84092168D01*
X182057591Y-84113832D01*
X182040692Y-84135582D01*
X182021883Y-84152528D01*
X182010650Y-84156526D01*
X181996159Y-84150206D01*
X181979876Y-84125080D01*
X181969468Y-84092391D01*
X181965893Y-84055776D01*
G37*
G36*
X182451249Y-83311327D02*
G01*
X182473124Y-83322681D01*
X182512997Y-83353456D01*
X182527570Y-83373230D01*
X182554945Y-83423492D01*
X182580914Y-83479301D01*
X182601168Y-83531142D01*
X182634153Y-83646711D01*
X182664794Y-83789979D01*
X182686050Y-83932171D01*
X182692088Y-84033428D01*
X182687597Y-84079944D01*
X182675296Y-84115921D01*
X182651825Y-84151237D01*
X182626112Y-84170041D01*
X182596955Y-84176127D01*
X182579880Y-84173008D01*
X182564776Y-84163548D01*
X182553639Y-84149269D01*
X182547984Y-84131308D01*
X182540963Y-84026406D01*
X182536810Y-83939699D01*
X182464026Y-83956430D01*
X182382876Y-83977435D01*
X182377320Y-83992822D01*
X182371261Y-84030609D01*
X182346545Y-84100533D01*
X182322042Y-84141511D01*
X182298624Y-84161666D01*
X182275165Y-84167700D01*
X182258304Y-84163986D01*
X182242986Y-84152313D01*
X182230585Y-84129131D01*
X182226195Y-84099190D01*
X182229003Y-84065607D01*
X182276948Y-83778804D01*
X182384281Y-83778804D01*
X182387090Y-83778804D01*
X182469644Y-83769035D01*
X182529507Y-83758380D01*
X182536810Y-83754991D01*
X182523499Y-83684344D01*
X182501823Y-83598309D01*
X182479413Y-83539569D01*
X182468911Y-83524853D01*
X182457004Y-83520701D01*
X182450043Y-83526990D01*
X182412247Y-83661263D01*
X182384281Y-83778804D01*
X182276948Y-83778804D01*
X182317175Y-83538164D01*
X182333759Y-83434471D01*
X182343736Y-83398274D01*
X182361075Y-83363616D01*
X182382925Y-83338005D01*
X182409499Y-83319933D01*
X182440273Y-83308698D01*
X182451249Y-83311327D01*
G37*
G36*
X182946650Y-83403831D02*
G01*
X182992546Y-83373196D01*
X183031602Y-83357021D01*
X183065535Y-83352112D01*
X183093567Y-83355122D01*
X183124275Y-83364691D01*
X183153727Y-83382031D01*
X183183077Y-83408044D01*
X183206687Y-83438139D01*
X183218065Y-83463975D01*
X183223621Y-83500368D01*
X183220466Y-83523202D01*
X183212447Y-83536760D01*
X183195655Y-83540973D01*
X183166644Y-83536078D01*
X183134106Y-83519968D01*
X183105953Y-83507103D01*
X183080922Y-83503176D01*
X183051349Y-83508959D01*
X183024700Y-83526785D01*
X182999773Y-83559841D01*
X182982608Y-83598916D01*
X182971569Y-83646562D01*
X182967594Y-83704616D01*
X182970403Y-83756395D01*
X182982320Y-83825150D01*
X183000478Y-83882129D01*
X183024133Y-83929138D01*
X183052957Y-83967665D01*
X183079942Y-83990509D01*
X183105285Y-84002895D01*
X183129893Y-84006805D01*
X183156703Y-84004077D01*
X183195655Y-83994227D01*
X183254396Y-83980244D01*
X183272823Y-83985537D01*
X183287979Y-84002653D01*
X183293070Y-84016507D01*
X183295001Y-84036175D01*
X183287919Y-84076629D01*
X183266974Y-84110364D01*
X183241435Y-84131878D01*
X183199869Y-84150237D01*
X183153254Y-84161244D01*
X183106140Y-84164891D01*
X183050148Y-84157930D01*
X183001848Y-84139723D01*
X182960247Y-84111885D01*
X182924319Y-84073590D01*
X182893749Y-84023054D01*
X182868954Y-83957689D01*
X182851035Y-83874255D01*
X182841687Y-83768974D01*
X182840954Y-83751510D01*
X182840282Y-83733986D01*
X182843666Y-83659793D01*
X182853401Y-83592938D01*
X182868981Y-83532608D01*
X182892134Y-83474914D01*
X182918164Y-83433069D01*
X182946650Y-83403831D01*
G37*
G36*
X183465605Y-83364691D02*
G01*
X183481400Y-83354318D01*
X183501997Y-83350708D01*
X183532667Y-83355444D01*
X183561229Y-83369840D01*
X183588703Y-83395465D01*
X183610655Y-83431706D01*
X183635548Y-83499176D01*
X183662892Y-83612292D01*
X183675905Y-83664393D01*
X183679684Y-83671032D01*
X183707650Y-83610887D01*
X183740739Y-83539305D01*
X183776160Y-83477287D01*
X183814430Y-83424285D01*
X183840579Y-83399678D01*
X183861523Y-83391252D01*
X183876223Y-83396002D01*
X183889488Y-83412257D01*
X183897874Y-83434101D01*
X183900724Y-83458419D01*
X183890489Y-83514433D01*
X183843326Y-83650088D01*
X183812552Y-83725621D01*
X183827939Y-83736795D01*
X183862617Y-83767970D01*
X183909089Y-83824295D01*
X183951941Y-83888059D01*
X183987430Y-83953682D01*
X184017234Y-84029335D01*
X184025226Y-84079590D01*
X184021092Y-84113816D01*
X184010621Y-84134752D01*
X183994826Y-84146664D01*
X183972042Y-84150908D01*
X183956308Y-84148116D01*
X183942672Y-84139734D01*
X183904876Y-84090764D01*
X183865003Y-84034832D01*
X183820978Y-83985190D01*
X183763581Y-83921503D01*
X183695286Y-83846965D01*
X183683836Y-83837545D01*
X183681364Y-83841246D01*
X183679684Y-83865511D01*
X183679684Y-83885111D01*
X183674428Y-83971212D01*
X183659939Y-84041169D01*
X183637674Y-84097786D01*
X183607556Y-84142506D01*
X183581045Y-84164188D01*
X183556524Y-84170509D01*
X183543590Y-84168639D01*
X183534176Y-84163487D01*
X183520612Y-84149570D01*
X183512088Y-84130567D01*
X183508958Y-84104747D01*
X183517384Y-84023597D01*
X183526887Y-83930633D01*
X183529963Y-83843162D01*
X183527605Y-83764439D01*
X183521536Y-83708829D01*
X183509095Y-83652006D01*
X183482397Y-83561917D01*
X183454119Y-83457760D01*
X183447409Y-83406639D01*
X183448813Y-83392657D01*
X183465605Y-83364691D01*
G37*
G36*
X184632903Y-83403831D02*
G01*
X184678799Y-83373196D01*
X184717855Y-83357021D01*
X184751788Y-83352112D01*
X184779820Y-83355122D01*
X184810528Y-83364691D01*
X184839979Y-83382031D01*
X184869330Y-83408044D01*
X184892940Y-83438139D01*
X184904317Y-83463975D01*
X184909874Y-83500368D01*
X184906719Y-83523202D01*
X184898700Y-83536760D01*
X184881908Y-83540973D01*
X184852897Y-83536078D01*
X184820359Y-83519968D01*
X184792206Y-83507103D01*
X184767175Y-83503176D01*
X184737602Y-83508959D01*
X184710952Y-83526785D01*
X184686025Y-83559841D01*
X184668861Y-83598916D01*
X184657822Y-83646562D01*
X184653846Y-83704616D01*
X184656655Y-83756395D01*
X184668572Y-83825150D01*
X184686730Y-83882129D01*
X184710386Y-83929138D01*
X184739209Y-83967665D01*
X184766195Y-83990509D01*
X184791537Y-84002895D01*
X184816146Y-84006805D01*
X184842956Y-84004077D01*
X184881908Y-83994227D01*
X184940648Y-83980244D01*
X184959076Y-83985537D01*
X184974232Y-84002653D01*
X184979322Y-84016507D01*
X184981254Y-84036175D01*
X184974172Y-84076629D01*
X184953227Y-84110364D01*
X184927688Y-84131878D01*
X184886121Y-84150237D01*
X184839507Y-84161244D01*
X184792393Y-84164891D01*
X184736400Y-84157930D01*
X184688101Y-84139723D01*
X184646499Y-84111885D01*
X184610572Y-84073590D01*
X184580002Y-84023054D01*
X184555206Y-83957689D01*
X184537287Y-83874255D01*
X184527939Y-83768974D01*
X184527206Y-83751510D01*
X184526535Y-83733986D01*
X184529919Y-83659793D01*
X184539654Y-83592938D01*
X184555233Y-83532608D01*
X184578386Y-83474914D01*
X184604416Y-83433069D01*
X184632903Y-83403831D01*
G37*
G36*
X185139279Y-83396870D02*
G01*
X185159910Y-83366473D01*
X185179639Y-83351157D01*
X185199424Y-83346495D01*
X185213873Y-83350040D01*
X185228794Y-83361882D01*
X185242599Y-83383901D01*
X185256522Y-83425131D01*
X185269399Y-83494811D01*
X185277865Y-83587449D01*
X185280573Y-83672437D01*
X185276360Y-83822158D01*
X185274284Y-83894881D01*
X185272208Y-83959239D01*
X185273551Y-83983053D01*
X185280674Y-83997715D01*
X185288939Y-84005462D01*
X185303836Y-84009058D01*
X185350549Y-84011018D01*
X185426467Y-84008396D01*
X185487630Y-84001249D01*
X185547775Y-83995631D01*
X185588047Y-84001838D01*
X185619155Y-84019445D01*
X185629079Y-84032224D01*
X185631734Y-84041793D01*
X185629598Y-84053162D01*
X185621964Y-84068354D01*
X185604391Y-84086200D01*
X185565004Y-84104362D01*
X185490439Y-84121538D01*
X185351554Y-84140128D01*
X185255416Y-84145352D01*
X185188258Y-84140869D01*
X185155357Y-84130897D01*
X185142088Y-84118729D01*
X185139157Y-84091160D01*
X185132990Y-83911001D01*
X185128105Y-83556360D01*
X185129448Y-83433934D01*
X185132742Y-83413329D01*
X185139279Y-83396870D01*
G37*
G36*
X186219443Y-83350708D02*
G01*
X186237909Y-83338734D01*
X186253026Y-83335321D01*
X186277002Y-83341669D01*
X186304745Y-83364019D01*
X186327581Y-83395491D01*
X186343946Y-83434605D01*
X186353270Y-83496158D01*
X186357929Y-83652897D01*
X186353791Y-83815124D01*
X186343946Y-83910268D01*
X186321653Y-83988270D01*
X186284473Y-84065607D01*
X186251954Y-84113770D01*
X186222038Y-84145058D01*
X186194225Y-84163487D01*
X186158161Y-84175015D01*
X186118693Y-84178935D01*
X186069663Y-84173884D01*
X186016599Y-84157930D01*
X185961333Y-84130463D01*
X185916079Y-84095751D01*
X185879548Y-84053512D01*
X185851093Y-84002826D01*
X185830765Y-83942212D01*
X185819312Y-83869724D01*
X185810947Y-83817944D01*
X185806090Y-83791930D01*
X185794827Y-83672498D01*
X185784324Y-83486385D01*
X185789209Y-83405296D01*
X185797374Y-83383030D01*
X185812290Y-83363286D01*
X185834841Y-83347312D01*
X185858513Y-83342281D01*
X185882217Y-83346642D01*
X185901905Y-83359604D01*
X185918658Y-83382887D01*
X185927973Y-83412262D01*
X185937852Y-83478055D01*
X185946624Y-83602522D01*
X185956956Y-83800610D01*
X185966224Y-83894209D01*
X185976646Y-83944848D01*
X185989090Y-83977996D01*
X186002616Y-83998440D01*
X186033530Y-84020535D01*
X186069722Y-84027810D01*
X186093560Y-84023950D01*
X186114480Y-84012423D01*
X186134498Y-83987898D01*
X186153517Y-83944369D01*
X186170245Y-83873461D01*
X186182458Y-83764900D01*
X186187264Y-83606674D01*
X186184455Y-83475211D01*
X186184455Y-83449993D01*
X186188954Y-83405711D01*
X186200979Y-83373651D01*
X186219443Y-83350708D01*
G37*
G36*
X186872332Y-83351134D02*
G01*
X186914347Y-83360212D01*
X186949790Y-83374460D01*
X186971532Y-83390934D01*
X186990396Y-83422759D01*
X187001925Y-83460653D01*
X187005783Y-83500429D01*
X187003165Y-83539490D01*
X186995952Y-83571076D01*
X186982829Y-83602097D01*
X186958217Y-83644471D01*
X186927442Y-83693442D01*
X186930416Y-83697567D01*
X186947042Y-83707424D01*
X186973073Y-83725377D01*
X186997046Y-83752026D01*
X187019033Y-83789307D01*
X187040563Y-83850332D01*
X187047732Y-83914481D01*
X187046999Y-83926388D01*
X187046327Y-83938295D01*
X187037177Y-83982998D01*
X187017701Y-84023130D01*
X186987046Y-84059808D01*
X186943184Y-84093534D01*
X186883091Y-84124155D01*
X186802939Y-84150908D01*
X186737408Y-84163430D01*
X186667201Y-84167700D01*
X186600964Y-84164050D01*
X186573473Y-84156526D01*
X186551064Y-84146756D01*
X186546912Y-84083742D01*
X186529234Y-83834736D01*
X186667201Y-83834736D01*
X186667201Y-83890729D01*
X186671414Y-83997035D01*
X186674223Y-84047411D01*
X186704998Y-84043197D01*
X186792285Y-84026839D01*
X186854658Y-84004057D01*
X186880713Y-83989050D01*
X186902224Y-83969741D01*
X186918086Y-83947343D01*
X186924633Y-83927060D01*
X186926038Y-83911673D01*
X186919125Y-83870826D01*
X186899560Y-83840446D01*
X186865893Y-83817944D01*
X186842104Y-83811018D01*
X186802939Y-83808175D01*
X186755284Y-83811926D01*
X186704998Y-83823562D01*
X186667201Y-83834736D01*
X186529234Y-83834736D01*
X186514733Y-83630488D01*
X186507591Y-83505985D01*
X186636427Y-83505985D01*
X186653218Y-83598309D01*
X186671929Y-83679502D01*
X186679780Y-83692037D01*
X186682588Y-83692037D01*
X186724471Y-83684549D01*
X186791704Y-83655645D01*
X186821519Y-83637244D01*
X186843483Y-83617909D01*
X186859999Y-83593629D01*
X186867297Y-83566130D01*
X186867297Y-83553551D01*
X186863748Y-83531113D01*
X186853657Y-83513813D01*
X186836461Y-83500368D01*
X186814173Y-83493647D01*
X186767951Y-83490598D01*
X186711945Y-83493707D01*
X186654623Y-83503176D01*
X186636427Y-83505985D01*
X186507591Y-83505985D01*
X186506306Y-83483576D01*
X186506306Y-83472402D01*
X186513796Y-83448396D01*
X186531816Y-83426704D01*
X186563703Y-83406639D01*
X186634163Y-83380883D01*
X186745542Y-83354860D01*
X186822479Y-83347899D01*
X186872332Y-83351134D01*
G37*
D11*
G36*
X183031045Y-84848571D02*
G01*
X183045283Y-84839335D01*
X183054553Y-84836969D01*
X183068105Y-84842025D01*
X183079520Y-84859988D01*
X183087892Y-84900839D01*
X183098517Y-85138304D01*
X183099188Y-85188007D01*
X183099921Y-85236245D01*
X183094620Y-85423181D01*
X183081725Y-85538740D01*
X183073763Y-85574811D01*
X183061147Y-85610059D01*
X183045352Y-85640560D01*
X183034647Y-85652008D01*
X183020969Y-85655122D01*
X182999384Y-85648802D01*
X182967898Y-85624195D01*
X182921474Y-85568872D01*
X182854489Y-85466222D01*
X182760423Y-85295963D01*
X182718230Y-85211516D01*
X182720734Y-85292177D01*
X182724793Y-85373499D01*
X182727512Y-85389263D01*
X182731489Y-85404046D01*
X182733374Y-85437745D01*
X182727756Y-85519017D01*
X182714497Y-85580783D01*
X182693768Y-85622930D01*
X182666817Y-85650542D01*
X182646085Y-85662587D01*
X182626456Y-85666296D01*
X182610059Y-85662763D01*
X182596181Y-85651934D01*
X182584141Y-85631552D01*
X182573934Y-85598840D01*
X182569975Y-85551013D01*
X182575532Y-85465467D01*
X182582571Y-85363362D01*
X182585362Y-85211088D01*
X182583958Y-85074007D01*
X182582554Y-85004031D01*
X182585068Y-84961945D01*
X182591041Y-84937536D01*
X182606398Y-84909709D01*
X182622177Y-84895817D01*
X182639035Y-84891557D01*
X182658297Y-84896217D01*
X182678297Y-84911769D01*
X182732530Y-84987718D01*
X182870211Y-85219881D01*
X182948087Y-85352905D01*
X182960825Y-85368625D01*
X182960275Y-85369174D01*
X182961680Y-85336263D01*
X182964488Y-85253709D01*
X182967297Y-85152287D01*
X182972854Y-84948954D01*
X182994042Y-84903831D01*
X183016289Y-84863964D01*
X183031045Y-84848571D01*
G37*
G36*
X183382876Y-84994139D02*
G01*
X183389837Y-85075289D01*
X183396859Y-85157904D01*
X183398447Y-85180314D01*
X183404125Y-85182573D01*
X183460981Y-85170549D01*
X183545969Y-85165781D01*
X183589206Y-85167702D01*
X183621929Y-85172803D01*
X183657510Y-85185300D01*
X183674388Y-85199870D01*
X183679448Y-85216645D01*
X183673907Y-85235500D01*
X183652337Y-85262868D01*
X183623761Y-85286987D01*
X183582484Y-85292787D01*
X183470987Y-85306038D01*
X183393501Y-85318799D01*
X183389837Y-85420954D01*
X183389837Y-85467116D01*
X183391815Y-85516444D01*
X183394905Y-85527260D01*
X183412163Y-85533038D01*
X183480207Y-85536481D01*
X183587674Y-85529520D01*
X183663572Y-85521093D01*
X183686662Y-85524028D01*
X183714680Y-85533855D01*
X183740850Y-85552757D01*
X183748019Y-85572018D01*
X183743131Y-85590687D01*
X183725122Y-85615249D01*
X183709692Y-85626129D01*
X183673023Y-85639279D01*
X183601107Y-85654389D01*
X183495086Y-85667857D01*
X183386479Y-85673318D01*
X183298792Y-85669347D01*
X183269426Y-85661899D01*
X183248848Y-85650115D01*
X183246039Y-85502165D01*
X183236270Y-85013801D01*
X183238306Y-84968788D01*
X183243292Y-84940528D01*
X183254633Y-84914023D01*
X183270427Y-84893723D01*
X183290919Y-84878613D01*
X183331808Y-84862854D01*
X183405835Y-84848204D01*
X183499808Y-84842587D01*
X183577261Y-84845735D01*
X183631697Y-84853821D01*
X183668518Y-84865118D01*
X183695986Y-84883815D01*
X183703201Y-84901693D01*
X183697059Y-84921989D01*
X183673220Y-84950847D01*
X183649007Y-84963675D01*
X183597932Y-84972402D01*
X183382876Y-84994139D01*
G37*
G36*
X184180717Y-84861494D02*
G01*
X184205303Y-84866400D01*
X184266939Y-84889995D01*
X184318847Y-84924132D01*
X184362445Y-84969344D01*
X184398341Y-85027169D01*
X184426282Y-85100019D01*
X184448395Y-85210075D01*
X184455713Y-85320204D01*
X184450157Y-85398911D01*
X184437225Y-85454800D01*
X184417328Y-85507608D01*
X184390317Y-85557791D01*
X184356818Y-85603900D01*
X184323790Y-85636376D01*
X184290971Y-85657747D01*
X184259760Y-85668535D01*
X184231315Y-85671913D01*
X184183274Y-85665859D01*
X184132921Y-85646828D01*
X184078909Y-85612503D01*
X184020106Y-85559378D01*
X183966831Y-85492849D01*
X183928235Y-85420635D01*
X183903480Y-85341636D01*
X183898555Y-85306964D01*
X183896397Y-85241863D01*
X183896833Y-85232032D01*
X184033234Y-85232032D01*
X184036516Y-85286161D01*
X184045751Y-85332233D01*
X184066639Y-85393189D01*
X184090612Y-85442203D01*
X184117254Y-85481099D01*
X184150075Y-85513810D01*
X184183177Y-85533414D01*
X184217454Y-85542098D01*
X184228506Y-85542098D01*
X184257642Y-85537541D01*
X184281476Y-85524314D01*
X184301394Y-85501452D01*
X184317519Y-85466046D01*
X184328707Y-85413688D01*
X184332920Y-85328569D01*
X184328465Y-85214275D01*
X184317594Y-85143005D01*
X184294015Y-85070192D01*
X184269286Y-85025282D01*
X184244199Y-85000001D01*
X184216182Y-84986770D01*
X184182344Y-84982172D01*
X184145380Y-84986552D01*
X184115140Y-84998977D01*
X184090081Y-85019357D01*
X184068843Y-85052081D01*
X184049232Y-85106796D01*
X184037288Y-85167570D01*
X184033234Y-85232032D01*
X183896833Y-85232032D01*
X183900768Y-85143313D01*
X183911845Y-85076266D01*
X183934147Y-85006491D01*
X183961584Y-84953296D01*
X183993465Y-84913603D01*
X184029778Y-84885109D01*
X184071214Y-84866461D01*
X184094238Y-84861515D01*
X184136182Y-84859378D01*
X184180717Y-84861494D01*
G37*
G36*
X185058260Y-84848571D02*
G01*
X185072499Y-84839335D01*
X185081769Y-84836969D01*
X185095321Y-84842025D01*
X185106735Y-84859988D01*
X185115108Y-84900839D01*
X185125732Y-85138304D01*
X185126404Y-85188007D01*
X185127137Y-85236245D01*
X185121835Y-85423181D01*
X185108941Y-85538740D01*
X185100979Y-85574811D01*
X185088363Y-85610059D01*
X185072568Y-85640560D01*
X185061863Y-85652008D01*
X185048185Y-85655122D01*
X185026599Y-85648802D01*
X184995113Y-85624195D01*
X184948690Y-85568872D01*
X184881705Y-85466222D01*
X184787639Y-85295963D01*
X184745446Y-85211516D01*
X184747950Y-85292177D01*
X184752009Y-85373499D01*
X184754727Y-85389263D01*
X184758704Y-85404046D01*
X184760589Y-85437745D01*
X184754972Y-85519017D01*
X184741712Y-85580783D01*
X184720984Y-85622930D01*
X184694033Y-85650542D01*
X184673300Y-85662587D01*
X184653672Y-85666296D01*
X184637274Y-85662763D01*
X184623396Y-85651934D01*
X184611357Y-85631552D01*
X184601150Y-85598840D01*
X184597191Y-85551013D01*
X184602747Y-85465467D01*
X184609786Y-85363362D01*
X184612578Y-85211088D01*
X184611174Y-85074007D01*
X184609769Y-85004031D01*
X184612284Y-84961945D01*
X184618257Y-84937536D01*
X184633614Y-84909709D01*
X184649392Y-84895817D01*
X184666250Y-84891557D01*
X184685513Y-84896217D01*
X184705512Y-84911769D01*
X184759746Y-84987718D01*
X184897426Y-85219881D01*
X184975302Y-85352905D01*
X184988040Y-85368625D01*
X184987491Y-85369174D01*
X184988895Y-85336263D01*
X184991704Y-85253709D01*
X184994513Y-85152287D01*
X185000069Y-84948954D01*
X185021257Y-84903831D01*
X185043504Y-84863964D01*
X185058260Y-84848571D01*
G37*
G36*
X185303175Y-84869698D02*
G01*
X185325233Y-84852809D01*
X185342376Y-84848204D01*
X185359271Y-84852378D01*
X185378768Y-84866889D01*
X185400184Y-84897330D01*
X185411374Y-84936376D01*
X185415139Y-84993757D01*
X185417053Y-85145326D01*
X185414507Y-85319752D01*
X185410031Y-85371006D01*
X185395700Y-85418026D01*
X185378959Y-85445740D01*
X185360530Y-85460219D01*
X185339567Y-85464856D01*
X185323657Y-85462219D01*
X185304945Y-85453377D01*
X185282726Y-85433561D01*
X185272644Y-85411184D01*
X185268942Y-85374318D01*
X185264890Y-85261463D01*
X185264157Y-85209684D01*
X185263485Y-85160713D01*
X185267902Y-84975587D01*
X185276125Y-84913906D01*
X185286277Y-84891033D01*
X185303175Y-84869698D01*
G37*
G36*
X185271851Y-85650481D02*
G01*
X185271118Y-85644986D01*
X185270446Y-85639185D01*
X185275133Y-85610854D01*
X185289131Y-85586123D01*
X185310497Y-85568816D01*
X185336758Y-85563103D01*
X185363008Y-85568818D01*
X185384324Y-85586123D01*
X185398369Y-85610859D01*
X185403070Y-85639185D01*
X185397294Y-85669705D01*
X185380050Y-85695116D01*
X185356765Y-85710852D01*
X185338162Y-85715266D01*
X185318343Y-85710767D01*
X185294931Y-85695177D01*
X185279148Y-85675513D01*
X185271851Y-85650481D01*
G37*
G36*
X185907981Y-84924286D02*
G01*
X185911149Y-84891559D01*
X185920193Y-84863653D01*
X185935642Y-84843122D01*
X185954692Y-84836969D01*
X185970293Y-84840550D01*
X185988215Y-84852845D01*
X186006166Y-84875037D01*
X186032034Y-84922129D01*
X186068449Y-85007512D01*
X186101440Y-85101836D01*
X186131470Y-85209668D01*
X186158086Y-85332416D01*
X186176902Y-85426388D01*
X186179945Y-85435792D01*
X186187729Y-85411474D01*
X186242411Y-85160286D01*
X186273644Y-85020092D01*
X186291442Y-84952923D01*
X186311131Y-84902685D01*
X186331010Y-84872568D01*
X186357339Y-84851118D01*
X186377233Y-84845396D01*
X186396961Y-84849235D01*
X186410999Y-84860172D01*
X186417778Y-84880081D01*
X186421135Y-84931247D01*
X186414191Y-85043073D01*
X186390300Y-85191854D01*
X186354478Y-85343906D01*
X186309089Y-85490136D01*
X186279008Y-85563173D01*
X186243632Y-85627339D01*
X186214730Y-85667241D01*
X186195582Y-85684431D01*
X186182754Y-85688705D01*
X186168401Y-85683807D01*
X186139645Y-85661777D01*
X186113282Y-85634718D01*
X186099834Y-85614760D01*
X186049337Y-85443852D01*
X185975270Y-85194907D01*
X185932039Y-85050783D01*
X185912706Y-84967386D01*
X185907981Y-84924286D01*
G37*
G36*
X186891558Y-84837688D02*
G01*
X186928988Y-84848059D01*
X186963965Y-84865301D01*
X186995071Y-84888711D01*
X187020865Y-84917657D01*
X187041695Y-84952801D01*
X187060313Y-85001781D01*
X187075383Y-85067175D01*
X187085627Y-85152785D01*
X187089445Y-85262868D01*
X187087220Y-85331186D01*
X187081018Y-85389080D01*
X187056619Y-85502755D01*
X187029056Y-85579895D01*
X187008099Y-85613937D01*
X186981225Y-85642488D01*
X186947845Y-85666051D01*
X186910526Y-85683093D01*
X186869646Y-85693493D01*
X186824441Y-85697070D01*
X186812473Y-85696399D01*
X186800628Y-85695666D01*
X186742204Y-85685997D01*
X186696080Y-85669368D01*
X186659924Y-85646650D01*
X186632018Y-85617948D01*
X186611400Y-85582581D01*
X186588190Y-85514328D01*
X186569269Y-85411367D01*
X186565055Y-85313182D01*
X186567799Y-85229284D01*
X186727049Y-85229284D01*
X186731263Y-85315868D01*
X186745184Y-85437379D01*
X186763264Y-85505996D01*
X186782694Y-85544390D01*
X186802363Y-85563059D01*
X186823037Y-85568660D01*
X186847728Y-85561367D01*
X186878968Y-85534344D01*
X186898004Y-85503345D01*
X186915212Y-85453079D01*
X186929039Y-85376240D01*
X186937220Y-85264150D01*
X186937220Y-85223667D01*
X186932881Y-85138173D01*
X186921758Y-85078800D01*
X186906153Y-85039105D01*
X186887456Y-85013801D01*
X186867286Y-84999979D01*
X186846789Y-84994811D01*
X186838424Y-84994811D01*
X186806473Y-85001099D01*
X186779480Y-85020080D01*
X186756053Y-85054895D01*
X186741172Y-85096163D01*
X186730931Y-85152910D01*
X186727049Y-85229284D01*
X186567799Y-85229284D01*
X186569840Y-85166876D01*
X186580504Y-85093119D01*
X186604349Y-85013438D01*
X186633038Y-84953567D01*
X186665683Y-84909631D01*
X186707086Y-84874760D01*
X186757392Y-84850028D01*
X186818579Y-84835565D01*
X186851003Y-84834160D01*
X186891558Y-84837688D01*
G37*
G36*
X187227869Y-85586001D02*
G01*
X187254596Y-85569584D01*
X187293693Y-85564508D01*
X187332020Y-85571912D01*
X187355303Y-85588993D01*
X187370207Y-85616847D01*
X187375331Y-85650420D01*
X187368920Y-85683563D01*
X187349563Y-85711847D01*
X187328974Y-85728550D01*
X187307560Y-85737103D01*
X187284412Y-85738408D01*
X187250473Y-85729030D01*
X187220847Y-85707756D01*
X187207500Y-85683548D01*
X187206315Y-85644680D01*
X187215543Y-85606074D01*
X187227869Y-85586001D01*
G37*
G36*
X187744993Y-84848204D02*
G01*
X187777477Y-84845396D01*
X187829055Y-84851340D01*
X187872245Y-84868334D01*
X187908941Y-84896320D01*
X187929563Y-84923455D01*
X187947226Y-84966967D01*
X187957792Y-85015503D01*
X187961331Y-85065580D01*
X187959093Y-85102440D01*
X187952843Y-85133297D01*
X187932411Y-85185654D01*
X187897341Y-85248249D01*
X187843900Y-85323132D01*
X187767768Y-85412466D01*
X187696205Y-85495578D01*
X187685703Y-85513278D01*
X187696327Y-85514132D01*
X187789811Y-85504302D01*
X187834874Y-85501493D01*
X187888185Y-85505349D01*
X187934952Y-85516392D01*
X187974571Y-85534995D01*
X187994609Y-85555593D01*
X188002121Y-85572382D01*
X188004684Y-85591618D01*
X188002560Y-85609865D01*
X187996135Y-85627461D01*
X187981222Y-85649361D01*
X187966460Y-85659152D01*
X187943991Y-85662964D01*
X187885188Y-85664891D01*
X187714645Y-85671913D01*
X187581655Y-85678935D01*
X187540711Y-85674787D01*
X187522915Y-85665746D01*
X187510723Y-85649274D01*
X187498613Y-85617447D01*
X187491167Y-85581904D01*
X187488721Y-85546861D01*
X187493467Y-85507636D01*
X187507100Y-85474626D01*
X187531791Y-85440585D01*
X187585807Y-85380409D01*
X187698426Y-85256879D01*
X187762456Y-85175917D01*
X187795299Y-85122961D01*
X187811549Y-85083613D01*
X187816128Y-85054406D01*
X187812883Y-85031837D01*
X187804038Y-85015877D01*
X187790311Y-85005304D01*
X187773264Y-85001772D01*
X187756147Y-85004679D01*
X187737971Y-85014045D01*
X187675811Y-85067901D01*
X187610598Y-85123222D01*
X187594428Y-85130880D01*
X187578846Y-85133297D01*
X187557704Y-85128077D01*
X187539584Y-85111620D01*
X187527881Y-85087855D01*
X187523709Y-85057154D01*
X187527239Y-85026672D01*
X187537875Y-84997559D01*
X187555052Y-84969762D01*
X187583170Y-84939188D01*
X187625252Y-84905235D01*
X187691387Y-84865936D01*
X187744993Y-84848204D01*
G37*
D10*
X189323435Y-91612070D02*
X189371054Y-91469213D01*
X189371054Y-91469213D02*
X189371054Y-91231118D01*
X189371054Y-91231118D02*
X189323435Y-91135880D01*
X189323435Y-91135880D02*
X189275815Y-91088261D01*
X189275815Y-91088261D02*
X189180577Y-91040642D01*
X189180577Y-91040642D02*
X189085339Y-91040642D01*
X189085339Y-91040642D02*
X188990101Y-91088261D01*
X188990101Y-91088261D02*
X188942482Y-91135880D01*
X188942482Y-91135880D02*
X188894863Y-91231118D01*
X188894863Y-91231118D02*
X188847244Y-91421594D01*
X188847244Y-91421594D02*
X188799625Y-91516832D01*
X188799625Y-91516832D02*
X188752006Y-91564451D01*
X188752006Y-91564451D02*
X188656768Y-91612070D01*
X188656768Y-91612070D02*
X188561530Y-91612070D01*
X188561530Y-91612070D02*
X188466292Y-91564451D01*
X188466292Y-91564451D02*
X188418673Y-91516832D01*
X188418673Y-91516832D02*
X188371054Y-91421594D01*
X188371054Y-91421594D02*
X188371054Y-91183499D01*
X188371054Y-91183499D02*
X188418673Y-91040642D01*
X188371054Y-90707308D02*
X189371054Y-90469213D01*
X189371054Y-90469213D02*
X188656768Y-90278737D01*
X188656768Y-90278737D02*
X189371054Y-90088261D01*
X189371054Y-90088261D02*
X188371054Y-89850166D01*
X188466292Y-89516832D02*
X188418673Y-89469213D01*
X188418673Y-89469213D02*
X188371054Y-89373975D01*
X188371054Y-89373975D02*
X188371054Y-89135880D01*
X188371054Y-89135880D02*
X188418673Y-89040642D01*
X188418673Y-89040642D02*
X188466292Y-88993023D01*
X188466292Y-88993023D02*
X188561530Y-88945404D01*
X188561530Y-88945404D02*
X188656768Y-88945404D01*
X188656768Y-88945404D02*
X188799625Y-88993023D01*
X188799625Y-88993023D02*
X189371054Y-89564451D01*
X189371054Y-89564451D02*
X189371054Y-88945404D01*
D12*
%TO.C,U5*%
X168800000Y-67550000D02*
X173200000Y-67550000D01*
X168800000Y-74450000D02*
X173200000Y-74450000D01*
D13*
X166910000Y-68075000D02*
G75*
G02*
X166710000Y-68075000I-100000J0D01*
G01*
X166710000Y-68075000D02*
G75*
G02*
X166910000Y-68075000I100000J0D01*
G01*
D14*
%TO.C,C5*%
X179463587Y-89883594D02*
X179463587Y-90099266D01*
X180183587Y-89883594D02*
X180183587Y-90099266D01*
D12*
%TO.C,J1*%
X166400000Y-83152570D02*
X166400000Y-92092570D01*
X166400000Y-83152570D02*
X167830000Y-83152570D01*
X166400000Y-92092570D02*
X167830000Y-92092570D01*
X171850000Y-83152570D02*
X170170000Y-83152570D01*
X171850000Y-92092570D02*
X170170000Y-92092570D01*
D13*
X175100000Y-84422570D02*
G75*
G02*
X174900000Y-84422570I-100000J0D01*
G01*
X174900000Y-84422570D02*
G75*
G02*
X175100000Y-84422570I100000J0D01*
G01*
D14*
%TO.C,C10*%
X183607836Y-88140000D02*
X183392164Y-88140000D01*
X183607836Y-88860000D02*
X183392164Y-88860000D01*
D12*
%TO.C,U1*%
X168800000Y-75348396D02*
X173200000Y-75348396D01*
X168800000Y-82248396D02*
X173200000Y-82248396D01*
D13*
X166910000Y-75873396D02*
G75*
G02*
X166710000Y-75873396I-100000J0D01*
G01*
X166710000Y-75873396D02*
G75*
G02*
X166910000Y-75873396I100000J0D01*
G01*
D12*
%TO.C,SW2*%
X184831235Y-87853738D02*
X185061235Y-87853738D01*
X184831235Y-91853738D02*
X184831235Y-87853738D01*
X184831235Y-91853738D02*
X185061235Y-91853738D01*
X187501235Y-87853738D02*
X187731235Y-87853738D01*
X187731235Y-87853738D02*
X187731235Y-91853738D01*
X187731235Y-91853738D02*
X187501235Y-91853738D01*
D14*
%TO.C,U3*%
X182500000Y-89605677D02*
X181850000Y-89605677D01*
X182500000Y-89605677D02*
X183150000Y-89605677D01*
X182500000Y-92725677D02*
X181850000Y-92725677D01*
X182500000Y-92725677D02*
X183150000Y-92725677D01*
X181337500Y-89655677D02*
X181097500Y-89325677D01*
X181577500Y-89325677D01*
X181337500Y-89655677D01*
G36*
X181337500Y-89655677D02*
G01*
X181097500Y-89325677D01*
X181577500Y-89325677D01*
X181337500Y-89655677D01*
G37*
%TO.C,D1*%
X174981590Y-88707116D02*
X174981590Y-92567116D01*
X176981590Y-88707116D02*
X174981590Y-88707116D01*
X176981590Y-88707116D02*
X176981590Y-92567116D01*
D12*
%TO.C,U4*%
X181683227Y-62546067D02*
X197083227Y-62546067D01*
X181683227Y-67046067D02*
X181683227Y-62546067D01*
X197083227Y-62546067D02*
X197083227Y-67046067D01*
X197083227Y-82546067D02*
X181683227Y-82546067D01*
D13*
X181033227Y-68846067D02*
G75*
G02*
X180833227Y-68846067I-100000J0D01*
G01*
X180833227Y-68846067D02*
G75*
G02*
X181033227Y-68846067I100000J0D01*
G01*
D14*
%TO.C,C3*%
X178555544Y-92081549D02*
X178555544Y-92297221D01*
X179275544Y-92081549D02*
X179275544Y-92297221D01*
%TO.C,C6*%
X179598278Y-92295964D02*
X179598278Y-92080292D01*
X180318278Y-92295964D02*
X180318278Y-92080292D01*
%TO.C,R2*%
X177404613Y-90143641D02*
X177404613Y-89836359D01*
X178164613Y-90143641D02*
X178164613Y-89836359D01*
%TO.C,R1*%
X178404613Y-90143641D02*
X178404613Y-89836359D01*
X179164613Y-90143641D02*
X179164613Y-89836359D01*
%TO.C,C4*%
X177511743Y-92083723D02*
X177511743Y-92299395D01*
X178231743Y-92083723D02*
X178231743Y-92299395D01*
%TD*%
M02*
