%TF.GenerationSoftware,KiCad,Pcbnew,8.99.0-3218-gdd8f7901b1*%
%TF.CreationDate,2025-01-23T14:21:22-05:00*%
%TF.ProjectId,hack_matrix,6861636b-5f6d-4617-9472-69782e6b6963,rev?*%
%TF.SameCoordinates,Original*%
%TF.FileFunction,Other,Comment*%
%FSLAX46Y46*%
G04 Gerber Fmt 4.6, Leading zero omitted, Abs format (unit mm)*
G04 Created by KiCad (PCBNEW 8.99.0-3218-gdd8f7901b1) date 2025-01-23 14:21:22*
%MOMM*%
%LPD*%
G01*
G04 APERTURE LIST*
%ADD10C,0.150000*%
G04 APERTURE END LIST*
D10*
X184777248Y-57291380D02*
X184777248Y-56291380D01*
X185348676Y-57291380D02*
X184920105Y-56719951D01*
X185348676Y-56291380D02*
X184777248Y-56862808D01*
X186158200Y-57243761D02*
X186062962Y-57291380D01*
X186062962Y-57291380D02*
X185872486Y-57291380D01*
X185872486Y-57291380D02*
X185777248Y-57243761D01*
X185777248Y-57243761D02*
X185729629Y-57148522D01*
X185729629Y-57148522D02*
X185729629Y-56767570D01*
X185729629Y-56767570D02*
X185777248Y-56672332D01*
X185777248Y-56672332D02*
X185872486Y-56624713D01*
X185872486Y-56624713D02*
X186062962Y-56624713D01*
X186062962Y-56624713D02*
X186158200Y-56672332D01*
X186158200Y-56672332D02*
X186205819Y-56767570D01*
X186205819Y-56767570D02*
X186205819Y-56862808D01*
X186205819Y-56862808D02*
X185729629Y-56958046D01*
X187015343Y-57243761D02*
X186920105Y-57291380D01*
X186920105Y-57291380D02*
X186729629Y-57291380D01*
X186729629Y-57291380D02*
X186634391Y-57243761D01*
X186634391Y-57243761D02*
X186586772Y-57148522D01*
X186586772Y-57148522D02*
X186586772Y-56767570D01*
X186586772Y-56767570D02*
X186634391Y-56672332D01*
X186634391Y-56672332D02*
X186729629Y-56624713D01*
X186729629Y-56624713D02*
X186920105Y-56624713D01*
X186920105Y-56624713D02*
X187015343Y-56672332D01*
X187015343Y-56672332D02*
X187062962Y-56767570D01*
X187062962Y-56767570D02*
X187062962Y-56862808D01*
X187062962Y-56862808D02*
X186586772Y-56958046D01*
X187491534Y-56624713D02*
X187491534Y-57624713D01*
X187491534Y-56672332D02*
X187586772Y-56624713D01*
X187586772Y-56624713D02*
X187777248Y-56624713D01*
X187777248Y-56624713D02*
X187872486Y-56672332D01*
X187872486Y-56672332D02*
X187920105Y-56719951D01*
X187920105Y-56719951D02*
X187967724Y-56815189D01*
X187967724Y-56815189D02*
X187967724Y-57100903D01*
X187967724Y-57100903D02*
X187920105Y-57196141D01*
X187920105Y-57196141D02*
X187872486Y-57243761D01*
X187872486Y-57243761D02*
X187777248Y-57291380D01*
X187777248Y-57291380D02*
X187586772Y-57291380D01*
X187586772Y-57291380D02*
X187491534Y-57243761D01*
X188539153Y-57291380D02*
X188443915Y-57243761D01*
X188443915Y-57243761D02*
X188396296Y-57196141D01*
X188396296Y-57196141D02*
X188348677Y-57100903D01*
X188348677Y-57100903D02*
X188348677Y-56815189D01*
X188348677Y-56815189D02*
X188396296Y-56719951D01*
X188396296Y-56719951D02*
X188443915Y-56672332D01*
X188443915Y-56672332D02*
X188539153Y-56624713D01*
X188539153Y-56624713D02*
X188682010Y-56624713D01*
X188682010Y-56624713D02*
X188777248Y-56672332D01*
X188777248Y-56672332D02*
X188824867Y-56719951D01*
X188824867Y-56719951D02*
X188872486Y-56815189D01*
X188872486Y-56815189D02*
X188872486Y-57100903D01*
X188872486Y-57100903D02*
X188824867Y-57196141D01*
X188824867Y-57196141D02*
X188777248Y-57243761D01*
X188777248Y-57243761D02*
X188682010Y-57291380D01*
X188682010Y-57291380D02*
X188539153Y-57291380D01*
X189729629Y-56624713D02*
X189729629Y-57291380D01*
X189301058Y-56624713D02*
X189301058Y-57148522D01*
X189301058Y-57148522D02*
X189348677Y-57243761D01*
X189348677Y-57243761D02*
X189443915Y-57291380D01*
X189443915Y-57291380D02*
X189586772Y-57291380D01*
X189586772Y-57291380D02*
X189682010Y-57243761D01*
X189682010Y-57243761D02*
X189729629Y-57196141D01*
X190062963Y-56624713D02*
X190443915Y-56624713D01*
X190205820Y-56291380D02*
X190205820Y-57148522D01*
X190205820Y-57148522D02*
X190253439Y-57243761D01*
X190253439Y-57243761D02*
X190348677Y-57291380D01*
X190348677Y-57291380D02*
X190443915Y-57291380D01*
X191491535Y-57005665D02*
X191967725Y-57005665D01*
X191396297Y-57291380D02*
X191729630Y-56291380D01*
X191729630Y-56291380D02*
X192062963Y-57291380D01*
X192396297Y-57291380D02*
X192396297Y-56624713D01*
X192396297Y-56815189D02*
X192443916Y-56719951D01*
X192443916Y-56719951D02*
X192491535Y-56672332D01*
X192491535Y-56672332D02*
X192586773Y-56624713D01*
X192586773Y-56624713D02*
X192682011Y-56624713D01*
X193396297Y-57243761D02*
X193301059Y-57291380D01*
X193301059Y-57291380D02*
X193110583Y-57291380D01*
X193110583Y-57291380D02*
X193015345Y-57243761D01*
X193015345Y-57243761D02*
X192967726Y-57148522D01*
X192967726Y-57148522D02*
X192967726Y-56767570D01*
X192967726Y-56767570D02*
X193015345Y-56672332D01*
X193015345Y-56672332D02*
X193110583Y-56624713D01*
X193110583Y-56624713D02*
X193301059Y-56624713D01*
X193301059Y-56624713D02*
X193396297Y-56672332D01*
X193396297Y-56672332D02*
X193443916Y-56767570D01*
X193443916Y-56767570D02*
X193443916Y-56862808D01*
X193443916Y-56862808D02*
X192967726Y-56958046D01*
X194301059Y-57291380D02*
X194301059Y-56767570D01*
X194301059Y-56767570D02*
X194253440Y-56672332D01*
X194253440Y-56672332D02*
X194158202Y-56624713D01*
X194158202Y-56624713D02*
X193967726Y-56624713D01*
X193967726Y-56624713D02*
X193872488Y-56672332D01*
X194301059Y-57243761D02*
X194205821Y-57291380D01*
X194205821Y-57291380D02*
X193967726Y-57291380D01*
X193967726Y-57291380D02*
X193872488Y-57243761D01*
X193872488Y-57243761D02*
X193824869Y-57148522D01*
X193824869Y-57148522D02*
X193824869Y-57053284D01*
X193824869Y-57053284D02*
X193872488Y-56958046D01*
X193872488Y-56958046D02*
X193967726Y-56910427D01*
X193967726Y-56910427D02*
X194205821Y-56910427D01*
X194205821Y-56910427D02*
X194301059Y-56862808D01*
X186787249Y-64690665D02*
X187263439Y-64690665D01*
X186692011Y-64976380D02*
X187025344Y-63976380D01*
X187025344Y-63976380D02*
X187358677Y-64976380D01*
X187692011Y-64309713D02*
X187692011Y-64976380D01*
X187692011Y-64404951D02*
X187739630Y-64357332D01*
X187739630Y-64357332D02*
X187834868Y-64309713D01*
X187834868Y-64309713D02*
X187977725Y-64309713D01*
X187977725Y-64309713D02*
X188072963Y-64357332D01*
X188072963Y-64357332D02*
X188120582Y-64452570D01*
X188120582Y-64452570D02*
X188120582Y-64976380D01*
X188453916Y-64309713D02*
X188834868Y-64309713D01*
X188596773Y-63976380D02*
X188596773Y-64833522D01*
X188596773Y-64833522D02*
X188644392Y-64928761D01*
X188644392Y-64928761D02*
X188739630Y-64976380D01*
X188739630Y-64976380D02*
X188834868Y-64976380D01*
X189549154Y-64928761D02*
X189453916Y-64976380D01*
X189453916Y-64976380D02*
X189263440Y-64976380D01*
X189263440Y-64976380D02*
X189168202Y-64928761D01*
X189168202Y-64928761D02*
X189120583Y-64833522D01*
X189120583Y-64833522D02*
X189120583Y-64452570D01*
X189120583Y-64452570D02*
X189168202Y-64357332D01*
X189168202Y-64357332D02*
X189263440Y-64309713D01*
X189263440Y-64309713D02*
X189453916Y-64309713D01*
X189453916Y-64309713D02*
X189549154Y-64357332D01*
X189549154Y-64357332D02*
X189596773Y-64452570D01*
X189596773Y-64452570D02*
X189596773Y-64547808D01*
X189596773Y-64547808D02*
X189120583Y-64643046D01*
X190025345Y-64309713D02*
X190025345Y-64976380D01*
X190025345Y-64404951D02*
X190072964Y-64357332D01*
X190072964Y-64357332D02*
X190168202Y-64309713D01*
X190168202Y-64309713D02*
X190311059Y-64309713D01*
X190311059Y-64309713D02*
X190406297Y-64357332D01*
X190406297Y-64357332D02*
X190453916Y-64452570D01*
X190453916Y-64452570D02*
X190453916Y-64976380D01*
X190930107Y-64309713D02*
X190930107Y-64976380D01*
X190930107Y-64404951D02*
X190977726Y-64357332D01*
X190977726Y-64357332D02*
X191072964Y-64309713D01*
X191072964Y-64309713D02*
X191215821Y-64309713D01*
X191215821Y-64309713D02*
X191311059Y-64357332D01*
X191311059Y-64357332D02*
X191358678Y-64452570D01*
X191358678Y-64452570D02*
X191358678Y-64976380D01*
X192263440Y-64976380D02*
X192263440Y-64452570D01*
X192263440Y-64452570D02*
X192215821Y-64357332D01*
X192215821Y-64357332D02*
X192120583Y-64309713D01*
X192120583Y-64309713D02*
X191930107Y-64309713D01*
X191930107Y-64309713D02*
X191834869Y-64357332D01*
X192263440Y-64928761D02*
X192168202Y-64976380D01*
X192168202Y-64976380D02*
X191930107Y-64976380D01*
X191930107Y-64976380D02*
X191834869Y-64928761D01*
X191834869Y-64928761D02*
X191787250Y-64833522D01*
X191787250Y-64833522D02*
X191787250Y-64738284D01*
X191787250Y-64738284D02*
X191834869Y-64643046D01*
X191834869Y-64643046D02*
X191930107Y-64595427D01*
X191930107Y-64595427D02*
X192168202Y-64595427D01*
X192168202Y-64595427D02*
X192263440Y-64547808D01*
M02*
