M48
; DRILL file {KiCad 8.99.0-3218-gdd8f7901b1} date 2025-01-02T16:22:09-0500
; FORMAT={-:-/ absolute / inch / decimal}
; #@! TF.CreationDate,2025-01-02T16:22:09-05:00
; #@! TF.GenerationSoftware,Kicad,Pcbnew,8.99.0-3218-gdd8f7901b1
; #@! TF.FileFunction,Plated,1,2,PTH
FMAT,2
INCH
; #@! TA.AperFunction,Plated,PTH,ViaDrill
T1C0.0118
; #@! TA.AperFunction,Plated,PTH,ComponentDrill
T2C0.0236
; #@! TA.AperFunction,Plated,PTH,ComponentDrill
T3C0.0394
; #@! TA.AperFunction,Plated,PTH,ComponentDrill
T4C0.0512
%
G90
G05
T1
X6.6193Y-2.9382
X6.6697Y-2.8972
X6.6732Y-2.7165
X6.6732Y-2.7559
X6.6732Y-2.7874
X6.6732Y-2.9921
X6.6732Y-3.2087
X6.6907Y-2.8402
X6.692Y-2.8749
X6.692Y-3.1507
X6.6923Y-3.0842
X6.6928Y-3.1181
X6.7025Y-2.811
X6.7047Y-3.1968
X6.7057Y-3.0108
X6.7057Y-3.0557
X6.737Y-3.0078
X6.752Y-2.7165
X6.7756Y-3.4646
X6.7959Y-3.5039
X6.8317Y-2.9478
X6.8996Y-2.9232
X6.9285Y-3.5877
X6.9697Y-3.6259
X7.2028Y-3.3839
X7.2047Y-3.3071
X7.2047Y-3.622
X7.2055Y-3.5319
X7.2244Y-2.8346
X7.2244Y-2.8661
X7.2244Y-2.9331
X7.2244Y-3.0315
X7.2247Y-2.8982
X7.2247Y-2.9651
X7.2249Y-3.1305
X7.2251Y-2.9976
X7.2251Y-3.0639
X7.2255Y-3.0968
X7.2467Y-3.4514
X7.248Y-2.7756
X7.2525Y-3.1793
X7.254Y-3.1426
X7.2766Y-3.5955
X7.2835Y-3.1693
X7.3031Y-2.7756
X7.3031Y-3.5433
X7.3622Y-3.4055
X7.4508Y-3.2874
T3
X6.9671Y-2.7252
X6.9671Y-2.8252
X6.9671Y-2.9252
X6.9671Y-3.0252
X6.9671Y-3.1252
X6.9671Y-3.2252
X6.9671Y-3.3252
X6.9671Y-3.4252
X7.0671Y-2.7252
X7.0671Y-2.8252
X7.0671Y-2.9252
X7.0671Y-3.0252
X7.0671Y-3.1252
X7.0671Y-3.2252
X7.0671Y-3.3252
X7.0671Y-3.4252
T4
X7.6069Y-3.3702
X7.6069Y-3.567
T2
G00X6.6693Y-3.2794
M15
G01X6.6378Y-3.2794
M16
G05
G00X6.6693Y-3.62
M15
G01X6.6378Y-3.62
M16
G05
G00X6.8394Y-3.2794
M15
G01X6.7961Y-3.2794
M16
G05
G00X6.8394Y-3.62
M15
G01X6.7961Y-3.62
M16
G05
M30
