%TF.GenerationSoftware,KiCad,Pcbnew,8.99.0-3218-gdd8f7901b1*%
%TF.CreationDate,2025-01-02T16:36:55-05:00*%
%TF.ProjectId,hack_matrix,6861636b-5f6d-4617-9472-69782e6b6963,rev?*%
%TF.SameCoordinates,Original*%
%TF.FileFunction,Copper,L2,Bot*%
%TF.FilePolarity,Positive*%
%FSLAX46Y46*%
G04 Gerber Fmt 4.6, Leading zero omitted, Abs format (unit mm)*
G04 Created by KiCad (PCBNEW 8.99.0-3218-gdd8f7901b1) date 2025-01-02 16:36:55*
%MOMM*%
%LPD*%
G01*
G04 APERTURE LIST*
%TA.AperFunction,ComponentPad*%
%ADD10O,2.000000X0.900000*%
%TD*%
%TA.AperFunction,ComponentPad*%
%ADD11O,1.700000X0.900000*%
%TD*%
%TA.AperFunction,ComponentPad*%
%ADD12C,2.000000*%
%TD*%
%TA.AperFunction,ComponentPad*%
%ADD13R,1.700000X1.700000*%
%TD*%
%TA.AperFunction,ComponentPad*%
%ADD14O,1.700000X1.700000*%
%TD*%
%TA.AperFunction,ViaPad*%
%ADD15C,0.600000*%
%TD*%
%TA.AperFunction,Conductor*%
%ADD16C,0.200000*%
%TD*%
G04 APERTURE END LIST*
D10*
%TO.P,J1,S1,SHIELD*%
%TO.N,GND*%
X173170000Y-83297570D03*
%TO.P,J1,S2,SHIELD*%
X173170000Y-91947570D03*
D11*
%TO.P,J1,S3,SHIELD*%
X169000000Y-83297570D03*
%TO.P,J1,S4,SHIELD*%
X169000000Y-91947570D03*
%TD*%
D12*
%TO.P,J2,1,Pin_1*%
%TO.N,+5V*%
X193216183Y-90602955D03*
%TO.P,J2,2,Pin_2*%
%TO.N,GND*%
X193216183Y-85602955D03*
%TD*%
D13*
%TO.P,U2,1,R1*%
%TO.N,Net-(U2-R1)*%
X176964810Y-69220000D03*
D14*
%TO.P,U2,2,G1*%
%TO.N,Net-(U2-G1)*%
X179504810Y-69220000D03*
%TO.P,U2,3,B1*%
%TO.N,Net-(U2-B1)*%
X176964810Y-71760000D03*
%TO.P,U2,4,GND*%
%TO.N,GND*%
X179504810Y-71760000D03*
%TO.P,U2,5,R2*%
%TO.N,Net-(U2-R2)*%
X176964810Y-74300000D03*
%TO.P,U2,6,G2*%
%TO.N,Net-(U2-G2)*%
X179504810Y-74300000D03*
%TO.P,U2,7,B2*%
%TO.N,Net-(U2-B2)*%
X176964810Y-76840000D03*
%TO.P,U2,8,GND*%
%TO.N,GND*%
X179504810Y-76840000D03*
%TO.P,U2,9,A*%
%TO.N,Net-(U1-B3)*%
X176964810Y-79380000D03*
%TO.P,U2,10,B*%
%TO.N,Net-(U1-B2)*%
X179504810Y-79380000D03*
%TO.P,U2,11,C*%
%TO.N,Net-(U1-B5)*%
X176964810Y-81920000D03*
%TO.P,U2,12,D*%
%TO.N,Net-(U1-B4)*%
X179504810Y-81920000D03*
%TO.P,U2,13,CLK*%
%TO.N,Net-(U1-B7)*%
X176964810Y-84460000D03*
%TO.P,U2,14,STROBE*%
%TO.N,Net-(U1-B6)*%
X179504810Y-84460000D03*
%TO.P,U2,15,OE-*%
%TO.N,Net-(U1-B8)*%
X176964810Y-87000000D03*
%TO.P,U2,16,GND*%
%TO.N,GND*%
X179504810Y-87000000D03*
%TD*%
D15*
%TO.N,+5V*%
X183000000Y-84000000D03*
X173524821Y-74875179D03*
X182951421Y-85951421D03*
X175250000Y-74250000D03*
%TO.N,GND*%
X183019588Y-89710000D03*
X184825735Y-91325735D03*
X185500000Y-90000000D03*
X168130000Y-74630000D03*
X169500000Y-76000000D03*
X171500000Y-69000000D03*
X171120736Y-76398318D03*
X184065637Y-87665637D03*
X169500000Y-69000000D03*
%TO.N,+3V3*%
X184100000Y-70500000D03*
X183000000Y-92000000D03*
X177031590Y-92098912D03*
%TO.N,/GPIO0*%
X187000000Y-86500000D03*
X185500000Y-70500000D03*
%TO.N,Net-(J1-CC1)*%
X172614871Y-89000000D03*
X175983897Y-91126936D03*
%TO.N,/B2*%
X183516726Y-76139377D03*
X169410604Y-73589396D03*
%TO.N,/R1*%
X183500000Y-72000000D03*
X169500000Y-70000000D03*
%TO.N,/C*%
X183512637Y-79515911D03*
X169996927Y-79199726D03*
%TO.N,/R2*%
X183507866Y-75313392D03*
X169976291Y-73023709D03*
%TO.N,/B1*%
X183507866Y-73613394D03*
X170242785Y-71400003D03*
%TO.N,/CLK*%
X184212475Y-80755323D03*
X170300071Y-81199929D03*
%TO.N,/A*%
X170324264Y-77614370D03*
X183517700Y-77823220D03*
%TO.N,/OE-*%
X169500000Y-81500000D03*
X185000000Y-80500000D03*
%TO.N,/G1*%
X169500000Y-70800003D03*
X183500000Y-72800003D03*
%TO.N,/STROBE*%
X169976736Y-80028064D03*
X184251743Y-79822059D03*
%TO.N,/D*%
X183526524Y-78659022D03*
X169984251Y-78338521D03*
%TO.N,/G2*%
X183500000Y-74500000D03*
X169942705Y-72141593D03*
%TO.N,/B*%
X183500000Y-77000000D03*
X170324264Y-76473396D03*
%TO.N,/D-*%
X189250000Y-83500000D03*
X172100000Y-88000000D03*
%TD*%
D16*
%TO.N,Net-(J1-CC1)*%
X172614871Y-89262570D02*
X174000000Y-90647699D01*
X172614871Y-89000000D02*
X172614871Y-89262570D01*
X174000000Y-90956151D02*
X174170785Y-91126936D01*
X174170785Y-91126936D02*
X175983897Y-91126936D01*
X174000000Y-90647699D02*
X174000000Y-90956151D01*
%TO.N,/OE-*%
X177202548Y-91000000D02*
X177072548Y-90870000D01*
X170150000Y-82986910D02*
X169710660Y-82547570D01*
X177072548Y-90870000D02*
X176575490Y-90870000D01*
X185000000Y-80500000D02*
X185000000Y-85882744D01*
X185000000Y-85882744D02*
X181067067Y-89815677D01*
X178862492Y-89815677D02*
X177678169Y-91000000D01*
X175000000Y-90000000D02*
X170150000Y-85150000D01*
X176575490Y-90870000D02*
X175705490Y-90000000D01*
X175705490Y-90000000D02*
X175000000Y-90000000D01*
X170150000Y-85150000D02*
X170150000Y-82986910D01*
X181067067Y-89815677D02*
X178862492Y-89815677D01*
X177678169Y-91000000D02*
X177202548Y-91000000D01*
X169710660Y-82547570D02*
X169547570Y-82547570D01*
X169547570Y-82547570D02*
X169500000Y-82500000D01*
X169500000Y-82500000D02*
X169500000Y-81500000D01*
%TO.N,+5V*%
X183000000Y-85902842D02*
X182951421Y-85951421D01*
X174925977Y-74574023D02*
X173825977Y-74574023D01*
X183000000Y-84000000D02*
X183000000Y-85902842D01*
X173825977Y-74574023D02*
X173524821Y-74875179D01*
X175250000Y-74250000D02*
X174925977Y-74574023D01*
%TO.N,GND*%
X183019588Y-89710000D02*
X184065637Y-88663951D01*
X184825735Y-90674265D02*
X185500000Y-90000000D01*
X169626604Y-75873396D02*
X169500000Y-76000000D01*
X171120736Y-76398318D02*
X171097715Y-76398318D01*
X176501088Y-91498912D02*
X178027786Y-91498912D01*
X167682083Y-70817917D02*
X169500000Y-69000000D01*
X168637425Y-76862575D02*
X168637425Y-82934995D01*
X175855525Y-92144475D02*
X176501088Y-91498912D01*
X184065637Y-88663951D02*
X184065637Y-87665637D01*
X169500000Y-76000000D02*
X168637425Y-76862575D01*
X173366905Y-92144475D02*
X175855525Y-92144475D01*
X173170000Y-91947570D02*
X173366905Y-92144475D01*
X167682083Y-74182083D02*
X167682083Y-70817917D01*
X168130000Y-74630000D02*
X169500000Y-76000000D01*
X168637425Y-82934995D02*
X169000000Y-83297570D01*
X184825735Y-91325735D02*
X184825735Y-90674265D01*
X169500000Y-69000000D02*
X171500000Y-69000000D01*
X168130000Y-74630000D02*
X167682083Y-74182083D01*
X179311021Y-90215677D02*
X182513911Y-90215677D01*
X178027786Y-91498912D02*
X179311021Y-90215677D01*
X171097715Y-76398318D02*
X170572793Y-75873396D01*
X170572793Y-75873396D02*
X169626604Y-75873396D01*
X182513911Y-90215677D02*
X183019588Y-89710000D01*
%TO.N,+3V3*%
X183000000Y-91000000D02*
X185600000Y-88400000D01*
X179092384Y-91000000D02*
X183000000Y-91000000D01*
X177993472Y-92098912D02*
X179092384Y-91000000D01*
X185600000Y-72000000D02*
X184100000Y-70500000D01*
X183000000Y-92000000D02*
X182000000Y-91000000D01*
X185600000Y-88400000D02*
X185600000Y-72000000D01*
X177031590Y-92098912D02*
X177993472Y-92098912D01*
%TO.N,/GPIO0*%
X187000000Y-86500000D02*
X187073816Y-86426184D01*
X187073816Y-72073816D02*
X185500000Y-70500000D01*
X187073816Y-86426184D02*
X187073816Y-72073816D01*
%TO.N,/B2*%
X181203260Y-79123086D02*
X180700000Y-79626346D01*
X180700000Y-79626346D02*
X180700000Y-80300000D01*
X180700000Y-80300000D02*
X180230000Y-80770000D01*
X183233883Y-76139377D02*
X181203260Y-78170000D01*
X176591208Y-80770000D02*
X169410604Y-73589396D01*
X183516726Y-76139377D02*
X183233883Y-76139377D01*
X180230000Y-80770000D02*
X176591208Y-80770000D01*
X181203260Y-78170000D02*
X181203260Y-79123086D01*
%TO.N,/R1*%
X181350000Y-67850000D02*
X176034810Y-67850000D01*
X183500000Y-72000000D02*
X183500000Y-70000000D01*
X176034810Y-67850000D02*
X175814810Y-68070000D01*
X174500000Y-70000000D02*
X169500000Y-70000000D01*
X183500000Y-70000000D02*
X181350000Y-67850000D01*
X175814810Y-68070000D02*
X175814810Y-68685190D01*
X175814810Y-68685190D02*
X174500000Y-70000000D01*
%TO.N,/C*%
X174264206Y-87567148D02*
X175222378Y-88525320D01*
X171870000Y-84841809D02*
X174264206Y-87236015D01*
X175746585Y-88615677D02*
X180570009Y-88615677D01*
X175656228Y-88525320D02*
X175746585Y-88615677D01*
X171870000Y-82986910D02*
X171870000Y-84841809D01*
X182315686Y-80315686D02*
X183115461Y-79515911D01*
X172000000Y-82856910D02*
X171870000Y-82986910D01*
X174264206Y-87236015D02*
X174264206Y-87567148D01*
X172000000Y-81202799D02*
X172000000Y-82856910D01*
X175222378Y-88525320D02*
X175656228Y-88525320D01*
X183115461Y-79515911D02*
X183512637Y-79515911D01*
X182315686Y-86870000D02*
X182315686Y-80315686D01*
X169996927Y-79199726D02*
X172000000Y-81202799D01*
X180570009Y-88615677D02*
X182315686Y-86870000D01*
%TO.N,/R2*%
X174952582Y-78000000D02*
X180807574Y-78000000D01*
X169976291Y-73023709D02*
X174952582Y-78000000D01*
X183494182Y-75313392D02*
X183507866Y-75313392D01*
X180807574Y-78000000D02*
X183494182Y-75313392D01*
%TO.N,/B1*%
X171842782Y-73000000D02*
X182300660Y-73000000D01*
X182300660Y-73000000D02*
X182914054Y-73613394D01*
X182914054Y-73613394D02*
X183507866Y-73613394D01*
X170242785Y-71400003D02*
X171842782Y-73000000D01*
%TO.N,/CLK*%
X176496595Y-89600000D02*
X178512483Y-89600000D01*
X178696806Y-89415677D02*
X180901381Y-89415677D01*
X176396595Y-89500000D02*
X176496595Y-89600000D01*
X178512483Y-89600000D02*
X178696806Y-89415677D01*
X184122733Y-80877267D02*
X184212475Y-80787525D01*
X171070000Y-85504314D02*
X175065686Y-89500000D01*
X171200000Y-81817014D02*
X171200000Y-82525538D01*
X171200000Y-82525538D02*
X171070000Y-82655538D01*
X170582915Y-81199929D02*
X171200000Y-81817014D01*
X175065686Y-89500000D02*
X176396595Y-89500000D01*
X170300071Y-81199929D02*
X170582915Y-81199929D01*
X184212475Y-80787525D02*
X184212475Y-80755323D01*
X180901381Y-89415677D02*
X184122733Y-86194325D01*
X184122733Y-86194325D02*
X184122733Y-80877267D01*
X171070000Y-82655538D02*
X171070000Y-85504314D01*
%TO.N,/A*%
X170324264Y-77824264D02*
X170324264Y-77614370D01*
X182400000Y-79100000D02*
X181500000Y-80000000D01*
X183513797Y-77823220D02*
X182400000Y-78937017D01*
X175500000Y-83000000D02*
X170324264Y-77824264D01*
X181500000Y-84331156D02*
X179981156Y-85850000D01*
X182400000Y-78937017D02*
X182400000Y-79100000D01*
X179981156Y-85850000D02*
X176728464Y-85850000D01*
X181500000Y-80000000D02*
X181500000Y-84331156D01*
X175500000Y-83668844D02*
X175500000Y-83000000D01*
X175814810Y-83983654D02*
X175500000Y-83668844D01*
X175814810Y-84936346D02*
X175814810Y-83983654D01*
X183517700Y-77823220D02*
X183513797Y-77823220D01*
X176728464Y-85850000D02*
X175814810Y-84936346D01*
%TO.N,/G1*%
X169500000Y-70800003D02*
X176113651Y-70800003D01*
X176113651Y-70800003D02*
X176413654Y-70500000D01*
X176413654Y-70500000D02*
X180366346Y-70500000D01*
X180366346Y-70500000D02*
X182666349Y-72800003D01*
X182666349Y-72800003D02*
X183500000Y-72800003D01*
%TO.N,/STROBE*%
X184194124Y-79764440D02*
X184112637Y-79764440D01*
X171470000Y-82821224D02*
X171600000Y-82691224D01*
X176662281Y-89200000D02*
X176532280Y-89070000D01*
X175131372Y-89000000D02*
X171470000Y-85338628D01*
X183612475Y-81003852D02*
X183722733Y-81114110D01*
X175425320Y-89000000D02*
X175131372Y-89000000D01*
X171600000Y-82691224D02*
X171600000Y-81651328D01*
X183722733Y-81114110D02*
X183722733Y-86028639D01*
X183612475Y-80264602D02*
X183612475Y-81003852D01*
X178531120Y-89015677D02*
X178346797Y-89200000D01*
X175495320Y-89070000D02*
X175425320Y-89000000D01*
X171600000Y-81651328D02*
X169976736Y-80028064D01*
X176532280Y-89070000D02*
X175495320Y-89070000D01*
X184112637Y-79764440D02*
X183612475Y-80264602D01*
X178346797Y-89200000D02*
X176662281Y-89200000D01*
X171470000Y-85338628D02*
X171470000Y-82821224D01*
X184251743Y-79822059D02*
X184194124Y-79764440D01*
X183722733Y-86028639D02*
X180735695Y-89015677D01*
X180735695Y-89015677D02*
X178531120Y-89015677D01*
%TO.N,/D*%
X174664206Y-87401462D02*
X174664206Y-87070330D01*
X174664206Y-87070330D02*
X174470000Y-86876124D01*
X181900000Y-86720000D02*
X180404323Y-88215677D01*
X181900000Y-80165686D02*
X181900000Y-86720000D01*
X175912271Y-88215677D02*
X175821914Y-88125320D01*
X183406664Y-78659022D02*
X181900000Y-80165686D01*
X173000000Y-81354270D02*
X169984251Y-78338521D01*
X175821914Y-88125320D02*
X175388064Y-88125320D01*
X174030660Y-82547570D02*
X173000000Y-82547570D01*
X173000000Y-82547570D02*
X173000000Y-81354270D01*
X183526524Y-78659022D02*
X183406664Y-78659022D01*
X175388064Y-88125320D02*
X174664206Y-87401462D01*
X180404323Y-88215677D02*
X175912271Y-88215677D01*
X174470000Y-86876124D02*
X174470000Y-82986910D01*
X174470000Y-82986910D02*
X174030660Y-82547570D01*
%TO.N,/G2*%
X173301112Y-75500000D02*
X182472729Y-75500000D01*
X182472729Y-75500000D02*
X183472729Y-74500000D01*
X183472729Y-74500000D02*
X183500000Y-74500000D01*
X169942705Y-72141593D02*
X173301112Y-75500000D01*
%TO.N,/B*%
X170324264Y-76473396D02*
X170324264Y-76650610D01*
X181100000Y-79792032D02*
X181100000Y-81951156D01*
X183500000Y-77000000D02*
X183492391Y-77000000D01*
X181603260Y-78889131D02*
X181603260Y-79288772D01*
X183492391Y-77000000D02*
X181603260Y-78889131D01*
X179981156Y-83070000D02*
X176135686Y-83070000D01*
X181100000Y-81951156D02*
X179981156Y-83070000D01*
X181603260Y-79288772D02*
X181100000Y-79792032D01*
X171000000Y-77934314D02*
X171000000Y-77149132D01*
X171000000Y-77149132D02*
X170324264Y-76473396D01*
X176135686Y-83070000D02*
X171000000Y-77934314D01*
%TO.N,/D-*%
X171400000Y-88600000D02*
X171400000Y-92098912D01*
X184053661Y-92946339D02*
X189250000Y-87750000D01*
X189250000Y-87750000D02*
X189250000Y-83500000D01*
X171400000Y-92098912D02*
X172247427Y-92946339D01*
X172100000Y-88000000D02*
X172000000Y-88000000D01*
X172247427Y-92946339D02*
X184053661Y-92946339D01*
X172000000Y-88000000D02*
X171400000Y-88600000D01*
%TD*%
M02*
